{"glyphs":{"0":{"ha":633,"x_min":46,"x_max":623,"o":"m 279 -17 q 182 -3 225 -17 q 109 45 139 12 q 62 136 79 79 q 46 277 46 192 q 50 369 46 319 q 62 476 54 418 q 112 717 81 621 q 183 868 142 812 q 276 947 224 924 q 389 970 328 970 q 486 956 442 970 q 559 907 529 941 q 606 816 590 873 q 623 673 623 759 q 619 583 623 631 q 607 476 615 534 q 556 236 587 331 q 484 84 526 140 q 392 6 443 28 q 279 -17 340 -17 m 285 123 q 338 142 316 123 q 376 198 360 160 q 405 293 393 235 q 428 428 417 350 q 443 534 437 490 q 451 607 448 577 q 456 657 454 637 q 457 694 457 677 q 441 796 457 762 q 383 829 425 829 q 330 811 352 829 q 291 755 307 793 q 262 660 275 718 q 240 525 250 603 q 220 388 231 457 q 210 245 210 319 q 227 153 210 183 q 285 123 244 123 z "},"1":{"ha":633,"x_min":17,"x_max":606,"o":"m 245 140 l 330 734 l 117 734 l 132 846 q 200 858 161 849 q 282 882 239 867 q 366 914 324 896 q 444 953 408 932 l 525 953 l 411 140 l 606 140 l 586 0 l 17 0 l 35 140 l 245 140 z "},"2":{"ha":633,"x_min":-5,"x_max":635,"o":"m 0 33 q 36 151 11 96 q 96 252 62 205 q 171 342 130 300 q 251 423 211 384 q 329 500 292 463 q 396 576 367 538 q 443 656 425 615 q 460 743 460 697 q 456 773 460 758 q 443 800 452 788 q 419 819 434 812 q 383 827 404 827 q 338 815 357 827 q 304 783 319 803 q 282 738 290 764 q 269 682 273 711 l 262 625 l 94 625 q 114 756 94 694 q 172 866 134 819 q 267 942 210 913 q 399 970 324 970 q 492 958 449 970 q 566 921 534 946 q 615 857 597 896 q 635 764 633 818 q 610 626 635 690 q 548 504 586 561 q 462 396 509 446 q 370 303 415 347 q 287 223 325 260 q 228 155 248 186 l 555 155 l 533 0 l -5 0 l 0 33 z "},"3":{"ha":633,"x_min":33,"x_max":636,"o":"m 33 214 q 34 228 33 220 q 35 244 34 235 q 37 266 35 254 q 40 294 38 278 l 212 294 q 207 249 208 262 q 205 227 205 235 q 227 151 205 178 q 293 123 249 123 q 342 135 319 123 q 381 169 365 146 q 408 226 398 191 q 418 307 418 260 q 410 359 418 338 q 390 391 403 379 q 360 409 377 404 q 323 414 342 414 l 278 414 l 297 554 l 346 554 q 388 566 367 554 q 425 600 408 577 q 452 659 441 623 q 463 741 463 694 q 444 808 463 787 q 392 829 425 829 q 320 792 348 829 q 281 669 292 755 l 110 669 q 141 800 116 743 q 204 893 166 856 q 292 950 243 931 q 395 970 340 970 q 494 956 450 970 q 571 915 539 942 q 619 847 602 888 q 636 753 636 806 q 624 659 636 700 q 590 587 612 618 q 541 534 569 556 q 481 494 513 511 l 481 489 q 525 463 505 479 q 559 424 545 447 q 582 372 574 401 q 590 306 590 342 q 566 172 590 231 q 502 70 543 112 q 407 5 461 28 q 290 -17 352 -17 q 178 -1 227 -17 q 98 45 130 15 q 50 118 66 75 q 33 214 33 161 z "},"4":{"ha":633,"x_min":4,"x_max":624,"o":"m 24 349 q 113 490 69 414 q 197 646 157 566 q 274 808 237 726 q 343 970 311 890 l 513 970 q 461 844 491 908 q 398 717 431 779 q 330 598 365 655 q 264 493 296 541 q 207 410 233 446 q 165 355 181 374 l 363 355 l 386 525 q 421 586 403 552 q 457 654 440 619 q 489 722 475 688 q 514 783 504 755 l 587 783 l 526 355 l 624 355 l 604 215 l 509 215 l 478 0 l 313 0 l 343 215 l 4 215 l 24 349 z "},"5":{"ha":633,"x_min":33,"x_max":644,"o":"m 33 233 q 37 296 33 262 l 210 296 q 205 245 205 269 q 228 155 205 188 q 292 122 250 122 q 340 137 316 122 q 384 183 365 153 q 416 257 404 213 q 428 361 428 302 q 407 452 428 420 q 351 484 385 484 q 286 460 313 484 q 239 403 258 437 l 82 425 l 187 953 l 644 953 l 623 798 l 311 798 l 265 572 q 323 604 288 589 q 407 619 358 619 q 484 605 448 619 q 545 562 519 591 q 586 489 571 533 q 600 386 600 446 q 575 215 600 290 q 508 89 551 140 q 408 10 465 37 q 285 -17 351 -17 q 179 0 226 -17 q 100 49 132 17 q 51 128 68 81 q 33 233 33 174 z "},"6":{"ha":633,"x_min":53,"x_max":619,"o":"m 53 281 q 65 449 53 352 q 116 697 85 597 q 189 858 147 798 q 282 944 231 919 q 395 970 334 970 q 496 952 454 970 q 566 904 539 935 q 606 830 593 873 q 619 736 619 787 q 618 699 619 718 q 614 660 617 680 l 444 660 q 449 697 448 680 q 450 730 450 715 q 435 804 450 779 q 385 829 420 829 q 330 808 352 829 q 293 746 309 786 q 267 650 278 707 q 245 524 256 593 q 315 579 274 559 q 401 599 357 599 q 486 582 450 599 q 546 534 522 565 q 581 461 570 504 q 593 367 593 418 q 569 209 593 279 q 506 87 546 138 q 412 10 466 37 q 298 -17 359 -17 q 196 -2 241 -17 q 118 48 150 14 q 70 140 87 83 q 53 281 53 197 m 297 123 q 340 135 321 123 q 373 166 359 147 q 396 210 387 186 q 411 260 406 235 q 419 308 416 285 q 421 347 421 331 q 403 431 421 399 q 345 463 385 463 q 294 446 317 463 q 254 399 271 429 q 229 329 238 370 q 220 240 220 288 q 224 193 220 214 q 239 156 229 171 q 263 132 248 140 q 297 123 277 123 z "},"7":{"ha":633,"x_min":96,"x_max":689,"o":"m 96 0 q 151 227 112 115 q 244 441 191 338 q 360 634 297 544 q 488 798 423 725 l 103 798 l 125 953 l 689 953 l 672 840 q 596 738 635 793 q 517 622 556 683 q 442 494 478 561 q 376 358 406 428 q 324 216 346 288 q 293 71 302 144 q 291 53 292 61 q 289 38 290 45 q 287 21 288 31 l 285 0 l 96 0 z "},"8":{"ha":633,"x_min":29,"x_max":624,"o":"m 29 207 q 38 291 29 249 q 66 371 47 333 q 115 439 85 408 q 186 489 145 469 q 129 559 147 516 q 111 653 111 602 q 130 773 111 716 q 183 874 148 831 q 270 944 218 918 q 389 970 322 970 q 495 951 450 970 q 568 902 539 933 q 610 831 597 871 q 624 747 624 791 q 615 673 624 711 q 588 602 606 636 q 545 539 570 568 q 488 489 520 510 q 558 416 536 462 q 581 313 581 371 q 562 187 581 247 q 506 82 543 127 q 412 10 468 37 q 281 -17 356 -17 q 166 0 214 -17 q 88 47 119 17 q 43 118 58 77 q 29 207 29 159 m 347 555 q 389 567 369 555 q 423 602 408 578 q 447 659 438 625 q 456 737 456 692 q 437 807 456 784 q 385 831 418 831 q 334 813 355 831 q 300 769 313 795 q 282 711 288 743 q 277 652 277 680 q 347 555 277 555 m 201 227 q 223 149 201 175 q 286 122 245 122 q 336 135 313 122 q 375 171 359 147 q 401 231 392 195 q 411 313 411 267 q 390 391 411 363 q 328 418 370 418 q 269 399 293 418 q 230 353 245 381 q 208 291 215 325 q 201 227 201 257 z "},"9":{"ha":633,"x_min":53,"x_max":619,"o":"m 53 216 q 54 254 53 235 q 58 293 55 273 l 228 293 q 223 256 224 273 q 222 222 222 238 q 237 149 222 174 q 288 123 252 123 q 342 145 320 123 q 379 207 363 167 q 405 303 394 246 q 427 429 416 359 q 357 374 398 393 q 271 354 315 354 q 186 371 222 354 q 126 418 150 388 q 91 492 102 449 q 79 586 79 534 q 103 744 79 673 q 166 865 126 815 q 260 943 206 916 q 374 970 313 970 q 476 955 431 970 q 554 904 522 939 q 602 812 585 869 q 619 672 619 755 q 607 504 619 600 q 556 255 587 355 q 484 95 525 155 q 391 8 442 34 q 278 -17 339 -17 q 176 0 218 -17 q 106 49 134 18 q 66 123 79 80 q 53 216 53 165 m 328 490 q 378 507 355 490 q 418 553 401 524 q 444 624 435 583 q 453 713 453 665 q 434 797 453 765 q 375 829 415 829 q 332 818 351 829 q 299 786 313 806 q 276 743 286 767 q 262 693 267 718 q 254 645 256 668 q 252 606 252 622 q 270 522 252 553 q 328 490 288 490 z "},"\r":{"ha":0,"x_min":0,"x_max":0,"o":""}," ":{"ha":317,"x_min":0,"x_max":0,"o":""},"!":{"ha":379,"x_min":47,"x_max":383,"o":"m 383 953 l 237 273 l 123 273 l 171 953 l 383 953 m 267 191 l 239 0 l 47 0 l 75 191 l 267 191 z "},"\"":{"ha":541,"x_min":117,"x_max":567,"o":"m 397 953 l 567 953 l 538 749 l 478 566 l 368 566 l 368 749 l 397 953 m 146 953 l 315 953 l 286 749 l 227 566 l 117 566 l 117 749 l 146 953 z "},"#":{"ha":633,"x_min":31,"x_max":648,"o":"m 31 271 l 31 387 l 144 387 l 187 583 l 85 583 l 85 700 l 214 700 l 275 970 l 397 970 l 336 700 l 440 700 l 501 970 l 624 970 l 562 700 l 648 700 l 648 583 l 536 583 l 493 387 l 595 387 l 595 271 l 467 271 l 406 0 l 283 0 l 345 271 l 240 271 l 179 0 l 57 0 l 118 271 l 31 271 m 414 583 l 310 583 l 267 387 l 371 387 l 414 583 z "},"$":{"ha":633,"x_min":33,"x_max":614,"o":"m 244 96 q 156 117 195 102 q 90 155 117 132 q 48 211 62 179 q 33 282 33 243 q 35 306 33 294 q 37 327 36 317 q 41 347 39 338 l 200 347 l 197 334 q 195 322 196 328 q 195 313 195 317 q 214 252 195 273 q 262 224 233 231 l 290 421 q 223 450 257 435 q 162 489 189 466 q 117 547 134 513 q 100 629 100 581 q 120 723 100 682 q 174 793 140 764 q 254 837 208 821 q 353 856 300 853 l 374 1004 l 441 1004 l 421 854 q 513 826 476 848 q 572 773 550 804 q 604 705 595 743 q 614 627 614 667 l 457 627 q 455 660 457 644 q 446 689 452 676 q 430 711 440 702 q 403 726 419 721 l 376 546 q 453 515 416 532 q 520 476 491 499 q 568 420 550 453 q 586 339 586 387 q 563 228 586 274 q 503 152 541 182 q 416 108 465 122 q 313 93 366 94 l 290 -68 l 222 -68 l 244 96 m 330 218 q 363 226 347 220 q 392 242 379 232 q 413 268 405 253 q 421 304 421 283 q 402 356 421 336 q 355 392 384 376 l 330 218 m 335 729 q 282 702 303 723 q 261 648 261 681 q 275 605 261 623 q 313 575 290 587 l 335 729 z "},"%":{"ha":1013,"x_min":94,"x_max":957,"o":"m 271 468 q 197 476 230 468 q 141 505 164 485 q 106 558 119 526 q 94 640 94 591 q 112 794 94 732 q 160 896 130 857 q 229 952 190 935 q 313 970 269 970 q 387 961 354 970 q 442 932 419 952 q 477 878 465 911 q 489 796 489 845 q 486 726 489 763 q 473 652 482 688 q 448 582 464 615 q 408 523 433 549 q 350 483 384 498 q 271 468 316 468 m 943 953 l 227 0 l 109 0 l 823 953 l 943 953 m 271 570 q 306 580 292 570 q 331 608 321 590 q 348 652 341 627 q 358 708 354 677 q 364 759 363 741 q 366 790 366 777 q 354 847 366 825 q 313 868 342 868 q 277 858 292 868 q 253 829 262 848 q 236 785 243 811 q 225 729 230 760 q 218 679 220 697 q 216 647 216 661 q 228 591 216 612 q 271 570 240 570 m 562 155 q 580 310 562 247 q 628 411 597 372 q 697 468 658 450 q 781 485 736 485 q 854 476 822 485 q 910 447 887 467 q 945 393 932 427 q 957 311 957 360 q 954 241 957 278 q 941 167 950 203 q 916 97 932 130 q 877 38 901 64 q 819 -2 852 13 q 739 -17 785 -17 q 665 -8 698 -17 q 609 20 632 0 q 574 74 587 41 q 562 155 562 106 m 685 163 q 697 106 685 127 q 739 85 709 85 q 774 95 760 85 q 799 123 789 105 q 816 168 809 142 q 827 224 823 193 q 832 274 831 256 q 833 306 833 292 q 822 362 833 341 q 781 383 810 383 q 745 373 760 383 q 721 345 730 363 q 704 300 711 326 q 693 244 698 275 q 686 194 688 212 q 685 163 685 176 z "},"&":{"ha":822,"x_min":45,"x_max":832,"o":"m 45 215 q 60 317 45 271 q 103 399 76 364 q 165 457 130 434 q 240 489 201 480 l 240 494 q 194 524 215 507 q 158 562 174 541 q 135 610 143 583 q 126 669 126 637 q 153 799 126 743 q 226 892 180 854 q 334 950 272 930 q 467 970 396 970 q 582 954 530 970 q 671 910 634 939 q 728 840 708 881 q 749 747 749 798 q 748 737 749 743 q 747 723 748 732 q 745 702 746 715 q 741 669 743 689 l 575 669 q 580 707 579 696 q 581 724 581 718 q 549 803 581 777 q 458 829 518 829 q 391 818 421 829 q 340 787 361 807 q 308 738 319 766 q 297 673 297 709 q 329 586 297 617 q 414 554 361 554 l 471 554 l 452 414 l 399 414 q 334 406 366 414 q 276 379 302 399 q 234 326 250 359 q 218 240 218 292 q 254 152 218 180 q 353 123 290 123 q 468 160 427 123 q 518 265 509 197 l 558 554 l 832 554 l 812 414 l 704 414 l 685 269 q 650 151 677 204 q 579 61 623 98 q 477 3 536 24 q 345 -17 418 -17 q 221 -1 277 -17 q 127 44 166 14 q 66 117 87 74 q 45 215 45 160 z "},"'":{"ha":271,"x_min":117,"x_max":315,"o":"m 146 953 l 315 953 l 286 749 l 227 566 l 117 566 l 117 749 l 146 953 z "},"(":{"ha":379,"x_min":47,"x_max":463,"o":"m 47 254 q 50 327 47 290 q 58 400 53 363 q 96 569 71 486 q 159 732 121 653 q 245 883 196 810 q 353 1021 294 956 l 463 1021 q 360 847 408 940 q 277 653 312 753 q 221 450 241 553 q 201 248 201 347 q 208 122 201 184 q 225 0 214 60 q 253 -115 237 -60 q 289 -218 269 -170 l 179 -218 q 81 2 114 -117 q 47 254 47 122 z "},")":{"ha":379,"x_min":-65,"x_max":350,"o":"m -65 -218 q 38 -44 -10 -138 q 121 150 85 50 q 176 353 156 250 q 196 555 196 456 q 190 681 196 618 q 172 803 184 743 q 144 917 161 862 q 109 1021 128 972 l 218 1021 q 317 801 283 920 q 350 549 350 681 q 347 476 350 513 q 339 403 345 439 q 301 234 327 317 q 239 71 276 150 q 153 -81 201 -8 q 45 -218 104 -155 l -65 -218 z "},"*":{"ha":443,"x_min":65,"x_max":504,"o":"m 106 587 l 65 682 l 201 741 l 82 802 l 149 893 l 254 811 l 260 953 l 368 953 l 335 812 l 463 893 l 504 802 l 366 741 l 488 682 l 419 587 l 314 671 l 309 529 l 200 529 l 233 671 l 106 587 z "},"+":{"ha":665,"x_min":35,"x_max":628,"o":"m 35 282 l 56 427 l 269 427 l 309 710 l 452 710 l 412 427 l 628 427 l 607 282 l 392 282 l 353 0 l 210 0 l 249 282 l 35 282 z "},",":{"ha":317,"x_min":-8,"x_max":240,"o":"m 240 191 l 216 17 l 92 -216 l -8 -216 l 93 0 l 22 0 l 49 191 l 240 191 z "},"-":{"ha":379,"x_min":18,"x_max":376,"o":"m 376 457 l 353 293 l 18 293 l 41 457 l 376 457 z "},".":{"ha":317,"x_min":21,"x_max":239,"o":"m 239 191 l 212 0 l 21 0 l 47 191 l 239 191 z "},"/":{"ha":317,"x_min":-58,"x_max":410,"o":"m 410 1021 l 60 -68 l -58 -68 l 292 1021 l 410 1021 z "},":":{"ha":379,"x_min":32,"x_max":325,"o":"m 325 730 l 298 541 l 107 541 l 134 730 l 325 730 m 250 191 l 224 0 l 32 0 l 58 191 l 250 191 z "},";":{"ha":379,"x_min":7,"x_max":334,"o":"m 334 730 l 307 541 l 115 541 l 142 730 l 334 730 m 256 191 l 232 17 l 107 -216 l 7 -216 l 109 0 l 37 0 l 64 191 l 256 191 z "},"<":{"ha":665,"x_min":35,"x_max":671,"o":"m 671 737 l 648 574 l 187 363 l 589 151 l 567 -12 l 35 273 l 58 450 l 671 737 z "},"=":{"ha":665,"x_min":14,"x_max":648,"o":"m 648 572 l 628 428 l 56 428 l 77 572 l 648 572 m 607 277 l 586 134 l 14 134 l 35 277 l 607 277 z "},">":{"ha":665,"x_min":-4,"x_max":631,"o":"m 479 363 l 77 574 l 98 737 l 631 450 l 607 273 l -4 -12 l 17 151 l 479 363 z "},"?":{"ha":696,"x_min":93,"x_max":663,"o":"m 260 334 q 283 406 265 373 q 326 468 302 439 q 377 526 351 498 q 427 585 404 555 q 464 650 449 616 q 478 728 478 685 q 475 758 478 741 q 462 788 471 774 q 435 811 452 802 q 390 821 418 821 q 331 803 355 821 q 293 759 307 786 q 273 700 279 732 q 267 637 267 667 l 93 637 q 114 764 93 703 q 174 870 134 824 q 273 943 214 916 q 408 970 332 970 q 515 955 468 970 q 595 912 563 940 q 645 846 628 885 q 663 761 663 808 q 647 650 663 696 q 608 566 631 603 q 555 500 584 530 q 501 443 527 471 q 456 384 475 415 q 431 313 437 353 l 425 273 l 252 273 l 260 334 m 424 191 l 396 0 l 205 0 l 233 191 l 424 191 z "},"@":{"ha":1111,"x_min":46,"x_max":1089,"o":"m 46 269 q 87 572 46 441 q 205 791 128 703 q 391 925 281 880 q 636 970 500 970 q 800 955 730 970 q 920 911 869 939 q 1003 842 970 883 q 1055 751 1036 802 q 1082 640 1074 700 q 1089 513 1089 580 q 1081 400 1089 457 q 1057 289 1074 342 q 1016 188 1041 235 q 956 106 991 141 q 876 51 921 71 q 775 31 831 31 q 715 38 741 31 q 672 56 690 45 q 642 80 654 66 q 624 107 631 94 q 593 73 610 87 q 558 49 576 58 q 522 35 540 39 q 488 31 504 31 q 356 89 403 31 q 309 265 309 147 q 330 472 309 385 q 387 614 352 558 q 468 697 422 670 q 559 724 513 724 q 645 699 611 724 q 697 629 680 674 l 749 708 l 840 708 q 837 684 840 706 q 828 628 833 663 q 816 550 823 593 q 802 460 809 506 q 788 370 795 414 q 777 291 782 326 q 768 233 771 256 q 765 207 765 210 q 778 165 765 178 q 819 151 790 151 q 877 169 851 151 q 922 216 902 186 q 955 282 941 245 q 977 360 968 320 q 990 439 986 400 q 994 511 994 479 q 978 668 994 600 q 922 783 961 736 q 820 854 884 830 q 660 879 755 879 q 454 847 549 879 q 290 744 359 816 q 180 557 220 673 q 140 272 140 441 q 170 85 140 161 q 250 -37 199 9 q 372 -103 302 -83 q 526 -123 443 -123 q 608 -119 573 -123 q 665 -110 642 -115 q 710 -96 692 -104 l 699 -189 q 677 -195 693 -191 q 639 -203 661 -199 q 591 -211 617 -208 q 539 -214 565 -214 q 332 -186 424 -214 q 177 -101 241 -159 q 80 49 114 -43 q 46 269 46 140 m 458 285 q 474 192 458 224 q 526 160 490 160 q 572 177 553 160 q 606 220 592 193 q 630 280 621 246 q 645 349 640 314 q 652 416 650 383 q 654 472 654 448 q 641 562 654 530 q 587 595 627 595 q 542 577 562 595 q 508 531 522 559 q 484 467 494 503 q 469 398 475 432 q 461 333 463 363 q 458 285 458 303 z "},"A":{"ha":822,"x_min":-36,"x_max":775,"o":"m 604 953 l 775 0 l 595 0 l 564 187 l 224 187 l 142 0 l -36 0 l 400 953 l 604 953 m 496 607 q 489 666 492 634 q 484 726 486 698 q 479 791 481 759 l 473 791 q 453 724 464 757 q 432 664 444 696 q 410 607 421 633 l 294 346 l 538 346 l 496 607 z "},"B":{"ha":822,"x_min":39,"x_max":807,"o":"m 172 953 l 568 953 q 666 938 622 953 q 741 895 710 922 q 790 828 772 867 q 807 742 807 789 q 792 656 807 696 q 753 586 778 617 q 697 533 729 555 q 631 500 665 511 l 629 494 q 684 465 659 484 q 727 418 709 446 q 755 357 745 391 q 765 283 765 323 q 739 164 765 217 q 668 75 712 112 q 569 19 625 39 q 454 0 513 0 l 39 0 l 172 953 m 272 410 l 236 158 l 446 158 q 500 167 475 158 q 545 195 526 176 q 575 240 564 213 q 586 302 586 267 q 579 345 586 326 q 557 379 572 365 q 520 401 543 393 q 468 410 498 410 l 272 410 m 326 794 l 294 567 l 479 567 q 540 578 513 567 q 585 607 566 589 q 613 649 603 625 q 623 699 623 673 q 596 770 623 747 q 524 794 570 794 l 326 794 z "},"C":{"ha":822,"x_min":62,"x_max":818,"o":"m 62 347 q 72 495 62 420 q 103 639 82 570 q 158 768 125 708 q 239 873 192 829 q 349 944 287 918 q 490 970 412 970 q 626 948 566 970 q 729 882 686 926 q 795 771 772 838 q 818 616 818 705 l 818 599 l 637 599 l 637 624 q 598 767 637 717 q 490 817 559 817 q 401 794 439 817 q 336 736 363 772 q 290 652 308 699 q 261 553 272 604 q 246 450 250 501 q 241 354 241 398 q 280 193 241 250 q 399 136 318 136 q 481 154 446 136 q 543 201 517 171 q 586 270 569 231 q 612 353 603 309 l 786 353 q 739 211 770 278 q 659 93 707 144 q 545 13 611 43 q 395 -17 479 -17 q 254 5 316 -17 q 150 72 193 27 q 85 186 107 117 q 62 347 62 254 z "},"D":{"ha":822,"x_min":39,"x_max":800,"o":"m 39 0 l 172 953 l 465 953 q 607 930 545 953 q 712 862 669 907 q 778 749 755 817 q 800 591 800 682 q 790 458 800 527 q 758 323 780 389 q 702 199 736 258 q 619 96 667 140 q 508 26 571 52 q 367 0 446 0 l 39 0 m 326 794 l 237 158 l 351 158 q 445 178 404 158 q 515 230 486 197 q 566 306 545 263 q 598 396 586 349 q 615 490 610 443 q 621 579 621 537 q 573 741 621 687 q 440 794 525 794 l 326 794 z "},"E":{"ha":760,"x_min":39,"x_max":772,"o":"m 39 0 l 172 953 l 772 953 l 750 794 l 326 794 l 294 567 l 659 567 l 636 408 l 272 408 l 236 158 l 669 158 l 647 0 l 39 0 z "},"F":{"ha":696,"x_min":39,"x_max":726,"o":"m 39 0 l 174 953 l 726 953 l 705 794 l 326 794 l 293 554 l 615 554 l 593 396 l 271 396 l 215 0 l 39 0 z "},"G":{"ha":886,"x_min":62,"x_max":851,"o":"m 62 347 q 73 490 62 417 q 105 633 83 564 q 163 763 127 702 q 248 870 198 825 q 362 943 297 916 q 510 970 428 970 q 652 948 589 970 q 759 884 715 927 q 827 774 804 840 q 851 621 851 709 l 671 621 l 671 633 q 629 770 671 724 q 517 817 588 817 q 418 794 460 817 q 346 736 376 772 q 295 652 315 699 q 263 553 275 604 q 246 450 251 501 q 241 354 241 398 q 282 194 241 251 q 412 136 323 136 q 500 153 462 136 q 566 199 538 170 q 612 272 594 229 q 637 366 629 314 l 425 366 l 447 518 l 839 518 l 766 0 l 653 0 l 636 106 q 523 16 588 49 q 374 -17 458 -17 q 242 5 300 -17 q 144 72 184 27 q 83 186 104 117 q 62 347 62 254 z "},"H":{"ha":822,"x_min":39,"x_max":821,"o":"m 570 408 l 272 408 l 215 0 l 39 0 l 172 953 l 349 953 l 294 567 l 591 567 l 644 953 l 821 953 l 688 0 l 511 0 l 570 408 z "},"I":{"ha":317,"x_min":25,"x_max":335,"o":"m 335 953 l 201 0 l 25 0 l 158 953 l 335 953 z "},"J":{"ha":633,"x_min":3,"x_max":635,"o":"m 184 300 q 179 260 181 275 q 176 237 177 245 q 175 225 175 229 q 175 220 175 222 q 197 158 175 179 q 261 136 218 136 q 327 163 304 136 q 358 240 351 190 l 458 953 l 635 953 l 532 227 q 446 45 515 106 q 261 -17 376 -17 q 70 33 136 -17 q 3 179 3 83 q 3 192 3 185 q 5 211 3 199 q 9 245 7 224 q 17 300 12 266 l 184 300 z "},"K":{"ha":822,"x_min":39,"x_max":892,"o":"m 283 484 l 684 953 l 892 953 l 554 562 l 766 0 l 572 0 l 422 427 l 250 243 l 216 0 l 39 0 l 172 953 l 350 953 l 283 484 z "},"L":{"ha":696,"x_min":39,"x_max":637,"o":"m 172 953 l 349 953 l 239 167 l 637 167 l 614 0 l 39 0 l 172 953 z "},"M":{"ha":949,"x_min":29,"x_max":957,"o":"m 661 0 l 746 607 q 752 649 748 623 q 762 699 757 675 q 774 760 767 728 l 768 760 l 497 0 l 345 0 l 285 760 l 279 760 q 274 697 277 726 q 272 672 273 685 q 270 646 271 659 q 267 624 269 634 q 265 607 266 614 l 179 0 l 29 0 l 163 953 l 408 953 l 452 428 q 453 401 452 416 q 455 368 454 385 q 457 332 456 351 q 458 296 458 313 q 461 212 460 256 l 467 212 q 490 302 479 260 q 500 339 495 320 q 510 375 505 357 q 520 408 515 393 q 529 433 525 423 l 717 953 l 957 953 l 823 0 l 661 0 z "},"N":{"ha":822,"x_min":39,"x_max":821,"o":"m 530 0 l 313 525 q 304 547 309 532 q 294 576 300 562 q 282 614 288 594 l 277 610 q 274 579 275 594 q 271 553 273 566 q 268 530 269 540 l 195 0 l 39 0 l 172 953 l 328 953 l 546 428 q 554 404 549 418 q 565 374 559 389 q 576 339 570 357 l 581 343 q 584 377 582 361 q 587 404 585 391 q 590 422 589 416 l 664 953 l 821 953 l 688 0 l 530 0 z "},"O":{"ha":886,"x_min":62,"x_max":865,"o":"m 62 347 q 73 490 62 417 q 105 633 83 564 q 163 763 127 702 q 248 870 198 825 q 363 943 298 916 q 511 970 429 970 q 660 947 595 970 q 771 880 726 925 q 841 766 817 835 q 865 604 865 697 q 855 461 865 534 q 822 319 844 388 q 764 189 800 250 q 678 82 728 127 q 563 9 628 36 q 415 -17 497 -17 q 266 5 332 -17 q 156 72 201 27 q 86 186 111 117 q 62 347 62 254 m 241 354 q 282 194 241 251 q 408 136 323 136 q 506 158 464 136 q 579 217 549 180 q 631 301 610 253 q 663 400 651 349 q 680 502 675 451 q 685 597 685 553 q 644 759 685 701 q 518 817 602 817 q 419 794 462 817 q 346 736 377 772 q 295 652 315 699 q 263 553 275 604 q 246 450 251 501 q 241 354 241 398 z "},"P":{"ha":760,"x_min":39,"x_max":766,"o":"m 267 370 l 214 0 l 39 0 l 172 953 l 501 953 q 618 935 568 953 q 701 883 668 916 q 750 805 734 850 q 766 707 766 760 q 742 569 766 631 q 675 462 718 507 q 574 394 632 418 q 449 370 516 370 l 267 370 m 326 794 l 289 526 l 439 526 q 497 537 471 526 q 544 567 524 547 q 574 615 563 587 q 585 679 585 643 q 555 763 585 732 q 469 794 525 794 l 326 794 z "},"Q":{"ha":886,"x_min":62,"x_max":865,"o":"m 411 -17 q 264 6 329 -16 q 155 74 199 28 q 86 187 110 119 q 62 347 62 255 q 73 490 62 417 q 105 633 83 564 q 163 763 127 702 q 248 870 198 825 q 363 943 298 916 q 511 970 429 970 q 660 947 595 970 q 771 880 726 925 q 841 766 817 835 q 865 604 865 697 q 859 490 865 548 q 838 374 852 431 q 801 264 823 317 q 748 164 779 210 q 677 81 718 118 q 587 20 637 43 l 743 -172 l 528 -172 l 411 -17 m 518 817 q 419 794 462 817 q 346 736 377 772 q 295 652 315 699 q 263 553 275 604 q 246 450 251 501 q 241 354 241 398 q 282 194 241 251 q 408 136 323 136 q 506 158 464 136 q 579 217 549 180 q 631 301 610 253 q 663 400 651 349 q 680 502 675 451 q 685 597 685 553 q 644 759 685 701 q 518 817 602 817 z "},"R":{"ha":822,"x_min":39,"x_max":819,"o":"m 746 0 l 555 0 l 444 397 l 269 397 l 215 0 l 39 0 l 172 953 l 546 953 q 666 936 615 953 q 752 888 718 919 q 803 813 786 857 q 819 718 819 770 q 805 621 819 667 q 765 539 791 576 q 702 475 739 502 q 618 432 665 448 l 746 0 m 326 794 l 292 554 l 479 554 q 589 591 549 554 q 629 693 629 628 q 603 767 629 740 q 519 794 577 794 l 326 794 z "},"S":{"ha":760,"x_min":43,"x_max":739,"o":"m 43 239 q 43 263 43 251 q 45 288 44 276 q 48 309 47 300 q 50 323 49 318 l 233 323 q 229 299 231 315 q 227 257 227 283 q 232 218 227 239 q 252 178 237 197 q 296 148 268 160 q 371 136 325 136 q 436 146 408 136 q 484 174 465 157 q 512 214 503 191 q 522 260 522 236 q 505 323 522 296 q 459 369 488 349 q 395 406 431 389 q 321 440 359 422 q 247 477 283 457 q 182 526 211 498 q 137 592 154 554 q 119 682 119 630 q 136 785 119 734 q 191 878 153 837 q 291 944 229 919 q 441 970 353 970 q 590 946 532 970 q 681 881 648 922 q 727 786 714 840 q 739 672 739 732 l 559 672 q 552 729 559 703 q 530 774 545 755 q 490 804 514 793 q 432 815 466 815 q 399 812 420 815 q 357 800 378 810 q 321 770 336 790 q 306 717 306 751 q 323 662 306 684 q 369 622 340 640 q 433 589 397 604 q 506 557 469 574 q 580 519 544 541 q 644 467 616 498 q 689 395 672 437 q 707 296 707 353 q 680 162 707 220 q 606 64 653 104 q 496 4 559 24 q 359 -17 433 -17 q 287 -11 324 -17 q 215 8 250 -5 q 149 41 180 20 q 94 89 117 61 q 57 155 71 117 q 43 239 43 192 z "},"T":{"ha":696,"x_min":89,"x_max":755,"o":"m 89 794 l 111 953 l 755 953 l 733 794 l 498 794 l 387 0 l 212 0 l 323 794 l 89 794 z "},"U":{"ha":822,"x_min":82,"x_max":823,"o":"m 353 953 q 306 629 326 774 q 289 508 297 568 q 274 399 281 448 q 264 317 268 350 q 260 277 260 283 q 294 172 260 207 q 392 136 328 136 q 504 182 461 136 q 558 315 546 227 l 647 953 l 823 953 l 733 310 q 693 168 722 229 q 621 66 665 107 q 520 4 578 25 q 392 -17 462 -17 q 260 0 318 -17 q 163 50 203 17 q 103 132 123 83 q 82 244 82 180 q 86 293 82 256 q 97 382 90 330 q 112 497 103 435 q 129 623 120 560 q 176 953 150 772 l 353 953 z "},"V":{"ha":760,"x_min":93,"x_max":844,"o":"m 273 953 l 372 275 l 378 275 l 667 953 l 844 953 l 424 0 l 248 0 l 93 953 l 273 953 z "},"W":{"ha":1075,"x_min":93,"x_max":1156,"o":"m 268 953 l 297 233 l 302 233 q 315 285 309 260 q 327 329 321 307 q 339 367 334 351 l 533 953 l 734 953 l 765 233 l 771 233 l 783 282 q 795 326 789 302 q 807 367 801 349 l 1000 953 l 1156 953 l 828 0 l 640 0 l 597 607 q 596 634 596 620 l 596 693 q 597 718 596 707 q 597 742 597 730 l 590 742 q 577 690 584 715 q 566 645 572 668 q 554 607 559 622 l 351 0 l 164 0 l 93 953 l 268 953 z "},"X":{"ha":760,"x_min":-40,"x_max":818,"o":"m 117 953 l 311 953 l 425 663 l 431 663 l 621 953 l 818 953 l 500 497 l 710 0 l 513 0 l 380 330 l 375 330 l 153 0 l -40 0 l 306 497 l 117 953 z "},"Y":{"ha":760,"x_min":93,"x_max":844,"o":"m 93 953 l 273 953 l 411 534 l 416 534 l 665 953 l 844 953 l 475 359 l 424 0 l 249 0 l 298 359 l 93 953 z "},"Z":{"ha":696,"x_min":-17,"x_max":734,"o":"m 465 794 l 118 794 l 140 953 l 734 953 l 729 884 l 252 158 l 637 158 l 615 0 l -17 0 l -11 68 l 465 794 z "},"[":{"ha":379,"x_min":-8,"x_max":440,"o":"m 267 -224 l -8 -224 l 164 1021 l 440 1021 l 422 889 l 307 889 l 170 -92 l 285 -92 l 267 -224 z "},"\\":{"ha":317,"x_min":81,"x_max":273,"o":"m 193 1021 l 273 -68 l 160 -68 l 81 1021 l 193 1021 z "},"]":{"ha":379,"x_min":-36,"x_max":412,"o":"m 233 889 l 118 889 l 136 1021 l 412 1021 l 239 -224 l -36 -224 l -18 -92 l 96 -92 l 233 889 z "},"^":{"ha":665,"x_min":5,"x_max":589,"o":"m 447 953 l 589 408 l 436 408 l 349 783 l 165 408 l 5 408 l 298 953 l 447 953 z "},"_":{"ha":633,"x_min":-61,"x_max":582,"o":"m 570 -183 l -61 -183 l -50 -87 l 582 -87 l 570 -183 z "},"`":{"ha":379,"x_min":119,"x_max":382,"o":"m 122 1004 l 289 1004 l 382 821 l 244 821 l 119 1000 l 122 1004 z "},"a":{"ha":633,"x_min":31,"x_max":616,"o":"m 307 747 q 402 720 365 747 q 460 643 440 692 l 488 730 l 616 730 q 573 452 592 575 q 557 349 565 399 q 544 258 549 298 q 534 191 538 217 q 530 163 530 165 q 540 133 530 142 q 564 123 549 123 l 589 123 l 572 5 q 539 -9 559 -2 q 490 -17 519 -17 q 415 9 444 -17 q 375 81 385 35 q 344 37 361 55 q 307 6 326 18 q 267 -11 288 -5 q 228 -17 247 -17 q 83 47 135 -17 q 31 241 31 112 q 54 469 31 374 q 117 627 78 565 q 206 718 156 688 q 307 747 256 747 m 271 126 q 321 144 300 126 q 359 192 343 163 q 385 259 375 222 q 401 334 395 296 q 410 408 408 372 q 412 469 412 444 q 397 569 412 533 q 339 604 382 604 q 288 585 310 604 q 251 534 267 565 q 224 464 235 503 q 208 388 214 426 q 199 317 201 350 q 196 264 196 284 q 214 161 196 197 q 271 126 231 126 z "},"b":{"ha":696,"x_min":32,"x_max":648,"o":"m 364 -17 q 261 10 305 -17 q 195 97 218 37 l 161 0 l 32 0 l 171 1004 l 336 1004 l 288 659 q 363 723 318 699 q 461 747 409 747 q 537 732 503 747 q 596 684 572 716 q 635 603 621 652 q 648 485 648 553 q 643 382 648 438 q 624 271 637 327 q 589 163 610 216 q 536 71 568 111 q 462 7 505 31 q 364 -17 419 -17 m 393 596 q 336 578 361 596 q 294 532 312 561 q 266 467 277 503 q 248 394 254 431 q 239 322 241 357 q 236 261 236 287 q 257 168 236 200 q 326 135 278 135 q 384 153 359 135 q 425 200 408 171 q 453 267 442 230 q 469 341 463 303 q 477 413 475 378 q 479 472 479 448 q 460 565 479 533 q 393 596 440 596 z "},"c":{"ha":633,"x_min":50,"x_max":600,"o":"m 50 239 q 56 356 50 296 q 75 472 61 416 q 112 579 88 529 q 171 666 135 629 q 257 726 207 704 q 374 747 307 747 q 547 680 493 747 q 600 476 600 613 l 600 456 l 431 456 l 431 476 q 416 573 431 540 q 361 607 401 607 q 309 585 331 607 q 271 530 287 564 q 245 455 256 496 q 230 376 235 414 q 222 308 224 338 q 220 265 220 278 q 235 159 220 195 q 294 123 250 123 q 335 135 317 123 q 368 168 353 147 q 392 214 382 188 q 408 271 402 241 l 574 271 q 539 161 561 213 q 484 69 518 109 q 401 6 450 30 q 282 -17 351 -17 q 108 45 165 -17 q 50 239 50 108 z "},"d":{"ha":696,"x_min":50,"x_max":705,"o":"m 50 241 q 75 469 50 374 q 140 627 100 565 q 231 718 180 688 q 336 747 283 747 q 432 723 394 747 q 490 652 469 698 l 542 1004 l 705 1004 l 567 0 l 432 0 l 432 106 q 347 12 393 40 q 249 -17 300 -17 q 102 48 154 -17 q 50 241 50 113 m 306 135 q 362 153 338 135 q 404 199 387 170 q 432 263 421 227 q 450 337 444 300 q 459 409 456 374 q 461 469 461 444 q 442 563 461 530 q 376 596 422 596 q 317 578 342 596 q 274 530 292 559 q 245 464 256 501 q 229 390 235 427 q 220 317 222 352 q 218 258 218 283 q 238 166 218 198 q 306 135 258 135 z "},"e":{"ha":633,"x_min":46,"x_max":596,"o":"m 46 239 q 52 360 46 299 q 72 478 58 421 q 110 584 86 534 q 170 669 134 633 q 255 726 205 705 q 370 747 304 747 q 596 498 596 747 q 592 413 596 458 q 581 323 589 368 l 215 323 q 213 284 213 302 q 212 260 212 267 q 230 153 212 189 q 289 118 247 118 q 327 129 310 118 q 357 158 344 140 q 379 201 370 177 q 395 253 389 226 l 566 253 q 531 149 553 198 q 476 63 509 100 q 394 5 442 26 q 282 -17 347 -17 q 104 45 162 -17 q 46 239 46 108 m 425 444 q 427 469 426 459 q 428 484 427 478 q 428 492 428 490 l 428 498 q 413 583 428 554 q 359 612 397 612 q 313 598 334 612 q 278 561 293 584 q 252 507 262 537 q 233 444 241 477 l 425 444 z "},"f":{"ha":379,"x_min":-118,"x_max":463,"o":"m 43 590 l 62 730 l 135 730 l 147 819 q 166 891 153 856 q 202 954 179 926 q 261 998 226 981 q 346 1015 296 1015 q 376 1014 360 1015 q 408 1010 393 1013 q 438 1005 424 1008 q 463 999 452 1002 l 444 875 l 378 875 q 332 860 349 875 q 311 815 315 845 l 300 730 l 425 730 l 406 590 l 281 590 l 195 -57 q 177 -129 190 -94 q 142 -191 165 -163 q 84 -236 119 -219 q 1 -253 50 -253 q -30 -252 -14 -253 q -63 -248 -47 -250 q -93 -242 -79 -245 q -118 -236 -108 -239 l -100 -113 l -39 -113 q 10 -96 -7 -113 q 32 -46 28 -79 l 115 590 l 43 590 z "},"g":{"ha":696,"x_min":9,"x_max":667,"o":"m 335 747 q 436 720 391 747 q 504 633 480 693 l 536 730 l 667 730 l 574 68 q 536 -78 562 -18 q 470 -178 510 -139 q 376 -235 430 -217 q 256 -253 323 -253 q 147 -235 193 -253 q 70 -187 100 -217 q 24 -117 39 -157 q 9 -33 9 -77 l 179 -33 q 200 -92 179 -71 q 267 -113 220 -113 q 406 35 382 -113 l 416 110 q 384 74 402 90 q 344 45 365 57 q 299 26 323 33 q 252 20 276 20 q 173 34 210 20 q 109 77 136 47 q 66 151 82 106 q 50 260 50 197 q 56 359 50 305 q 75 467 62 413 q 110 572 88 521 q 163 662 132 623 q 237 724 195 701 q 335 747 280 747 m 310 163 q 365 179 341 163 q 405 221 388 195 q 433 281 422 248 q 451 348 444 314 q 460 414 457 382 q 463 469 463 446 q 441 563 463 530 q 372 596 420 596 q 315 579 339 596 q 273 533 290 562 q 246 470 256 505 q 230 398 235 434 q 222 329 224 362 q 220 272 220 296 q 243 190 220 218 q 310 163 266 163 z "},"h":{"ha":696,"x_min":32,"x_max":643,"o":"m 336 1004 l 286 654 q 321 691 302 674 q 362 721 340 708 q 410 740 384 733 q 467 747 436 747 q 598 697 554 747 q 643 559 643 647 q 642 541 643 550 q 639 513 642 532 q 632 459 637 494 q 619 366 627 425 q 599 218 611 307 q 570 0 587 129 l 406 0 q 433 203 422 120 q 453 342 445 287 q 465 428 460 397 q 471 475 469 459 q 473 496 473 491 q 473 504 473 501 q 455 574 473 553 q 393 596 436 596 q 347 586 369 596 q 307 556 325 576 q 276 506 289 536 q 258 439 263 477 l 197 0 l 32 0 l 171 1004 l 336 1004 z "},"i":{"ha":317,"x_min":32,"x_max":336,"o":"m 336 1004 l 315 852 l 150 852 l 171 1004 l 336 1004 m 298 730 l 197 0 l 32 0 l 134 730 l 298 730 z "},"j":{"ha":317,"x_min":-125,"x_max":335,"o":"m 335 1004 l 314 852 l 150 852 l 171 1004 l 335 1004 m 297 730 l 187 -57 q 170 -129 182 -94 q 135 -191 157 -163 q 78 -236 112 -219 q -5 -253 43 -253 q -38 -252 -21 -253 q -71 -248 -55 -250 q -101 -242 -87 -245 q -125 -236 -115 -239 l -109 -113 l -49 -113 q 2 -96 -16 -113 q 25 -46 20 -79 l 132 730 l 297 730 z "},"k":{"ha":633,"x_min":32,"x_max":677,"o":"m 336 1004 l 260 457 l 490 730 l 677 730 l 422 431 l 586 0 l 411 0 l 306 298 l 228 222 l 197 0 l 32 0 l 171 1004 l 336 1004 z "},"l":{"ha":317,"x_min":31,"x_max":335,"o":"m 335 1004 l 196 0 l 31 0 l 170 1004 l 335 1004 z "},"m":{"ha":1013,"x_min":33,"x_max":962,"o":"m 271 730 l 271 636 q 304 680 286 659 q 346 715 323 700 q 395 739 368 730 q 454 747 422 747 q 556 716 518 747 q 608 628 595 684 q 644 675 625 653 q 686 713 663 696 q 738 738 709 729 q 800 747 766 747 q 921 697 880 747 q 962 559 962 647 q 962 541 962 550 q 959 513 961 532 q 952 459 957 494 q 939 366 947 425 q 919 218 931 307 q 889 0 907 129 l 724 0 q 752 203 740 120 q 771 341 764 286 q 783 428 779 396 q 790 476 787 459 q 792 501 792 494 q 793 515 793 509 q 777 574 793 552 q 725 596 762 596 q 684 586 704 596 q 648 556 665 576 q 620 507 632 536 q 603 439 608 477 l 545 0 l 379 0 q 407 203 395 120 q 426 341 418 286 q 437 428 433 396 q 444 476 441 459 q 447 501 446 494 q 447 515 447 509 q 432 574 447 552 q 380 596 417 596 q 339 586 359 596 q 303 556 319 576 q 275 507 287 536 q 258 439 263 477 l 199 0 l 33 0 l 136 730 l 271 730 z "},"n":{"ha":696,"x_min":32,"x_max":643,"o":"m 268 730 l 268 633 q 304 678 284 657 q 348 714 323 699 q 402 739 372 730 q 467 747 431 747 q 598 697 554 747 q 643 559 643 647 q 642 541 643 550 q 639 513 642 532 q 632 459 637 494 q 619 366 627 425 q 599 218 611 307 q 570 0 587 129 l 406 0 q 433 203 422 120 q 452 342 444 287 q 464 428 460 397 q 470 475 468 459 q 473 496 473 491 q 473 504 473 501 q 455 574 473 553 q 393 596 436 596 q 347 586 369 596 q 306 556 324 576 q 275 506 288 536 q 257 439 262 477 l 197 0 l 32 0 l 134 730 l 268 730 z "},"o":{"ha":696,"x_min":50,"x_max":646,"o":"m 50 250 q 56 361 50 304 q 76 474 62 419 q 115 579 91 530 q 177 666 140 629 q 266 725 214 703 q 387 747 318 747 q 581 681 515 747 q 646 476 646 614 q 640 365 646 422 q 620 253 634 307 q 581 149 605 198 q 519 63 556 100 q 430 5 481 26 q 309 -17 378 -17 q 116 48 181 -17 q 50 250 50 113 m 221 254 q 243 156 221 189 q 314 123 265 123 q 379 146 352 123 q 424 203 406 168 q 452 280 441 238 q 467 361 462 322 q 473 432 472 401 q 475 476 475 463 q 453 573 475 540 q 382 607 431 607 q 317 585 344 607 q 272 527 290 562 q 244 450 254 492 q 229 369 234 408 q 222 299 224 330 q 221 254 221 267 z "},"p":{"ha":696,"x_min":0,"x_max":650,"o":"m 0 -239 l 134 730 l 268 730 l 268 624 q 353 719 305 690 q 452 747 400 747 q 598 683 546 747 q 650 489 650 618 q 625 261 650 357 q 561 104 601 165 q 469 13 520 42 q 364 -17 418 -17 q 268 8 305 -17 q 208 79 230 33 l 164 -239 l 0 -239 m 239 261 q 259 168 239 200 q 329 135 280 135 q 387 153 362 135 q 428 200 411 171 q 455 267 445 230 q 472 341 466 303 q 480 413 478 378 q 482 472 482 448 q 463 565 482 533 q 395 596 443 596 q 338 578 362 596 q 296 532 313 561 q 268 467 279 503 q 250 394 256 431 q 241 322 243 357 q 239 261 239 287 z "},"q":{"ha":696,"x_min":50,"x_max":667,"o":"m 335 747 q 436 720 393 747 q 504 633 480 693 l 536 730 l 667 730 l 533 -239 l 368 -239 l 410 72 q 335 7 380 31 q 237 -17 290 -17 q 161 -1 195 -17 q 102 46 127 14 q 64 127 77 78 q 50 245 50 177 q 56 348 50 292 q 75 459 62 404 q 110 567 88 515 q 163 659 132 619 q 237 723 195 699 q 335 747 280 747 m 306 135 q 363 153 338 135 q 405 199 387 170 q 433 263 422 227 q 451 337 444 300 q 460 409 457 374 q 463 469 463 444 q 441 563 463 530 q 372 596 420 596 q 315 578 339 596 q 273 530 290 559 q 246 464 256 501 q 230 390 235 427 q 222 317 224 352 q 220 258 220 283 q 239 166 220 197 q 306 135 258 135 z "},"r":{"ha":443,"x_min":32,"x_max":485,"o":"m 268 730 l 268 619 q 293 664 279 642 q 326 706 307 687 q 367 736 344 724 q 418 747 389 747 q 446 745 434 747 q 467 741 458 743 q 485 736 477 739 l 464 575 l 411 575 q 358 567 384 575 q 312 539 333 559 q 275 488 290 520 q 253 407 260 456 l 196 0 l 32 0 l 134 730 l 268 730 z "},"s":{"ha":633,"x_min":31,"x_max":600,"o":"m 31 172 q 32 196 31 184 q 35 217 33 208 q 39 237 37 228 l 208 237 l 205 224 q 203 213 204 218 q 203 203 203 207 q 212 162 203 178 q 235 137 220 146 q 268 123 249 127 q 306 119 286 119 q 336 123 320 119 q 365 137 352 127 q 387 160 378 146 q 396 195 396 174 q 383 240 396 222 q 349 271 370 258 q 301 294 328 284 q 247 316 275 304 q 192 343 218 328 q 144 382 165 359 q 110 439 123 406 q 97 519 97 472 q 119 618 97 576 q 177 690 140 661 q 263 733 214 718 q 367 747 312 747 q 479 728 435 747 q 551 676 524 709 q 589 603 578 644 q 600 517 600 561 l 432 517 q 429 554 432 537 q 417 584 426 572 q 392 604 408 597 q 350 611 376 611 q 319 606 334 611 q 293 592 304 601 q 276 569 282 583 q 269 539 269 555 q 282 497 269 514 q 316 469 295 481 q 365 447 338 456 q 421 426 393 437 q 476 400 449 415 q 525 363 504 385 q 559 308 547 340 q 572 229 572 275 q 549 116 572 163 q 488 40 526 69 q 399 -3 449 10 q 294 -17 349 -17 q 184 -4 233 -17 q 101 33 136 9 q 49 93 67 58 q 31 172 31 128 z "},"t":{"ha":379,"x_min":47,"x_max":410,"o":"m 58 134 q 61 163 58 140 q 68 219 64 186 q 78 293 73 253 q 90 375 83 334 q 121 590 103 472 l 47 590 l 66 730 l 140 730 l 168 936 l 342 936 l 304 730 l 410 730 l 390 590 l 286 590 q 257 385 269 476 q 246 308 252 346 q 237 240 241 271 q 230 191 233 210 q 228 170 228 172 q 278 123 228 123 l 323 123 l 307 0 q 286 -6 298 -3 q 259 -12 273 -9 q 232 -16 245 -14 q 205 -17 218 -17 q 135 -5 163 -17 q 90 28 107 7 q 66 76 73 49 q 58 134 58 103 z "},"u":{"ha":696,"x_min":53,"x_max":664,"o":"m 53 171 q 54 190 53 180 q 57 218 54 199 q 64 271 59 237 q 77 364 68 305 q 97 512 85 423 q 126 730 109 602 l 290 730 q 263 527 274 610 q 244 389 252 444 q 232 302 236 334 q 225 255 228 271 q 223 234 223 239 q 222 227 222 229 q 241 157 222 178 q 302 135 260 135 q 349 145 327 135 q 390 175 372 155 q 421 224 408 195 q 439 292 433 254 l 498 730 l 664 730 l 562 0 l 427 0 l 427 94 q 390 51 410 71 q 346 15 370 31 q 293 -8 321 0 q 229 -17 264 -17 q 97 33 142 -17 q 53 171 53 83 z "},"v":{"ha":633,"x_min":61,"x_max":685,"o":"m 227 730 l 278 416 q 281 391 279 406 q 284 358 283 376 q 288 322 286 341 q 291 286 290 304 q 298 197 294 244 l 304 197 l 333 283 q 345 319 339 300 q 358 355 351 338 q 370 389 364 373 q 382 416 376 404 l 517 730 l 685 730 l 353 0 l 184 0 l 61 730 l 227 730 z "},"w":{"ha":886,"x_min":58,"x_max":935,"o":"m 215 730 l 240 429 q 246 349 243 391 q 250 271 248 307 q 253 191 252 230 l 258 191 q 273 269 265 228 q 291 345 281 303 q 315 428 302 387 l 419 730 l 586 730 l 604 427 q 607 359 606 399 q 608 281 608 319 q 610 191 609 237 l 615 191 q 638 277 626 235 q 660 354 648 314 q 684 427 672 395 l 786 730 l 935 730 l 659 0 l 494 0 l 471 349 q 467 411 469 377 q 465 473 466 444 q 463 541 463 507 l 454 541 q 447 475 452 508 q 436 413 443 446 q 419 350 429 380 l 300 0 l 135 0 l 58 730 l 215 730 z "},"x":{"ha":633,"x_min":-35,"x_max":665,"o":"m 82 730 l 261 730 l 342 524 l 349 524 l 486 730 l 665 730 l 412 378 l 576 0 l 397 0 l 307 235 l 300 235 l 142 0 l -35 0 l 236 378 l 82 730 z "},"y":{"ha":633,"x_min":-9,"x_max":684,"o":"m 81 -113 q 150 -86 116 -113 q 207 0 184 -60 l 68 730 l 235 730 l 296 387 q 303 334 299 366 q 309 271 307 302 q 315 197 312 235 l 321 197 q 342 268 331 233 q 362 330 351 298 q 382 386 372 362 l 519 730 l 684 730 l 390 37 q 335 -75 364 -22 q 269 -167 305 -127 q 190 -230 233 -207 q 94 -253 146 -253 q 17 -247 44 -253 q -9 -240 -9 -241 l 5 -113 l 81 -113 z "},"z":{"ha":570,"x_min":-17,"x_max":579,"o":"m 335 590 l 75 590 l 94 730 l 579 730 l 574 661 l 225 140 l 511 140 l 492 0 l -17 0 l -11 71 l 335 590 z "},"{":{"ha":443,"x_min":24,"x_max":500,"o":"m 81 -16 q 96 95 90 50 q 107 172 102 140 q 114 221 111 203 q 118 249 117 239 q 120 263 120 259 q 121 269 121 267 q 113 299 121 287 q 91 320 104 312 q 60 331 77 328 q 24 336 43 335 l 41 464 q 80 468 60 464 q 116 482 99 473 q 144 508 132 492 q 160 547 156 524 l 199 815 q 236 921 208 881 q 304 984 264 962 q 395 1013 345 1006 q 500 1021 446 1021 l 486 914 q 448 911 468 914 q 411 898 428 907 q 380 872 393 889 q 364 829 368 856 q 340 693 355 760 q 315 557 326 627 q 297 494 309 522 q 264 447 285 466 q 215 417 244 427 q 144 407 185 407 l 143 393 q 204 385 180 393 q 244 361 229 377 q 267 322 260 345 q 273 271 273 300 q 271 231 273 256 q 265 173 269 205 q 257 107 262 141 q 250 42 253 73 q 244 -12 246 12 q 241 -45 241 -35 q 250 -80 241 -66 q 273 -101 259 -94 q 305 -111 288 -109 q 340 -114 323 -114 l 326 -221 q 232 -215 277 -221 q 153 -190 187 -208 q 98 -140 119 -172 q 78 -56 78 -108 q 79 -34 78 -43 q 81 -16 79 -26 z "},"|":{"ha":319,"x_min":97,"x_max":222,"o":"m 222 1004 l 222 -240 l 97 -240 l 97 1004 l 222 1004 z "},"}":{"ha":443,"x_min":-39,"x_max":437,"o":"m 97 -29 q 120 106 106 40 q 146 243 134 173 q 164 306 152 278 q 197 354 176 334 q 247 383 217 373 q 317 393 276 393 l 318 407 q 257 415 281 407 q 216 439 232 423 q 194 477 201 454 q 187 529 187 500 q 190 569 187 543 q 196 627 192 595 q 203 693 199 659 q 211 758 208 727 q 217 811 215 788 q 220 844 220 835 q 211 880 220 866 q 187 901 201 893 q 155 911 173 909 q 121 914 138 914 l 135 1021 q 229 1014 184 1021 q 308 990 274 1008 q 363 940 342 972 q 383 856 383 907 q 382 834 383 843 q 380 815 382 826 q 365 705 372 750 q 354 628 359 659 q 347 579 350 597 q 343 551 345 561 q 341 537 341 541 q 340 530 340 533 q 349 500 340 513 q 370 480 357 488 q 401 469 384 473 q 437 464 418 465 l 419 336 q 381 332 401 336 q 346 318 362 328 q 317 292 329 309 q 301 253 305 276 l 262 -16 q 225 -122 253 -81 q 157 -184 197 -162 q 66 -214 116 -206 q -39 -221 16 -221 l -25 -114 q 13 -111 -7 -114 q 51 -98 33 -107 q 81 -72 68 -89 q 97 -29 94 -56 z "},"~":{"ha":665,"x_min":28,"x_max":659,"o":"m 212 375 q 143 360 176 375 q 85 326 110 345 q 44 291 60 307 q 28 273 29 275 l 52 440 q 101 491 73 469 q 159 526 125 510 q 236 542 193 542 q 298 529 269 542 q 354 499 326 515 q 410 470 381 484 q 473 457 439 457 q 521 464 498 457 q 564 482 544 471 q 601 506 584 493 q 630 529 618 518 q 650 548 643 541 q 659 557 657 556 l 635 392 q 585 341 613 363 q 527 306 562 321 q 450 290 493 290 q 388 303 416 290 q 332 333 360 317 q 276 362 304 349 q 212 375 247 375 z "},"€":{"ha":633,"x_min":8,"x_max":686,"o":"m 92 428 q 93 452 92 439 q 97 476 95 464 q 100 501 98 489 q 104 525 102 513 l 36 525 l 53 637 l 136 637 q 206 776 165 715 q 301 881 246 838 q 426 947 355 924 q 585 970 496 970 q 637 966 610 970 q 686 956 663 963 l 667 817 q 579 829 628 829 q 494 816 534 829 q 419 778 454 802 q 357 717 385 753 q 309 637 330 682 l 558 637 l 542 525 l 271 525 q 267 501 269 513 q 264 476 265 489 q 260 452 262 464 q 258 428 258 439 l 529 428 l 513 315 l 262 315 q 285 235 269 271 q 327 175 300 199 q 391 137 353 150 q 481 123 429 123 q 571 136 528 123 l 551 -1 q 500 -13 526 -9 q 447 -17 475 -17 q 306 6 369 -17 q 198 72 243 29 q 125 177 153 115 q 90 315 98 238 l 8 315 l 24 428 l 92 428 z "},"‚":{"ha":317,"x_min":-8,"x_max":240,"o":"m 240 191 l 216 17 l 92 -216 l -8 -216 l 93 0 l 22 0 l 49 191 l 240 191 z "},"ƒ":{"ha":633,"x_min":-89,"x_max":669,"o":"m 150 536 l 189 676 l 289 676 l 329 819 q 357 891 339 856 q 403 954 376 926 q 468 998 431 981 q 555 1015 506 1015 q 586 1014 570 1015 q 617 1010 602 1013 q 646 1005 633 1008 q 669 999 660 1002 l 633 875 l 567 875 q 493 815 509 875 l 454 676 l 579 676 l 541 536 l 415 536 l 250 -57 q 222 -129 240 -94 q 176 -191 203 -163 q 111 -236 149 -219 q 24 -253 73 -253 q -7 -252 9 -253 q -38 -248 -23 -250 q -66 -242 -53 -245 q -89 -236 -79 -239 l -54 -113 l 12 -113 q 86 -53 69 -113 l 250 536 l 150 536 z "},"„":{"ha":570,"x_min":-8,"x_max":494,"o":"m 494 191 l 471 17 l 346 -216 l 245 -216 l 347 0 l 277 0 l 302 191 l 494 191 m 240 191 l 216 17 l 92 -216 l -8 -216 l 93 0 l 22 0 l 49 191 l 240 191 z "},"…":{"ha":1139,"x_min":50,"x_max":1026,"o":"m 1026 191 l 1000 0 l 808 0 l 835 191 l 1026 191 m 647 191 l 621 0 l 429 0 l 456 191 l 647 191 m 268 191 l 241 0 l 50 0 l 77 191 l 268 191 z "},"†":{"ha":633,"x_min":64,"x_max":648,"o":"m 64 566 l 86 722 l 311 699 l 323 953 l 473 953 l 414 699 l 648 722 l 627 566 l 399 590 l 310 -240 l 151 -240 l 296 590 l 64 566 z "},"‡":{"ha":633,"x_min":-9,"x_max":654,"o":"m 236 126 l 245 361 l 301 590 l 69 566 l 92 722 l 317 699 l 329 953 l 479 953 l 419 699 l 654 722 l 632 566 l 404 590 l 396 361 l 339 126 l 574 151 l 551 -5 l 323 18 l 311 -240 l 161 -240 l 221 18 l -9 -5 l 11 151 l 236 126 z "},"ˆ":{"ha":379,"x_min":65,"x_max":437,"o":"m 346 1004 l 437 817 l 313 817 l 265 913 l 195 817 l 65 817 l 210 1004 l 346 1004 z "},"‰":{"ha":1139,"x_min":68,"x_max":1152,"o":"m 225 468 q 161 476 190 468 q 111 502 132 484 q 79 549 90 519 q 68 623 68 578 q 71 679 68 652 q 77 732 73 707 q 99 831 83 787 q 137 906 114 875 q 193 953 161 937 q 267 970 225 970 q 335 961 305 970 q 384 933 364 953 q 414 882 404 914 q 424 803 424 850 q 420 748 424 778 q 411 686 417 719 q 390 607 404 646 q 355 537 377 568 q 300 487 332 507 q 225 468 269 468 m 697 953 l 239 0 l 143 0 l 600 953 l 697 953 m 225 570 q 250 577 239 570 q 268 601 260 585 q 281 644 275 618 q 292 708 286 671 q 299 773 296 749 q 301 812 301 797 q 293 855 301 842 q 267 868 286 868 q 242 861 252 868 q 224 836 231 853 q 211 793 216 819 q 200 729 205 766 q 192 664 194 687 q 189 625 189 641 q 198 583 189 595 q 225 570 206 570 m 796 138 q 799 194 796 167 q 804 248 801 222 q 826 347 811 302 q 865 421 842 391 q 921 469 889 452 q 994 485 954 485 q 1062 476 1033 485 q 1112 449 1092 468 q 1141 397 1131 429 q 1152 318 1152 366 q 1148 263 1152 293 q 1139 201 1145 234 q 1118 122 1131 161 q 1082 53 1105 83 q 1028 2 1060 22 q 953 -17 996 -17 q 889 -9 918 -17 q 839 17 860 -1 q 807 64 819 35 q 796 138 796 94 m 424 138 q 426 194 424 167 q 432 248 429 222 q 455 347 439 302 q 493 421 470 391 q 549 469 517 452 q 623 485 581 485 q 690 476 661 485 q 739 449 720 468 q 769 397 759 429 q 779 318 779 366 q 776 263 779 293 q 766 201 773 234 q 746 122 759 161 q 710 53 732 83 q 656 2 688 22 q 581 -17 624 -17 q 516 -9 545 -17 q 467 17 488 -1 q 435 64 446 35 q 424 138 424 94 m 917 140 q 925 98 917 111 q 953 85 934 85 q 978 92 967 85 q 996 117 988 100 q 1008 160 1003 134 q 1019 224 1014 186 q 1027 289 1025 266 q 1029 328 1029 312 q 1021 370 1029 357 q 994 383 1013 383 q 970 376 980 383 q 952 351 960 368 q 939 308 944 334 q 928 244 933 281 q 919 179 922 203 q 917 140 917 156 m 545 140 q 553 98 545 111 q 581 85 562 85 q 605 92 595 85 q 623 117 616 100 q 636 160 631 134 q 647 224 642 186 q 655 289 652 266 q 657 328 657 312 q 649 370 657 357 q 623 383 641 383 q 597 376 608 383 q 579 351 587 368 q 566 308 572 334 q 555 244 561 281 q 547 179 549 203 q 545 140 545 156 z "},"Š":{"ha":760,"x_min":43,"x_max":739,"o":"m 43 239 q 43 263 43 251 q 45 288 44 276 q 48 309 47 300 q 50 323 49 318 l 233 323 q 229 299 231 315 q 227 257 227 283 q 232 218 227 239 q 252 178 237 197 q 296 148 268 160 q 371 136 325 136 q 436 146 408 136 q 484 174 465 157 q 512 214 503 191 q 522 260 522 236 q 505 323 522 296 q 459 369 488 349 q 395 406 431 389 q 321 440 359 422 q 247 477 283 457 q 182 526 211 498 q 137 592 154 554 q 119 682 119 630 q 136 785 119 734 q 191 878 153 837 q 291 944 229 919 q 441 970 353 970 q 590 946 532 970 q 681 881 648 922 q 727 786 714 840 q 739 672 739 732 l 559 672 q 552 729 559 703 q 530 774 545 755 q 490 804 514 793 q 432 815 466 815 q 399 812 420 815 q 357 800 378 810 q 321 770 336 790 q 306 717 306 751 q 323 662 306 684 q 369 622 340 640 q 433 589 397 604 q 506 557 469 574 q 580 519 544 541 q 644 467 616 498 q 689 395 672 437 q 707 296 707 353 q 680 162 707 220 q 606 64 653 104 q 496 4 559 24 q 359 -17 433 -17 q 287 -11 324 -17 q 215 8 250 -5 q 149 41 180 20 q 94 89 117 61 q 57 155 71 117 q 43 239 43 192 m 448 1227 l 496 1131 l 566 1227 l 696 1227 l 551 1039 l 416 1039 l 322 1227 l 448 1227 z "},"‹":{"ha":379,"x_min":45,"x_max":399,"o":"m 267 730 l 399 730 l 210 453 l 319 175 l 193 175 l 45 453 l 267 730 z "},"Œ":{"ha":1139,"x_min":56,"x_max":1175,"o":"m 56 322 q 60 416 56 365 q 73 520 64 467 q 97 628 82 574 q 133 732 111 682 q 182 825 154 782 q 247 901 210 869 q 328 951 283 933 q 428 970 373 970 q 552 944 498 970 q 642 867 606 919 l 654 953 l 1175 953 l 1153 794 l 808 794 l 777 567 l 1061 567 l 1039 408 l 754 408 l 718 158 l 1072 158 l 1051 0 l 521 0 l 533 85 q 431 8 486 33 q 313 -17 376 -17 q 204 4 252 -17 q 123 66 157 24 q 73 172 90 108 q 56 322 56 235 m 254 511 q 244 438 248 469 q 238 387 240 408 q 235 351 236 366 q 235 323 235 336 q 269 180 235 224 q 370 136 302 136 q 446 153 412 136 q 506 207 479 170 q 550 302 532 244 q 581 441 569 360 q 590 514 587 484 q 596 566 594 545 q 599 602 598 587 q 600 629 600 617 q 591 716 600 680 q 563 774 581 751 q 517 806 544 796 q 454 817 490 817 q 325 743 374 817 q 254 511 276 669 z "},"Ž":{"ha":696,"x_min":-17,"x_max":734,"o":"m 465 794 l 118 794 l 140 953 l 734 953 l 729 884 l 252 158 l 637 158 l 615 0 l -17 0 l -11 68 l 465 794 m 407 1227 l 455 1131 l 525 1227 l 655 1227 l 511 1039 l 375 1039 l 281 1227 l 407 1227 z "},"‘":{"ha":317,"x_min":89,"x_max":338,"o":"m 237 953 l 338 953 l 236 736 l 307 736 l 281 546 l 89 546 l 113 720 l 237 953 z "},"’":{"ha":317,"x_min":97,"x_max":346,"o":"m 127 762 l 154 953 l 346 953 l 322 779 l 197 546 l 97 546 l 199 762 l 127 762 z "},"“":{"ha":570,"x_min":78,"x_max":581,"o":"m 481 953 l 581 953 l 479 736 l 550 736 l 524 546 l 332 546 l 355 720 l 481 953 m 227 953 l 326 953 l 225 736 l 296 736 l 269 546 l 78 546 l 102 720 l 227 953 z "},"”":{"ha":570,"x_min":97,"x_max":600,"o":"m 382 762 l 408 953 l 600 953 l 576 779 l 452 546 l 351 546 l 453 762 l 382 762 m 127 762 l 154 953 l 346 953 l 322 779 l 197 546 l 97 546 l 199 762 l 127 762 z "},"•":{"ha":399,"x_min":47,"x_max":382,"o":"m 214 306 q 149 320 179 306 q 96 357 118 334 q 60 412 73 380 q 47 478 47 443 q 60 544 47 513 q 96 598 73 575 q 149 635 118 621 q 214 648 179 648 q 279 635 249 648 q 333 598 310 621 q 369 544 355 575 q 382 478 382 513 q 369 412 382 443 q 333 357 355 380 q 279 320 310 334 q 214 306 249 306 z "},"–":{"ha":633,"x_min":-1,"x_max":648,"o":"m 648 443 l 631 307 l -1 307 l 16 443 l 648 443 z "},"—":{"ha":1139,"x_min":-1,"x_max":1154,"o":"m 1154 443 l 1136 307 l -1 307 l 16 443 l 1154 443 z "},"˜":{"ha":379,"x_min":58,"x_max":542,"o":"m 58 835 q 69 892 58 862 q 100 947 80 922 q 150 988 121 972 q 215 1004 178 1004 q 262 996 240 1004 q 305 979 284 988 q 346 961 326 969 q 390 953 367 953 q 427 964 412 953 q 452 1004 443 975 l 542 1004 q 531 946 542 976 q 499 891 519 916 q 449 850 478 866 q 382 835 419 835 q 336 843 357 835 q 293 861 314 851 q 252 878 273 870 q 208 886 231 886 q 171 875 186 886 q 147 835 155 863 l 58 835 z "},"™":{"ha":1139,"x_min":132,"x_max":1053,"o":"m 728 953 l 760 559 l 765 559 l 908 953 l 1053 953 l 974 392 l 873 392 l 930 799 l 925 799 l 777 392 l 684 392 l 650 799 l 643 799 l 586 392 l 494 392 l 574 953 l 728 953 m 132 860 l 146 953 l 529 953 l 515 860 l 375 860 l 310 392 l 205 392 l 271 860 l 132 860 z "},"š":{"ha":633,"x_min":31,"x_max":600,"o":"m 31 172 q 32 196 31 184 q 35 217 33 208 q 39 237 37 228 l 208 237 l 205 224 q 203 213 204 218 q 203 203 203 207 q 212 162 203 178 q 235 137 220 146 q 268 123 249 127 q 306 119 286 119 q 336 123 320 119 q 365 137 352 127 q 387 160 378 146 q 396 195 396 174 q 383 240 396 222 q 349 271 370 258 q 301 294 328 284 q 247 316 275 304 q 192 343 218 328 q 144 382 165 359 q 110 439 123 406 q 97 519 97 472 q 119 618 97 576 q 177 690 140 661 q 263 733 214 718 q 367 747 312 747 q 479 728 435 747 q 551 676 524 709 q 589 603 578 644 q 600 517 600 561 l 432 517 q 429 554 432 537 q 417 584 426 572 q 392 604 408 597 q 350 611 376 611 q 319 606 334 611 q 293 592 304 601 q 276 569 282 583 q 269 539 269 555 q 282 497 269 514 q 316 469 295 481 q 365 447 338 456 q 421 426 393 437 q 476 400 449 415 q 525 363 504 385 q 559 308 547 340 q 572 229 572 275 q 549 116 572 163 q 488 40 526 69 q 399 -3 449 10 q 294 -17 349 -17 q 184 -4 233 -17 q 101 33 136 9 q 49 93 67 58 q 31 172 31 128 m 340 1004 l 388 908 l 458 1004 l 588 1004 l 444 817 l 308 817 l 214 1004 l 340 1004 z "},"›":{"ha":379,"x_min":17,"x_max":371,"o":"m 94 730 l 221 730 l 371 453 l 147 175 l 17 175 l 205 453 l 94 730 z "},"œ":{"ha":1075,"x_min":56,"x_max":1023,"o":"m 56 250 q 61 361 56 304 q 82 474 67 419 q 121 579 96 530 q 183 666 145 629 q 272 725 220 703 q 393 747 324 747 q 596 663 532 747 q 682 724 633 701 q 798 747 732 747 q 1023 498 1023 747 q 1020 413 1023 458 q 1008 323 1017 368 l 643 323 q 641 284 641 302 q 640 260 640 267 q 657 153 640 189 q 717 118 675 118 q 755 129 738 118 q 785 158 772 140 q 807 201 798 177 q 822 253 817 226 l 993 253 q 959 149 981 198 q 903 63 937 100 q 822 5 869 26 q 710 -17 774 -17 q 596 3 644 -17 q 519 65 549 23 q 432 5 483 28 q 314 -17 381 -17 q 121 48 186 -17 q 56 250 56 113 m 227 254 q 249 156 227 189 q 319 123 271 123 q 384 146 357 123 q 429 203 411 168 q 457 280 447 238 q 473 361 468 322 q 479 432 478 401 q 481 476 481 463 q 459 573 481 540 q 387 607 437 607 q 322 585 349 607 q 278 527 296 562 q 250 450 260 492 q 234 369 239 408 q 228 299 229 330 q 227 254 227 267 m 852 444 q 854 469 854 459 q 856 484 855 478 q 856 492 856 490 l 856 498 q 841 583 856 554 q 787 612 825 612 q 741 598 762 612 q 706 561 721 584 q 680 507 690 537 q 661 444 669 477 l 852 444 z "},"ž":{"ha":570,"x_min":-17,"x_max":579,"o":"m 335 590 l 75 590 l 94 730 l 579 730 l 574 661 l 225 140 l 511 140 l 492 0 l -17 0 l -11 71 l 335 590 m 293 1004 l 341 908 l 411 1004 l 541 1004 l 397 817 l 261 817 l 168 1004 l 293 1004 z "},"Ÿ":{"ha":760,"x_min":93,"x_max":844,"o":"m 93 953 l 273 953 l 411 534 l 416 534 l 665 953 l 844 953 l 475 359 l 424 0 l 249 0 l 298 359 l 93 953 m 702 1227 l 682 1075 l 543 1075 l 563 1227 l 702 1227 m 459 1227 l 438 1075 l 300 1075 l 320 1227 l 459 1227 z "}," ":{"ha":317,"x_min":0,"x_max":0,"o":""},"¡":{"ha":379,"x_min":11,"x_max":349,"o":"m 349 730 l 321 541 l 129 541 l 157 730 l 349 730 m 269 457 l 224 -222 l 11 -222 l 155 457 l 269 457 z "},"¢":{"ha":633,"x_min":50,"x_max":600,"o":"m 239 97 q 97 170 144 108 q 50 350 50 232 q 55 463 50 405 q 73 575 60 521 q 106 679 85 630 q 161 766 128 728 q 239 828 193 804 q 346 857 285 852 l 367 1004 l 433 1004 l 412 856 q 556 779 511 845 q 600 587 600 712 l 600 567 l 441 567 l 441 587 q 432 677 441 643 q 393 722 422 711 l 325 229 q 357 251 342 236 q 384 286 372 266 q 405 331 396 307 q 419 382 414 355 l 574 382 q 541 277 562 327 q 489 187 521 227 q 413 123 458 148 q 306 94 368 98 l 283 -68 l 216 -68 l 239 97 m 326 721 q 283 682 302 709 q 252 621 265 655 q 230 549 239 587 q 217 476 222 511 q 210 415 212 442 q 208 376 208 389 q 219 278 208 315 q 258 229 229 241 l 326 721 z "},"£":{"ha":633,"x_min":-9,"x_max":659,"o":"m 81 150 l 115 400 l 29 400 l 49 541 l 134 541 l 155 693 q 246 901 175 831 q 429 970 317 970 q 526 957 483 970 q 598 917 568 943 q 643 850 627 890 q 659 757 659 810 q 657 727 659 743 q 652 682 656 711 l 488 682 q 492 710 490 699 q 494 728 493 721 q 495 739 495 735 q 496 747 496 743 q 476 809 496 788 q 422 829 456 829 q 359 805 385 829 q 326 729 334 780 l 300 541 l 465 541 l 446 400 l 279 400 l 231 150 l 568 150 l 546 0 l -9 0 l 11 150 l 81 150 z "},"¤":{"ha":633,"x_min":0,"x_max":632,"o":"m 69 311 q 41 388 51 347 q 31 475 31 430 q 68 636 31 564 l 0 705 l 83 791 l 142 733 q 222 783 178 765 q 317 802 267 802 q 409 783 365 802 q 490 733 454 765 l 549 791 l 632 705 l 564 637 q 593 560 583 601 q 603 475 603 519 q 592 388 603 429 q 562 310 581 347 l 632 241 l 547 157 l 489 215 q 409 167 452 184 q 317 150 365 150 q 224 167 268 150 q 143 215 180 184 l 85 157 l 0 241 l 69 311 m 317 275 q 382 291 351 275 q 435 334 412 307 q 471 397 458 361 q 485 475 485 433 q 471 554 485 517 q 435 618 458 591 q 382 661 412 645 q 317 676 351 676 q 251 661 282 676 q 197 618 220 645 q 161 554 174 591 q 147 475 147 517 q 161 397 147 433 q 197 334 174 361 q 251 291 220 307 q 317 275 282 275 z "},"¥":{"ha":633,"x_min":25,"x_max":711,"o":"m 25 212 l 40 325 l 232 325 l 245 422 l 54 422 l 69 534 l 214 534 l 96 953 l 272 953 l 354 587 l 359 587 l 539 953 l 711 953 l 475 534 l 619 534 l 604 421 l 412 421 l 399 325 l 590 325 l 575 212 l 383 212 l 353 0 l 187 0 l 218 212 l 25 212 z "},"¦":{"ha":319,"x_min":97,"x_max":222,"o":"m 222 1004 l 222 488 l 97 488 l 97 1004 l 222 1004 m 222 277 l 222 -240 l 97 -240 l 97 277 l 222 277 z "},"§":{"ha":633,"x_min":11,"x_max":632,"o":"m 186 -22 q 184 -35 184 -28 q 183 -47 183 -41 q 204 -100 183 -83 q 260 -117 225 -117 q 327 -92 302 -117 q 351 -26 351 -67 q 338 28 351 5 q 304 70 326 52 q 256 105 283 89 q 201 138 229 121 q 145 175 172 155 q 97 220 119 194 q 63 280 76 246 q 50 359 50 314 q 58 417 50 388 q 81 474 66 446 q 119 526 96 501 q 170 571 141 551 q 134 629 146 596 q 121 707 121 662 q 143 822 121 772 q 203 904 165 871 q 291 953 241 937 q 399 970 342 970 q 492 958 449 970 q 566 925 534 947 q 614 872 597 903 q 632 800 632 840 q 631 782 632 792 q 629 763 630 772 q 626 747 627 753 q 625 739 625 740 l 457 739 q 458 751 458 745 l 458 762 q 438 816 458 799 q 383 833 418 833 q 316 809 341 833 q 292 742 292 784 q 304 688 292 711 q 339 646 317 665 q 387 611 360 627 q 442 578 414 595 q 497 542 471 561 q 546 496 524 522 q 580 436 567 470 q 593 357 593 402 q 562 241 593 296 q 473 146 530 186 q 509 86 495 120 q 522 8 522 53 q 500 -106 522 -58 q 439 -188 477 -155 q 351 -237 401 -220 q 244 -253 300 -253 q 151 -241 193 -253 q 77 -208 108 -230 q 28 -155 45 -186 q 11 -82 11 -123 q 12 -64 11 -74 q 15 -45 13 -54 q 17 -30 16 -36 q 18 -22 18 -24 l 186 -22 m 380 216 q 410 261 397 236 q 422 319 422 287 q 408 380 422 354 q 371 426 394 406 q 319 463 348 446 q 261 498 290 480 q 221 396 221 454 q 235 335 221 361 q 272 290 249 310 q 323 252 294 269 q 380 216 351 235 z "},"¨":{"ha":379,"x_min":97,"x_max":498,"o":"m 498 1004 l 478 852 l 339 852 l 359 1004 l 498 1004 m 256 1004 l 235 852 l 97 852 l 117 1004 l 256 1004 z "},"©":{"ha":839,"x_min":22,"x_max":817,"o":"m 419 -17 q 253 18 326 -17 q 128 117 180 53 q 50 273 77 182 q 22 476 22 363 q 50 680 22 589 q 128 836 77 771 q 253 935 180 900 q 419 970 326 970 q 586 935 512 970 q 711 836 659 900 q 789 680 762 771 q 817 476 817 589 q 789 273 817 363 q 711 117 762 182 q 586 18 659 53 q 419 -17 512 -17 m 419 60 q 553 89 494 60 q 654 173 612 119 q 717 304 695 227 q 739 476 739 381 q 717 649 739 572 q 654 780 695 726 q 553 864 612 834 q 419 893 494 893 q 286 864 345 893 q 185 780 227 834 q 122 649 144 726 q 100 476 100 572 q 122 304 100 381 q 185 173 144 227 q 286 89 227 119 q 419 60 345 60 m 422 186 q 328 203 370 186 q 258 257 287 221 q 214 347 229 292 q 199 476 199 401 q 214 606 199 551 q 258 697 229 661 q 328 751 287 733 q 422 768 370 768 q 505 755 467 768 q 570 716 543 743 q 614 647 598 689 q 629 549 629 606 l 509 549 q 485 636 509 608 q 422 664 461 664 q 346 620 371 664 q 321 497 321 576 l 321 457 q 347 334 321 378 q 427 290 373 290 q 489 318 465 290 q 513 404 513 345 l 629 404 q 614 308 629 349 q 571 240 598 267 q 505 199 543 213 q 422 186 467 186 z "},"ª":{"ha":421,"x_min":97,"x_max":492,"o":"m 231 503 q 132 546 168 503 q 97 676 97 589 q 113 830 97 766 q 155 936 129 894 q 215 997 182 977 q 283 1017 249 1017 q 347 998 322 1017 q 386 947 372 980 l 424 1006 l 492 1006 q 463 819 475 901 q 452 749 457 783 q 442 688 446 715 q 436 643 438 661 q 433 624 433 626 q 440 603 433 609 q 456 597 446 597 l 473 597 l 463 518 q 440 508 453 513 q 407 503 427 503 q 356 519 376 503 q 329 568 336 536 q 283 518 311 534 q 231 503 256 503 m 258 599 q 293 611 278 599 q 318 643 308 623 q 336 688 329 663 q 347 739 343 713 q 352 788 351 764 q 354 829 354 812 q 344 897 354 873 q 304 921 334 921 q 271 908 286 921 q 245 873 256 895 q 228 827 235 852 q 216 775 220 801 q 210 728 212 750 q 208 692 208 705 q 220 623 208 647 q 258 599 233 599 z "},"«":{"ha":633,"x_min":39,"x_max":647,"o":"m 515 730 l 647 730 l 458 453 l 568 175 l 441 175 l 293 453 l 515 730 m 261 730 l 393 730 l 204 453 l 314 175 l 187 175 l 39 453 l 261 730 z "},"¬":{"ha":665,"x_min":56,"x_max":655,"o":"m 655 643 l 601 260 l 447 260 l 479 486 l 56 486 l 77 643 l 655 643 z "},"­":{"ha":379,"x_min":18,"x_max":376,"o":"m 376 457 l 353 293 l 18 293 l 41 457 l 376 457 z "},"®":{"ha":839,"x_min":22,"x_max":817,"o":"m 419 -17 q 253 18 326 -17 q 128 117 180 53 q 50 273 77 182 q 22 476 22 363 q 50 680 22 589 q 128 836 77 771 q 253 935 180 900 q 419 970 326 970 q 586 935 512 970 q 711 836 659 900 q 789 680 762 771 q 817 476 817 589 q 789 273 817 363 q 711 117 762 182 q 586 18 659 53 q 419 -17 512 -17 m 419 60 q 553 89 494 60 q 654 173 612 119 q 717 304 695 227 q 739 476 739 381 q 717 649 739 572 q 654 780 695 726 q 553 864 612 834 q 419 893 494 893 q 286 864 345 893 q 185 780 227 834 q 122 649 144 726 q 100 476 100 572 q 122 304 100 381 q 185 173 144 227 q 286 89 227 119 q 419 60 345 60 m 461 758 q 524 748 495 758 q 573 719 553 737 q 606 674 594 700 q 618 616 618 648 q 611 567 618 589 q 592 530 604 546 q 565 503 581 513 q 530 485 549 492 l 530 479 q 555 467 541 475 q 582 441 569 458 q 604 397 595 424 q 612 329 612 370 q 615 286 612 303 q 623 256 618 268 q 636 238 629 245 q 653 229 644 232 l 653 201 q 643 197 650 199 q 629 194 637 195 q 613 192 621 193 q 599 191 605 191 q 560 195 579 191 q 526 211 541 199 q 502 244 511 223 q 493 297 493 264 q 486 360 493 335 q 467 399 479 385 q 441 418 456 413 q 411 424 426 424 l 361 424 l 361 195 l 241 195 l 241 758 l 461 758 m 418 530 q 474 548 452 530 q 496 595 496 566 q 476 635 496 621 q 422 650 456 650 l 361 650 l 361 530 l 418 530 z "},"¯":{"ha":379,"x_min":3,"x_max":375,"o":"m 375 953 l 357 832 l 3 832 l 21 953 l 375 953 z "},"°":{"ha":555,"x_min":78,"x_max":472,"o":"m 275 575 q 198 590 234 575 q 135 632 162 606 q 93 695 109 659 q 78 772 78 731 q 93 849 78 813 q 135 912 109 885 q 198 954 162 939 q 275 970 234 970 q 352 954 316 970 q 415 912 388 939 q 457 849 441 885 q 472 772 472 813 q 457 695 472 731 q 415 632 441 659 q 352 590 388 606 q 275 575 316 575 m 275 669 q 315 677 296 669 q 347 700 333 686 q 369 732 361 713 q 376 772 376 751 q 369 812 376 793 q 347 844 361 831 q 315 866 333 858 q 275 873 296 873 q 235 866 254 873 q 202 844 216 858 q 180 812 189 831 q 172 772 172 793 q 180 732 172 751 q 202 700 189 713 q 235 677 216 686 q 275 669 254 669 z "},"±":{"ha":762,"x_min":36,"x_max":690,"o":"m 97 440 l 118 585 l 332 585 l 366 827 l 509 827 l 475 585 l 690 585 l 669 440 l 454 440 l 421 200 l 278 200 l 311 440 l 97 440 m 628 143 l 608 0 l 36 0 l 56 143 l 628 143 z "},"²":{"ha":379,"x_min":32,"x_max":421,"o":"m 36 469 q 64 554 42 515 q 117 626 87 592 q 180 690 146 659 q 240 751 213 721 q 286 813 268 781 q 304 880 304 844 q 296 909 304 896 q 267 922 288 922 q 225 895 241 922 q 201 807 210 868 l 92 807 q 103 887 92 848 q 139 955 115 925 q 197 1002 162 984 q 278 1019 232 1019 q 335 1013 309 1019 q 380 991 361 1006 q 410 955 399 977 q 421 900 421 932 q 410 830 421 863 q 381 767 399 797 q 339 709 363 736 q 289 655 315 682 q 237 602 263 628 q 187 547 210 575 l 376 547 l 361 444 l 32 444 l 36 469 z "},"³":{"ha":379,"x_min":62,"x_max":431,"o":"m 218 433 q 101 472 140 433 q 62 576 62 511 q 63 594 62 583 q 68 628 64 604 l 182 628 q 177 596 178 604 q 176 583 176 587 q 224 529 176 529 q 268 552 249 529 q 288 628 288 576 q 283 655 288 644 q 273 673 279 667 q 257 682 266 680 q 239 685 248 685 l 211 685 l 225 778 l 254 778 q 274 784 264 778 q 294 803 285 790 q 308 833 302 815 q 314 876 314 852 q 304 912 314 901 q 278 924 294 924 q 241 904 256 924 q 220 832 226 884 l 106 832 q 129 914 113 879 q 168 972 144 949 q 221 1007 191 996 q 283 1019 250 1019 q 344 1011 317 1019 q 390 986 371 1002 q 420 944 410 969 q 431 886 431 919 q 424 833 431 857 q 405 793 417 810 q 376 761 393 775 q 339 736 359 747 q 384 694 366 722 q 401 625 401 666 q 387 546 401 581 q 346 485 372 510 q 288 447 321 460 q 218 433 255 433 z "},"´":{"ha":379,"x_min":195,"x_max":482,"o":"m 481 1004 l 482 1000 l 332 821 l 195 821 l 314 1004 l 481 1004 z "},"µ":{"ha":693,"x_min":-1,"x_max":669,"o":"m -1 -239 l 132 730 l 296 730 q 268 527 279 610 q 249 389 257 444 q 237 302 241 334 q 231 255 233 271 q 228 234 229 239 q 228 227 228 229 q 249 157 228 178 q 309 135 271 135 q 355 145 332 135 q 395 175 377 155 q 426 224 414 195 q 444 292 439 254 l 504 730 l 669 730 l 568 0 l 432 0 l 432 94 q 401 51 418 71 q 363 15 384 31 q 318 -8 342 0 q 262 -17 293 -17 q 227 -13 243 -17 q 196 -1 210 -9 l 164 -239 l -1 -239 z "},"¶":{"ha":633,"x_min":61,"x_max":707,"o":"m 258 347 q 178 374 214 353 q 115 429 141 395 q 75 505 90 462 q 61 599 61 549 q 87 755 61 688 q 157 865 113 821 q 257 931 201 909 q 375 953 314 953 l 707 953 l 692 847 l 625 847 l 472 -240 l 359 -240 l 513 847 l 439 847 l 286 -240 l 175 -240 l 258 347 z "},"·":{"ha":317,"x_min":83,"x_max":278,"o":"m 278 568 l 252 386 l 83 386 l 110 568 l 278 568 z "},"¸":{"ha":379,"x_min":32,"x_max":315,"o":"m 218 -46 q 256 -53 238 -47 q 287 -67 273 -58 q 308 -91 300 -77 q 315 -125 315 -105 q 300 -190 315 -165 q 260 -229 284 -214 q 205 -248 235 -243 q 147 -253 176 -253 q 87 -250 118 -253 q 32 -241 56 -247 l 41 -174 l 140 -174 q 181 -165 165 -174 q 196 -132 196 -157 q 186 -113 196 -119 q 153 -107 176 -107 l 107 -107 l 139 16 l 233 16 l 218 -46 z "},"¹":{"ha":379,"x_min":54,"x_max":374,"o":"m 171 541 l 216 864 l 113 864 l 122 942 q 160 950 138 944 q 204 964 181 956 q 250 982 227 972 q 292 1004 273 993 l 347 1004 l 282 541 l 374 541 l 359 444 l 54 444 l 68 541 l 171 541 z "},"º":{"ha":415,"x_min":77,"x_max":478,"o":"m 250 504 q 121 548 165 504 q 77 684 77 591 q 81 759 77 720 q 94 834 85 798 q 120 905 104 871 q 162 963 137 938 q 223 1003 188 989 q 304 1018 258 1018 q 434 973 390 1018 q 478 836 478 928 q 474 761 478 800 q 460 685 470 722 q 434 615 450 648 q 392 558 417 583 q 332 518 367 533 q 250 504 297 504 m 254 599 q 298 614 280 599 q 328 652 316 629 q 347 704 340 675 q 357 759 354 732 q 362 806 361 785 q 363 836 363 827 q 348 901 363 879 q 300 924 334 924 q 256 909 274 924 q 226 870 238 894 q 208 819 214 847 q 197 764 201 790 q 193 716 194 737 q 192 686 192 695 q 206 621 192 642 q 254 599 220 599 z "},"»":{"ha":633,"x_min":12,"x_max":621,"o":"m 345 730 l 471 730 l 621 453 l 397 175 l 265 175 l 456 453 l 345 730 m 90 730 l 216 730 l 367 453 l 143 175 l 12 175 l 201 453 l 90 730 z "},"¼":{"ha":950,"x_min":33,"x_max":903,"o":"m 903 970 l 218 -17 l 125 -17 l 811 970 l 903 970 m 150 489 l 196 812 l 92 812 l 102 890 q 139 898 118 892 q 184 912 161 904 q 230 931 207 920 q 271 953 252 941 l 326 953 l 261 489 l 353 489 l 339 393 l 33 393 l 47 489 l 150 489 m 530 208 q 583 291 557 246 q 634 382 609 335 q 681 479 659 430 q 724 575 704 528 l 833 575 q 787 467 814 522 q 731 364 760 412 q 678 278 703 316 q 636 220 652 240 l 730 220 l 737 271 q 762 310 747 286 q 790 360 776 334 q 816 411 804 386 q 835 453 828 435 l 872 453 l 840 220 l 899 220 l 885 123 l 827 123 l 808 0 l 699 0 l 717 123 l 519 123 l 530 208 z "},"½":{"ha":950,"x_min":33,"x_max":921,"o":"m 880 970 l 196 -17 l 103 -17 l 789 970 l 880 970 m 150 489 l 196 812 l 92 812 l 102 890 q 139 898 118 892 q 184 912 161 904 q 230 931 207 920 q 271 953 252 941 l 326 953 l 261 489 l 353 489 l 339 393 l 33 393 l 47 489 l 150 489 m 536 25 q 565 109 543 71 q 617 181 587 147 q 680 245 646 215 q 740 307 713 276 q 786 369 768 337 q 804 436 804 400 q 797 465 804 452 q 766 478 789 478 q 726 451 741 478 q 701 363 710 423 l 591 363 q 603 442 591 404 q 639 510 615 480 q 697 557 663 539 q 778 575 732 575 q 835 568 808 575 q 880 547 861 562 q 910 510 899 533 q 921 456 921 488 q 910 385 921 418 q 881 322 899 352 q 839 265 863 292 q 789 211 814 237 q 737 157 763 184 q 688 103 711 131 l 876 103 l 861 0 l 532 0 l 536 25 z "},"¾":{"ha":950,"x_min":41,"x_max":907,"o":"m 889 970 l 204 -17 l 111 -17 l 798 970 l 889 970 m 197 379 q 80 418 119 379 q 41 522 41 456 q 42 539 41 529 q 47 574 43 550 l 161 574 q 156 542 157 550 q 155 529 155 533 q 203 475 155 475 q 247 498 228 475 q 267 574 267 522 q 262 601 267 590 q 252 619 258 612 q 236 628 245 625 q 218 631 227 631 l 191 631 l 204 724 l 233 724 q 253 730 243 724 q 273 748 264 736 q 287 779 281 761 q 293 822 293 798 q 283 859 293 848 q 257 869 274 869 q 220 849 235 869 q 199 778 205 829 l 85 778 q 108 860 92 825 q 147 918 124 895 q 200 953 170 941 q 262 965 229 965 q 323 957 296 965 q 369 931 350 948 q 399 890 389 915 q 410 832 410 865 q 403 780 410 802 q 384 739 396 757 q 355 707 372 721 q 318 682 338 694 q 363 640 345 667 q 380 571 380 612 q 366 491 380 527 q 325 431 351 456 q 267 392 300 406 q 197 379 234 379 m 539 208 q 592 291 566 246 q 642 382 618 335 q 689 479 667 430 q 732 575 712 528 l 842 575 q 812 503 829 540 q 777 432 795 467 q 740 364 759 397 q 703 304 721 332 q 670 255 686 277 q 644 220 655 233 l 739 220 l 746 271 q 770 310 756 286 q 799 360 785 334 q 824 411 812 386 q 843 453 836 435 l 880 453 l 848 220 l 907 220 l 893 123 l 835 123 l 817 0 l 707 0 l 725 123 l 528 123 l 539 208 z "},"¿":{"ha":696,"x_min":66,"x_max":636,"o":"m 524 730 l 496 541 l 306 541 l 334 730 l 524 730 m 66 -31 q 82 81 66 34 q 121 164 98 127 q 174 230 145 201 q 228 287 202 259 q 273 347 254 315 q 298 418 292 378 l 304 457 l 478 457 l 469 397 q 446 325 464 357 q 403 262 427 292 q 352 204 378 233 q 303 145 326 176 q 266 80 281 115 q 252 3 252 45 q 255 -27 252 -11 q 268 -57 258 -43 q 294 -81 277 -71 q 339 -90 311 -90 q 398 -73 374 -90 q 436 -28 422 -56 q 456 31 450 -1 q 463 93 463 63 l 636 93 q 615 -34 636 26 q 555 -139 595 -94 q 456 -212 515 -184 q 321 -239 397 -239 q 214 -224 261 -239 q 134 -181 167 -209 q 84 -116 101 -154 q 66 -31 66 -77 z "},"À":{"ha":822,"x_min":-36,"x_max":775,"o":"m 604 953 l 775 0 l 595 0 l 564 187 l 224 187 l 142 0 l -36 0 l 400 953 l 604 953 m 496 607 q 489 666 492 634 q 484 726 486 698 q 479 791 481 759 l 473 791 q 453 724 464 757 q 432 664 444 696 q 410 607 421 633 l 294 346 l 538 346 l 496 607 m 348 1227 l 515 1227 l 608 1043 l 470 1043 l 345 1223 l 348 1227 z "},"Á":{"ha":822,"x_min":-36,"x_max":775,"o":"m 604 953 l 775 0 l 595 0 l 564 187 l 224 187 l 142 0 l -36 0 l 400 953 l 604 953 m 496 607 q 489 666 492 634 q 484 726 486 698 q 479 791 481 759 l 473 791 q 453 724 464 757 q 432 664 444 696 q 410 607 421 633 l 294 346 l 538 346 l 496 607 m 711 1227 l 713 1223 l 562 1043 l 425 1043 l 545 1227 l 711 1227 z "},"Â":{"ha":822,"x_min":-36,"x_max":775,"o":"m 604 953 l 775 0 l 595 0 l 564 187 l 224 187 l 142 0 l -36 0 l 400 953 l 604 953 m 496 607 q 489 666 492 634 q 484 726 486 698 q 479 791 481 759 l 473 791 q 453 724 464 757 q 432 664 444 696 q 410 607 421 633 l 294 346 l 538 346 l 496 607 m 606 1227 l 697 1039 l 572 1039 l 525 1135 l 454 1039 l 325 1039 l 469 1227 l 606 1227 z "},"Ã":{"ha":822,"x_min":-36,"x_max":775,"o":"m 604 953 l 775 0 l 595 0 l 564 187 l 224 187 l 142 0 l -36 0 l 400 953 l 604 953 m 496 607 q 489 666 492 634 q 484 726 486 698 q 479 791 481 759 l 473 791 q 453 724 464 757 q 432 664 444 696 q 410 607 421 633 l 294 346 l 538 346 l 496 607 m 290 1057 q 300 1115 290 1084 q 332 1170 311 1145 q 381 1211 352 1194 q 446 1227 410 1227 q 493 1219 471 1227 q 536 1201 515 1211 q 577 1183 557 1192 q 621 1175 598 1175 q 659 1186 643 1175 q 683 1227 674 1197 l 773 1227 q 762 1168 773 1198 q 730 1113 751 1138 q 680 1073 709 1088 q 613 1057 650 1057 q 567 1065 589 1057 q 525 1083 545 1074 q 483 1101 504 1093 q 439 1109 463 1109 q 402 1097 418 1109 q 378 1057 387 1086 l 290 1057 z "},"Ä":{"ha":822,"x_min":-36,"x_max":775,"o":"m 604 953 l 775 0 l 595 0 l 564 187 l 224 187 l 142 0 l -36 0 l 400 953 l 604 953 m 496 607 q 489 666 492 634 q 484 726 486 698 q 479 791 481 759 l 473 791 q 453 724 464 757 q 432 664 444 696 q 410 607 421 633 l 294 346 l 538 346 l 496 607 m 729 1227 l 709 1075 l 570 1075 l 590 1227 l 729 1227 m 486 1227 l 465 1075 l 328 1075 l 347 1227 l 486 1227 z "},"Å":{"ha":822,"x_min":-36,"x_max":775,"o":"m 604 953 l 775 0 l 595 0 l 564 187 l 224 187 l 142 0 l -36 0 l 400 953 l 604 953 m 496 607 q 489 666 492 634 q 484 726 486 698 q 479 791 481 759 l 473 791 q 453 724 464 757 q 432 664 444 696 q 410 607 421 633 l 294 346 l 538 346 l 496 607 m 526 1002 q 474 1012 498 1002 q 431 1040 450 1022 q 402 1082 413 1058 q 392 1135 392 1107 q 402 1187 392 1162 q 431 1229 413 1211 q 473 1258 449 1247 q 526 1268 498 1268 q 578 1258 553 1268 q 620 1229 602 1247 q 648 1186 638 1211 q 659 1135 659 1162 q 648 1083 659 1107 q 620 1041 637 1059 q 577 1012 602 1023 q 526 1002 553 1002 m 526 1071 q 550 1076 538 1071 q 570 1089 562 1080 q 584 1110 579 1098 q 589 1135 589 1122 q 584 1160 589 1149 q 570 1181 579 1172 q 550 1194 562 1190 q 526 1199 538 1199 q 479 1181 498 1199 q 461 1135 461 1162 q 479 1089 461 1107 q 526 1071 498 1071 z "},"Æ":{"ha":1139,"x_min":-72,"x_max":1154,"o":"m 279 346 l 519 346 l 479 791 l 473 791 q 454 724 464 758 q 433 664 445 696 q 410 607 422 632 l 279 346 m 551 0 l 534 187 l 201 187 l 109 0 l -72 0 l 421 953 l 1154 953 l 1132 794 l 650 794 l 673 567 l 1040 567 l 1018 408 l 689 408 l 714 158 l 1051 158 l 1029 0 l 551 0 z "},"Ç":{"ha":822,"x_min":62,"x_max":818,"o":"m 62 347 q 72 495 62 420 q 103 639 82 570 q 158 768 125 708 q 239 873 192 829 q 349 944 287 918 q 490 970 412 970 q 626 948 566 970 q 729 882 686 926 q 795 771 772 838 q 818 616 818 705 l 818 599 l 637 599 l 637 624 q 598 767 637 717 q 490 817 559 817 q 401 794 439 817 q 336 736 363 772 q 290 652 308 699 q 261 553 272 604 q 246 450 250 501 q 241 354 241 398 q 280 193 241 250 q 399 136 318 136 q 481 154 446 136 q 543 201 517 171 q 586 270 569 231 q 612 353 603 309 l 786 353 q 740 215 770 280 q 664 99 710 149 q 555 18 618 49 q 412 -16 492 -13 l 406 -46 q 443 -53 425 -47 q 474 -67 460 -58 q 495 -91 487 -77 q 503 -125 503 -105 q 487 -190 503 -165 q 447 -229 471 -214 q 393 -248 422 -243 q 334 -253 363 -253 q 274 -250 305 -253 q 219 -241 243 -247 l 229 -174 l 328 -174 q 368 -165 353 -174 q 383 -132 383 -157 q 373 -113 383 -119 q 340 -107 363 -107 l 294 -107 l 319 -12 q 129 96 196 7 q 62 347 62 185 z "},"È":{"ha":760,"x_min":39,"x_max":772,"o":"m 326 1226 l 493 1226 l 586 1043 l 449 1043 l 323 1222 l 326 1226 m 39 0 l 172 953 l 772 953 l 750 794 l 326 794 l 294 567 l 659 567 l 636 408 l 272 408 l 236 158 l 669 158 l 647 0 l 39 0 z "},"É":{"ha":760,"x_min":39,"x_max":772,"o":"m 690 1226 l 692 1222 l 542 1043 l 404 1043 l 524 1226 l 690 1226 m 39 0 l 172 953 l 772 953 l 750 794 l 326 794 l 294 567 l 659 567 l 636 408 l 272 408 l 236 158 l 669 158 l 647 0 l 39 0 z "},"Ê":{"ha":760,"x_min":39,"x_max":772,"o":"m 585 1226 l 676 1039 l 551 1039 l 504 1135 l 433 1039 l 304 1039 l 449 1226 l 585 1226 m 39 0 l 172 953 l 772 953 l 750 794 l 326 794 l 294 567 l 659 567 l 636 408 l 272 408 l 236 158 l 669 158 l 647 0 l 39 0 z "},"Ë":{"ha":760,"x_min":39,"x_max":772,"o":"m 708 1226 l 688 1075 l 549 1075 l 570 1226 l 708 1226 m 465 1226 l 444 1075 l 307 1075 l 326 1226 l 465 1226 m 39 0 l 172 953 l 772 953 l 750 794 l 326 794 l 294 567 l 659 567 l 636 408 l 272 408 l 236 158 l 669 158 l 647 0 l 39 0 z "},"Ì":{"ha":317,"x_min":25,"x_max":355,"o":"m 335 953 l 201 0 l 25 0 l 158 953 l 335 953 m 96 1227 l 262 1227 l 355 1043 l 218 1043 l 93 1223 l 96 1227 z "},"Í":{"ha":317,"x_min":25,"x_max":460,"o":"m 335 953 l 201 0 l 25 0 l 158 953 l 335 953 m 459 1227 l 460 1223 l 310 1043 l 173 1043 l 292 1227 l 459 1227 z "},"Î":{"ha":317,"x_min":25,"x_max":445,"o":"m 335 953 l 201 0 l 25 0 l 158 953 l 335 953 m 353 1227 l 445 1039 l 320 1039 l 273 1135 l 202 1039 l 73 1039 l 217 1227 l 353 1227 z "},"Ï":{"ha":317,"x_min":25,"x_max":477,"o":"m 335 953 l 201 0 l 25 0 l 158 953 l 335 953 m 477 1227 l 456 1075 l 317 1075 l 338 1227 l 477 1227 m 234 1227 l 213 1075 l 75 1075 l 95 1227 l 234 1227 z "},"Ð":{"ha":822,"x_min":32,"x_max":800,"o":"m 39 0 l 98 433 l 32 433 l 47 551 l 115 551 l 172 953 l 465 953 q 607 930 545 953 q 712 862 669 907 q 778 749 755 817 q 800 591 800 682 q 790 458 800 527 q 758 323 780 389 q 702 199 736 258 q 619 96 667 140 q 508 26 571 52 q 367 0 446 0 l 39 0 m 326 794 l 292 551 l 464 551 l 447 433 l 275 433 l 237 158 l 351 158 q 445 178 404 158 q 515 230 486 197 q 566 306 545 263 q 598 396 586 349 q 615 490 610 443 q 621 579 621 537 q 573 741 621 687 q 440 794 525 794 l 326 794 z "},"Ñ":{"ha":822,"x_min":39,"x_max":821,"o":"m 289 1057 q 300 1114 289 1084 q 331 1169 311 1144 q 380 1210 351 1194 q 446 1226 409 1226 q 493 1218 471 1226 q 535 1201 515 1211 q 577 1183 556 1191 q 621 1175 597 1175 q 658 1186 642 1175 q 682 1226 673 1197 l 772 1226 q 761 1168 772 1198 q 729 1113 750 1138 q 679 1073 709 1088 q 612 1057 650 1057 q 566 1065 588 1057 q 524 1083 545 1073 q 483 1100 503 1093 q 439 1108 462 1108 q 401 1097 417 1108 q 378 1057 386 1086 l 289 1057 m 530 0 l 313 525 q 304 547 309 532 q 294 576 300 562 q 282 614 288 594 l 277 610 q 274 579 275 594 q 271 553 273 566 q 268 530 269 540 l 195 0 l 39 0 l 172 953 l 328 953 l 546 428 q 554 404 549 418 q 565 374 559 389 q 576 339 570 357 l 581 343 q 584 377 582 361 q 587 404 585 391 q 590 422 589 416 l 664 953 l 821 953 l 688 0 l 530 0 z "},"Ò":{"ha":886,"x_min":62,"x_max":865,"o":"m 62 347 q 73 490 62 417 q 105 633 83 564 q 163 763 127 702 q 248 870 198 825 q 363 943 298 916 q 511 970 429 970 q 660 947 595 970 q 771 880 726 925 q 841 766 817 835 q 865 604 865 697 q 855 461 865 534 q 822 319 844 388 q 764 189 800 250 q 678 82 728 127 q 563 9 628 36 q 415 -17 497 -17 q 266 5 332 -17 q 156 72 201 27 q 86 186 111 117 q 62 347 62 254 m 241 354 q 282 194 241 251 q 408 136 323 136 q 506 158 464 136 q 579 217 549 180 q 631 301 610 253 q 663 400 651 349 q 680 502 675 451 q 685 597 685 553 q 644 759 685 701 q 518 817 602 817 q 419 794 462 817 q 346 736 377 772 q 295 652 315 699 q 263 553 275 604 q 246 450 251 501 q 241 354 241 398 m 381 1227 l 548 1227 l 641 1043 l 503 1043 l 378 1223 l 381 1227 z "},"Ó":{"ha":886,"x_min":62,"x_max":865,"o":"m 62 347 q 73 490 62 417 q 105 633 83 564 q 163 763 127 702 q 248 870 198 825 q 363 943 298 916 q 511 970 429 970 q 660 947 595 970 q 771 880 726 925 q 841 766 817 835 q 865 604 865 697 q 855 461 865 534 q 822 319 844 388 q 764 189 800 250 q 678 82 728 127 q 563 9 628 36 q 415 -17 497 -17 q 266 5 332 -17 q 156 72 201 27 q 86 186 111 117 q 62 347 62 254 m 241 354 q 282 194 241 251 q 408 136 323 136 q 506 158 464 136 q 579 217 549 180 q 631 301 610 253 q 663 400 651 349 q 680 502 675 451 q 685 597 685 553 q 644 759 685 701 q 518 817 602 817 q 419 794 462 817 q 346 736 377 772 q 295 652 315 699 q 263 553 275 604 q 246 450 251 501 q 241 354 241 398 m 745 1227 l 746 1223 l 595 1043 l 458 1043 l 578 1227 l 745 1227 z "},"Ô":{"ha":886,"x_min":62,"x_max":865,"o":"m 62 347 q 73 490 62 417 q 105 633 83 564 q 163 763 127 702 q 248 870 198 825 q 363 943 298 916 q 511 970 429 970 q 660 947 595 970 q 771 880 726 925 q 841 766 817 835 q 865 604 865 697 q 855 461 865 534 q 822 319 844 388 q 764 189 800 250 q 678 82 728 127 q 563 9 628 36 q 415 -17 497 -17 q 266 5 332 -17 q 156 72 201 27 q 86 186 111 117 q 62 347 62 254 m 241 354 q 282 194 241 251 q 408 136 323 136 q 506 158 464 136 q 579 217 549 180 q 631 301 610 253 q 663 400 651 349 q 680 502 675 451 q 685 597 685 553 q 644 759 685 701 q 518 817 602 817 q 419 794 462 817 q 346 736 377 772 q 295 652 315 699 q 263 553 275 604 q 246 450 251 501 q 241 354 241 398 m 639 1227 l 730 1039 l 606 1039 l 558 1135 l 488 1039 l 358 1039 l 503 1227 l 639 1227 z "},"Õ":{"ha":886,"x_min":62,"x_max":865,"o":"m 62 347 q 73 490 62 417 q 105 633 83 564 q 163 763 127 702 q 248 870 198 825 q 363 943 298 916 q 511 970 429 970 q 660 947 595 970 q 771 880 726 925 q 841 766 817 835 q 865 604 865 697 q 855 461 865 534 q 822 319 844 388 q 764 189 800 250 q 678 82 728 127 q 563 9 628 36 q 415 -17 497 -17 q 266 5 332 -17 q 156 72 201 27 q 86 186 111 117 q 62 347 62 254 m 241 354 q 282 194 241 251 q 408 136 323 136 q 506 158 464 136 q 579 217 549 180 q 631 301 610 253 q 663 400 651 349 q 680 502 675 451 q 685 597 685 553 q 644 759 685 701 q 518 817 602 817 q 419 794 462 817 q 346 736 377 772 q 295 652 315 699 q 263 553 275 604 q 246 450 251 501 q 241 354 241 398 m 323 1057 q 334 1115 323 1084 q 365 1170 345 1145 q 414 1211 385 1194 q 479 1227 443 1227 q 527 1219 505 1227 q 569 1201 549 1211 q 611 1183 590 1192 q 654 1175 631 1175 q 692 1186 676 1175 q 716 1227 707 1197 l 806 1227 q 795 1168 806 1198 q 763 1113 784 1138 q 713 1073 743 1088 q 646 1057 684 1057 q 600 1065 622 1057 q 558 1083 578 1074 q 516 1101 537 1093 q 473 1109 496 1109 q 435 1097 451 1109 q 412 1057 420 1086 l 323 1057 z "},"Ö":{"ha":886,"x_min":62,"x_max":865,"o":"m 62 347 q 73 490 62 417 q 105 633 83 564 q 163 763 127 702 q 248 870 198 825 q 363 943 298 916 q 511 970 429 970 q 660 947 595 970 q 771 880 726 925 q 841 766 817 835 q 865 604 865 697 q 855 461 865 534 q 822 319 844 388 q 764 189 800 250 q 678 82 728 127 q 563 9 628 36 q 415 -17 497 -17 q 266 5 332 -17 q 156 72 201 27 q 86 186 111 117 q 62 347 62 254 m 241 354 q 282 194 241 251 q 408 136 323 136 q 506 158 464 136 q 579 217 549 180 q 631 301 610 253 q 663 400 651 349 q 680 502 675 451 q 685 597 685 553 q 644 759 685 701 q 518 817 602 817 q 419 794 462 817 q 346 736 377 772 q 295 652 315 699 q 263 553 275 604 q 246 450 251 501 q 241 354 241 398 m 762 1227 l 742 1075 l 603 1075 l 623 1227 l 762 1227 m 519 1227 l 498 1075 l 361 1075 l 380 1227 l 519 1227 z "},"×":{"ha":665,"x_min":8,"x_max":669,"o":"m 239 355 l 65 558 l 179 659 l 353 456 l 583 659 l 669 558 l 437 355 l 612 154 l 498 54 l 323 257 l 94 54 l 8 154 l 239 355 z "},"Ø":{"ha":886,"x_min":62,"x_max":865,"o":"m 147 81 q 62 347 62 172 q 73 490 62 417 q 105 633 83 564 q 163 763 127 702 q 248 870 198 825 q 363 943 298 916 q 511 970 429 970 q 614 960 566 970 q 700 930 661 950 l 749 1004 l 865 1004 l 779 872 q 843 760 821 826 q 865 604 865 693 q 855 461 865 534 q 822 319 844 388 q 764 189 800 250 q 678 82 728 127 q 563 9 628 36 q 415 -17 497 -17 q 313 -7 360 -17 q 227 22 267 3 l 179 -52 l 62 -52 l 147 81 m 610 791 q 569 810 592 804 q 518 817 545 817 q 419 794 462 817 q 346 736 377 772 q 295 652 315 699 q 263 553 275 604 q 246 450 251 501 q 241 354 241 398 q 245 296 241 323 q 256 245 248 269 l 610 791 m 317 160 q 408 136 353 136 q 506 158 464 136 q 579 217 549 180 q 631 301 610 253 q 663 400 651 349 q 680 502 675 451 q 685 597 685 553 q 681 654 685 628 q 669 704 677 681 l 317 160 z "},"Ù":{"ha":822,"x_min":82,"x_max":823,"o":"m 347 1226 l 514 1226 l 607 1043 l 469 1043 l 345 1222 l 347 1226 m 353 953 q 306 629 326 774 q 289 508 297 568 q 274 399 281 448 q 264 317 268 350 q 260 277 260 283 q 294 172 260 207 q 392 136 328 136 q 504 182 461 136 q 558 315 546 227 l 647 953 l 823 953 l 733 310 q 693 168 722 229 q 621 66 665 107 q 520 4 578 25 q 392 -17 462 -17 q 260 0 318 -17 q 163 50 203 17 q 103 132 123 83 q 82 244 82 180 q 86 293 82 256 q 97 382 90 330 q 112 497 103 435 q 129 623 120 560 q 176 953 150 772 l 353 953 z "},"Ú":{"ha":822,"x_min":82,"x_max":823,"o":"m 711 1226 l 713 1222 l 562 1043 l 425 1043 l 545 1226 l 711 1226 m 353 953 q 306 629 326 774 q 289 508 297 568 q 274 399 281 448 q 264 317 268 350 q 260 277 260 283 q 294 172 260 207 q 392 136 328 136 q 504 182 461 136 q 558 315 546 227 l 647 953 l 823 953 l 733 310 q 693 168 722 229 q 621 66 665 107 q 520 4 578 25 q 392 -17 462 -17 q 260 0 318 -17 q 163 50 203 17 q 103 132 123 83 q 82 244 82 180 q 86 293 82 256 q 97 382 90 330 q 112 497 103 435 q 129 623 120 560 q 176 953 150 772 l 353 953 z "},"Û":{"ha":822,"x_min":82,"x_max":823,"o":"m 606 1226 l 697 1039 l 572 1039 l 525 1135 l 454 1039 l 325 1039 l 469 1226 l 606 1226 m 353 953 q 306 629 326 774 q 289 508 297 568 q 274 399 281 448 q 264 317 268 350 q 260 277 260 283 q 294 172 260 207 q 392 136 328 136 q 504 182 461 136 q 558 315 546 227 l 647 953 l 823 953 l 733 310 q 693 168 722 229 q 621 66 665 107 q 520 4 578 25 q 392 -17 462 -17 q 260 0 318 -17 q 163 50 203 17 q 103 132 123 83 q 82 244 82 180 q 86 293 82 256 q 97 382 90 330 q 112 497 103 435 q 129 623 120 560 q 176 953 150 772 l 353 953 z "},"Ü":{"ha":822,"x_min":82,"x_max":823,"o":"m 729 1226 l 708 1075 l 570 1075 l 590 1226 l 729 1226 m 486 1226 l 465 1075 l 328 1075 l 347 1226 l 486 1226 m 353 953 q 306 629 326 774 q 289 508 297 568 q 274 399 281 448 q 264 317 268 350 q 260 277 260 283 q 294 172 260 207 q 392 136 328 136 q 504 182 461 136 q 558 315 546 227 l 647 953 l 823 953 l 733 310 q 693 168 722 229 q 621 66 665 107 q 520 4 578 25 q 392 -17 462 -17 q 260 0 318 -17 q 163 50 203 17 q 103 132 123 83 q 82 244 82 180 q 86 293 82 256 q 97 382 90 330 q 112 497 103 435 q 129 623 120 560 q 176 953 150 772 l 353 953 z "},"Ý":{"ha":760,"x_min":93,"x_max":844,"o":"m 93 953 l 273 953 l 411 534 l 416 534 l 665 953 l 844 953 l 475 359 l 424 0 l 249 0 l 298 359 l 93 953 m 684 1227 l 686 1223 l 535 1043 l 398 1043 l 517 1227 l 684 1227 z "},"Þ":{"ha":760,"x_min":39,"x_max":743,"o":"m 172 953 l 349 953 l 325 781 l 478 781 q 595 762 545 781 q 678 711 645 744 q 727 633 711 678 q 743 534 743 588 q 719 396 743 458 q 651 290 694 334 q 550 221 608 245 q 425 197 492 197 l 243 197 l 215 0 l 39 0 l 172 953 m 302 623 l 265 354 l 415 354 q 474 365 447 354 q 520 395 500 375 q 550 443 539 414 q 561 507 561 471 q 531 591 561 559 q 446 623 501 623 l 302 623 z "},"ß":{"ha":696,"x_min":24,"x_max":697,"o":"m 122 722 q 162 858 133 802 q 235 951 192 915 q 331 1004 277 987 q 443 1021 384 1021 q 547 1005 500 1021 q 627 960 593 989 q 679 888 661 930 q 697 790 697 845 q 685 714 697 752 q 651 644 673 677 q 599 587 629 612 q 533 549 569 562 l 533 543 q 586 509 562 531 q 626 457 610 487 q 652 393 643 428 q 661 319 661 357 q 638 203 661 260 q 574 101 615 146 q 477 28 533 56 q 355 0 421 0 l 253 0 l 272 142 l 343 142 q 399 156 372 142 q 447 195 426 171 q 480 251 467 219 q 493 317 493 282 q 485 370 493 345 q 463 412 477 394 q 429 440 449 430 q 386 450 410 450 l 314 450 l 336 607 l 404 607 q 449 621 427 607 q 488 659 471 635 q 517 713 506 682 q 528 778 528 744 q 504 852 528 824 q 432 880 480 880 q 337 843 375 880 q 289 733 298 805 l 186 0 l 24 0 l 122 722 z "},"à":{"ha":633,"x_min":31,"x_max":616,"o":"m 201 1004 l 368 1004 l 461 821 l 323 821 l 199 1000 l 201 1004 m 307 747 q 402 720 365 747 q 460 643 440 692 l 488 730 l 616 730 q 573 452 592 575 q 557 349 565 399 q 544 258 549 298 q 534 191 538 217 q 530 163 530 165 q 540 133 530 142 q 564 123 549 123 l 589 123 l 572 5 q 539 -9 559 -2 q 490 -17 519 -17 q 415 9 444 -17 q 375 81 385 35 q 344 37 361 55 q 307 6 326 18 q 267 -11 288 -5 q 228 -17 247 -17 q 83 47 135 -17 q 31 241 31 112 q 54 469 31 374 q 117 627 78 565 q 206 718 156 688 q 307 747 256 747 m 271 126 q 321 144 300 126 q 359 192 343 163 q 385 259 375 222 q 401 334 395 296 q 410 408 408 372 q 412 469 412 444 q 397 569 412 533 q 339 604 382 604 q 288 585 310 604 q 251 534 267 565 q 224 464 235 503 q 208 388 214 426 q 199 317 201 350 q 196 264 196 284 q 214 161 196 197 q 271 126 231 126 z "},"á":{"ha":633,"x_min":31,"x_max":616,"o":"m 566 1004 l 567 1000 l 416 821 l 279 821 l 399 1004 l 566 1004 m 307 747 q 402 720 365 747 q 460 643 440 692 l 488 730 l 616 730 q 573 452 592 575 q 557 349 565 399 q 544 258 549 298 q 534 191 538 217 q 530 163 530 165 q 540 133 530 142 q 564 123 549 123 l 589 123 l 572 5 q 539 -9 559 -2 q 490 -17 519 -17 q 415 9 444 -17 q 375 81 385 35 q 344 37 361 55 q 307 6 326 18 q 267 -11 288 -5 q 228 -17 247 -17 q 83 47 135 -17 q 31 241 31 112 q 54 469 31 374 q 117 627 78 565 q 206 718 156 688 q 307 747 256 747 m 271 126 q 321 144 300 126 q 359 192 343 163 q 385 259 375 222 q 401 334 395 296 q 410 408 408 372 q 412 469 412 444 q 397 569 412 533 q 339 604 382 604 q 288 585 310 604 q 251 534 267 565 q 224 464 235 503 q 208 388 214 426 q 199 317 201 350 q 196 264 196 284 q 214 161 196 197 q 271 126 231 126 z "},"â":{"ha":633,"x_min":31,"x_max":616,"o":"m 460 1004 l 551 817 l 427 817 l 379 913 l 309 817 l 179 817 l 323 1004 l 460 1004 m 307 747 q 402 720 365 747 q 460 643 440 692 l 488 730 l 616 730 q 573 452 592 575 q 557 349 565 399 q 544 258 549 298 q 534 191 538 217 q 530 163 530 165 q 540 133 530 142 q 564 123 549 123 l 589 123 l 572 5 q 539 -9 559 -2 q 490 -17 519 -17 q 415 9 444 -17 q 375 81 385 35 q 344 37 361 55 q 307 6 326 18 q 267 -11 288 -5 q 228 -17 247 -17 q 83 47 135 -17 q 31 241 31 112 q 54 469 31 374 q 117 627 78 565 q 206 718 156 688 q 307 747 256 747 m 271 126 q 321 144 300 126 q 359 192 343 163 q 385 259 375 222 q 401 334 395 296 q 410 408 408 372 q 412 469 412 444 q 397 569 412 533 q 339 604 382 604 q 288 585 310 604 q 251 534 267 565 q 224 464 235 503 q 208 388 214 426 q 199 317 201 350 q 196 264 196 284 q 214 161 196 197 q 271 126 231 126 z "},"ã":{"ha":633,"x_min":31,"x_max":627,"o":"m 143 835 q 154 892 143 862 q 185 947 165 922 q 234 988 205 972 q 300 1004 263 1004 q 347 996 325 1004 q 390 979 369 988 q 431 961 410 969 q 475 953 452 953 q 512 964 496 953 q 536 1004 528 975 l 627 1004 q 615 946 627 976 q 584 891 604 916 q 533 850 563 866 q 467 835 504 835 q 420 843 442 835 q 378 861 399 851 q 337 878 357 870 q 293 886 316 886 q 256 875 271 886 q 232 835 240 863 l 143 835 m 307 747 q 402 720 365 747 q 460 643 440 692 l 488 730 l 616 730 q 573 452 592 575 q 557 349 565 399 q 544 258 549 298 q 534 191 538 217 q 530 163 530 165 q 540 133 530 142 q 564 123 549 123 l 589 123 l 572 5 q 539 -9 559 -2 q 490 -17 519 -17 q 415 9 444 -17 q 375 81 385 35 q 344 37 361 55 q 307 6 326 18 q 267 -11 288 -5 q 228 -17 247 -17 q 83 47 135 -17 q 31 241 31 112 q 54 469 31 374 q 117 627 78 565 q 206 718 156 688 q 307 747 256 747 m 271 126 q 321 144 300 126 q 359 192 343 163 q 385 259 375 222 q 401 334 395 296 q 410 408 408 372 q 412 469 412 444 q 397 569 412 533 q 339 604 382 604 q 288 585 310 604 q 251 534 267 565 q 224 464 235 503 q 208 388 214 426 q 199 317 201 350 q 196 264 196 284 q 214 161 196 197 q 271 126 231 126 z "},"ä":{"ha":633,"x_min":31,"x_max":616,"o":"m 583 1004 l 562 852 l 424 852 l 444 1004 l 583 1004 m 340 1004 l 319 852 l 182 852 l 201 1004 l 340 1004 m 307 747 q 402 720 365 747 q 460 643 440 692 l 488 730 l 616 730 q 573 452 592 575 q 557 349 565 399 q 544 258 549 298 q 534 191 538 217 q 530 163 530 165 q 540 133 530 142 q 564 123 549 123 l 589 123 l 572 5 q 539 -9 559 -2 q 490 -17 519 -17 q 415 9 444 -17 q 375 81 385 35 q 344 37 361 55 q 307 6 326 18 q 267 -11 288 -5 q 228 -17 247 -17 q 83 47 135 -17 q 31 241 31 112 q 54 469 31 374 q 117 627 78 565 q 206 718 156 688 q 307 747 256 747 m 271 126 q 321 144 300 126 q 359 192 343 163 q 385 259 375 222 q 401 334 395 296 q 410 408 408 372 q 412 469 412 444 q 397 569 412 533 q 339 604 382 604 q 288 585 310 604 q 251 534 267 565 q 224 464 235 503 q 208 388 214 426 q 199 317 201 350 q 196 264 196 284 q 214 161 196 197 q 271 126 231 126 z "},"å":{"ha":633,"x_min":31,"x_max":616,"o":"m 379 779 q 328 789 352 779 q 286 818 304 800 q 256 860 267 836 q 245 913 245 884 q 256 964 245 940 q 285 1007 267 989 q 327 1035 303 1025 q 379 1046 351 1046 q 432 1035 408 1046 q 474 1006 456 1025 q 503 964 492 988 q 513 913 513 940 q 502 861 513 885 q 474 818 492 836 q 431 790 456 800 q 379 779 407 779 m 379 848 q 404 853 392 848 q 424 867 415 858 q 438 887 433 876 q 443 913 443 899 q 438 938 443 926 q 424 958 433 949 q 404 972 415 967 q 379 977 392 977 q 334 958 352 977 q 315 913 315 940 q 334 867 315 885 q 379 848 352 848 m 307 747 q 402 720 365 747 q 460 643 440 692 l 488 730 l 616 730 q 573 452 592 575 q 557 349 565 399 q 544 258 549 298 q 534 191 538 217 q 530 163 530 165 q 540 133 530 142 q 564 123 549 123 l 589 123 l 572 5 q 539 -9 559 -2 q 490 -17 519 -17 q 415 9 444 -17 q 375 81 385 35 q 344 37 361 55 q 307 6 326 18 q 267 -11 288 -5 q 228 -17 247 -17 q 83 47 135 -17 q 31 241 31 112 q 54 469 31 374 q 117 627 78 565 q 206 718 156 688 q 307 747 256 747 m 271 126 q 321 144 300 126 q 359 192 343 163 q 385 259 375 222 q 401 334 395 296 q 410 408 408 372 q 412 469 412 444 q 397 569 412 533 q 339 604 382 604 q 288 585 310 604 q 251 534 267 565 q 224 464 235 503 q 208 388 214 426 q 199 317 201 350 q 196 264 196 284 q 214 161 196 197 q 271 126 231 126 z "},"æ":{"ha":1013,"x_min":26,"x_max":962,"o":"m 26 179 q 42 270 26 230 q 84 339 57 309 q 149 388 111 368 q 231 421 186 408 q 325 439 275 433 q 427 444 375 444 l 435 521 q 436 535 436 528 l 436 549 q 423 593 436 576 q 372 611 410 611 q 329 604 347 611 q 300 583 312 596 q 282 553 289 570 q 273 514 276 535 l 113 514 q 132 610 113 567 q 188 684 152 653 q 275 731 224 714 q 387 747 326 747 q 487 731 445 747 q 555 686 530 715 q 634 731 590 715 q 736 747 678 747 q 962 498 962 747 q 959 413 962 458 q 947 323 956 368 l 582 323 q 579 284 580 302 q 579 260 579 267 q 596 153 579 189 q 656 118 614 118 q 694 129 677 118 q 724 158 711 140 q 746 201 736 177 q 761 253 755 226 l 932 253 q 898 149 920 198 q 842 63 876 100 q 761 5 808 26 q 648 -17 713 -17 q 524 6 574 -17 q 446 79 474 30 q 350 10 403 37 q 225 -17 297 -17 q 158 -9 193 -17 q 94 21 123 -1 q 45 81 64 43 q 26 179 26 119 m 200 186 q 217 139 200 155 q 272 122 235 122 q 323 135 300 122 q 362 170 346 148 q 389 221 378 192 q 403 282 399 250 l 408 323 q 334 317 371 323 q 267 296 296 311 q 219 254 237 280 q 200 186 200 227 m 791 444 q 793 469 792 459 q 794 484 793 478 q 794 492 794 490 l 794 498 q 779 583 794 554 q 726 612 764 612 q 680 598 701 612 q 645 561 660 584 q 618 507 629 537 q 600 444 607 477 l 791 444 z "},"ç":{"ha":633,"x_min":50,"x_max":600,"o":"m 50 239 q 56 356 50 296 q 75 472 61 416 q 112 579 88 529 q 171 666 135 629 q 257 726 207 704 q 374 747 307 747 q 547 680 493 747 q 600 476 600 613 l 600 456 l 431 456 l 431 476 q 416 573 431 540 q 361 607 401 607 q 309 585 331 607 q 271 530 287 564 q 245 455 256 496 q 230 376 235 414 q 222 308 224 338 q 220 265 220 278 q 235 159 220 195 q 294 123 250 123 q 335 135 317 123 q 368 168 353 147 q 392 214 382 188 q 408 271 402 241 l 574 271 q 542 167 562 216 q 492 79 522 117 q 418 15 461 40 q 314 -15 374 -9 l 307 -46 q 344 -53 326 -47 q 375 -67 361 -58 q 396 -91 388 -77 q 404 -125 404 -105 q 388 -190 404 -165 q 348 -229 372 -214 q 294 -248 323 -243 q 235 -253 264 -253 q 175 -250 206 -253 q 120 -241 144 -247 l 130 -174 l 229 -174 q 269 -165 254 -174 q 284 -132 284 -157 q 274 -113 284 -119 q 241 -107 264 -107 l 195 -107 l 220 -12 q 50 239 50 18 z "},"è":{"ha":633,"x_min":46,"x_max":596,"o":"m 46 239 q 52 360 46 299 q 72 478 58 421 q 110 584 86 534 q 170 669 134 633 q 255 726 205 705 q 370 747 304 747 q 596 498 596 747 q 592 413 596 458 q 581 323 589 368 l 215 323 q 213 284 213 302 q 212 260 212 267 q 230 153 212 189 q 289 118 247 118 q 327 129 310 118 q 357 158 344 140 q 379 201 370 177 q 395 253 389 226 l 566 253 q 531 149 553 198 q 476 63 509 100 q 394 5 442 26 q 282 -17 347 -17 q 104 45 162 -17 q 46 239 46 108 m 217 1004 l 384 1004 l 477 821 l 339 821 l 214 1000 l 217 1004 m 425 444 q 427 469 426 459 q 428 484 427 478 q 428 492 428 490 l 428 498 q 413 583 428 554 q 359 612 397 612 q 313 598 334 612 q 278 561 293 584 q 252 507 262 537 q 233 444 241 477 l 425 444 z "},"é":{"ha":633,"x_min":46,"x_max":596,"o":"m 46 239 q 52 360 46 299 q 72 478 58 421 q 110 584 86 534 q 170 669 134 633 q 255 726 205 705 q 370 747 304 747 q 596 498 596 747 q 592 413 596 458 q 581 323 589 368 l 215 323 q 213 284 213 302 q 212 260 212 267 q 230 153 212 189 q 289 118 247 118 q 327 129 310 118 q 357 158 344 140 q 379 201 370 177 q 395 253 389 226 l 566 253 q 531 149 553 198 q 476 63 509 100 q 394 5 442 26 q 282 -17 347 -17 q 104 45 162 -17 q 46 239 46 108 m 581 1004 l 582 1000 l 431 821 l 294 821 l 414 1004 l 581 1004 m 425 444 q 427 469 426 459 q 428 484 427 478 q 428 492 428 490 l 428 498 q 413 583 428 554 q 359 612 397 612 q 313 598 334 612 q 278 561 293 584 q 252 507 262 537 q 233 444 241 477 l 425 444 z "},"ê":{"ha":633,"x_min":46,"x_max":596,"o":"m 46 239 q 52 360 46 299 q 72 478 58 421 q 110 584 86 534 q 170 669 134 633 q 255 726 205 705 q 370 747 304 747 q 596 498 596 747 q 592 413 596 458 q 581 323 589 368 l 215 323 q 213 284 213 302 q 212 260 212 267 q 230 153 212 189 q 289 118 247 118 q 327 129 310 118 q 357 158 344 140 q 379 201 370 177 q 395 253 389 226 l 566 253 q 531 149 553 198 q 476 63 509 100 q 394 5 442 26 q 282 -17 347 -17 q 104 45 162 -17 q 46 239 46 108 m 475 1004 l 566 817 l 441 817 l 394 913 l 323 817 l 194 817 l 338 1004 l 475 1004 m 425 444 q 427 469 426 459 q 428 484 427 478 q 428 492 428 490 l 428 498 q 413 583 428 554 q 359 612 397 612 q 313 598 334 612 q 278 561 293 584 q 252 507 262 537 q 233 444 241 477 l 425 444 z "},"ë":{"ha":633,"x_min":46,"x_max":598,"o":"m 46 239 q 52 360 46 299 q 72 478 58 421 q 110 584 86 534 q 170 669 134 633 q 255 726 205 705 q 370 747 304 747 q 596 498 596 747 q 592 413 596 458 q 581 323 589 368 l 215 323 q 213 284 213 302 q 212 260 212 267 q 230 153 212 189 q 289 118 247 118 q 327 129 310 118 q 357 158 344 140 q 379 201 370 177 q 395 253 389 226 l 566 253 q 531 149 553 198 q 476 63 509 100 q 394 5 442 26 q 282 -17 347 -17 q 104 45 162 -17 q 46 239 46 108 m 425 444 q 427 469 426 459 q 428 484 427 478 q 428 492 428 490 l 428 498 q 413 583 428 554 q 359 612 397 612 q 313 598 334 612 q 278 561 293 584 q 252 507 262 537 q 233 444 241 477 l 425 444 m 598 1004 l 578 852 l 439 852 l 459 1004 l 598 1004 m 355 1004 l 334 852 l 197 852 l 216 1004 l 355 1004 z "},"ì":{"ha":317,"x_min":32,"x_max":323,"o":"m 298 730 l 197 0 l 32 0 l 134 730 l 298 730 m 63 1004 l 230 1004 l 323 821 l 185 821 l 60 1000 l 63 1004 z "},"í":{"ha":317,"x_min":32,"x_max":428,"o":"m 298 730 l 197 0 l 32 0 l 134 730 l 298 730 m 427 1004 l 428 1000 l 277 821 l 140 821 l 260 1004 l 427 1004 z "},"î":{"ha":317,"x_min":32,"x_max":412,"o":"m 298 730 l 197 0 l 32 0 l 134 730 l 298 730 m 321 1004 l 412 817 l 288 817 l 240 913 l 170 817 l 40 817 l 184 1004 l 321 1004 z "},"ï":{"ha":317,"x_min":32,"x_max":444,"o":"m 298 730 l 197 0 l 32 0 l 134 730 l 298 730 m 444 1004 l 424 852 l 285 852 l 305 1004 l 444 1004 m 201 1004 l 180 852 l 43 852 l 62 1004 l 201 1004 z "},"ð":{"ha":696,"x_min":46,"x_max":684,"o":"m 46 253 q 71 467 46 374 q 138 621 96 559 q 235 715 180 684 q 351 747 290 747 q 389 744 369 747 q 424 736 409 741 l 429 742 q 411 784 422 762 q 389 827 400 806 l 210 811 l 224 913 l 328 922 q 294 966 310 946 q 267 999 278 985 l 269 1004 l 441 1004 q 470 975 454 991 q 501 937 485 958 l 684 954 l 669 852 l 564 843 q 594 777 580 812 q 620 701 609 742 q 636 612 630 659 q 643 510 643 564 q 619 274 643 374 q 552 110 595 175 q 445 14 508 45 q 304 -17 382 -17 q 111 48 176 -17 q 46 253 46 114 m 310 123 q 375 146 348 123 q 419 203 401 168 q 448 280 437 238 q 463 361 458 322 q 469 432 468 401 q 471 476 471 463 q 449 573 471 540 q 378 607 427 607 q 313 585 340 607 q 268 527 286 562 q 240 450 250 492 q 224 369 229 408 q 218 299 219 330 q 216 254 216 267 q 238 156 216 189 q 310 123 260 123 z "},"ñ":{"ha":696,"x_min":32,"x_max":680,"o":"m 268 730 l 268 633 q 304 678 284 657 q 348 714 323 699 q 402 739 372 730 q 467 747 431 747 q 598 697 554 747 q 643 559 643 647 q 642 541 643 550 q 639 513 642 532 q 632 459 637 494 q 619 366 627 425 q 599 218 611 307 q 570 0 587 129 l 406 0 q 433 203 422 120 q 452 342 444 287 q 464 428 460 397 q 470 475 468 459 q 473 496 473 491 q 473 504 473 501 q 455 574 473 553 q 393 596 436 596 q 347 586 369 596 q 306 556 324 576 q 275 506 288 536 q 257 439 262 477 l 197 0 l 32 0 l 134 730 l 268 730 m 196 835 q 207 892 196 862 q 238 947 218 922 q 287 988 258 972 q 353 1004 316 1004 q 400 996 378 1004 q 443 979 422 988 q 484 961 463 969 q 528 953 505 953 q 565 964 549 953 q 589 1004 581 975 l 680 1004 q 668 946 680 976 q 636 891 657 916 q 586 850 616 866 q 519 835 557 835 q 473 843 495 835 q 431 861 452 851 q 390 878 410 870 q 346 886 369 886 q 309 875 324 886 q 285 835 293 863 l 196 835 z "},"ò":{"ha":696,"x_min":50,"x_max":646,"o":"m 50 250 q 56 361 50 304 q 76 474 62 419 q 115 579 91 530 q 177 666 140 629 q 266 725 214 703 q 387 747 318 747 q 581 681 515 747 q 646 476 646 614 q 640 365 646 422 q 620 253 634 307 q 581 149 605 198 q 519 63 556 100 q 430 5 481 26 q 309 -17 378 -17 q 116 48 181 -17 q 50 250 50 113 m 221 254 q 243 156 221 189 q 314 123 265 123 q 379 146 352 123 q 424 203 406 168 q 452 280 441 238 q 467 361 462 322 q 473 432 472 401 q 475 476 475 463 q 453 573 475 540 q 382 607 431 607 q 317 585 344 607 q 272 527 290 562 q 244 450 254 492 q 229 369 234 408 q 222 299 224 330 q 221 254 221 267 m 248 1004 l 414 1004 l 507 821 l 370 821 l 245 1000 l 248 1004 z "},"ó":{"ha":696,"x_min":50,"x_max":646,"o":"m 50 250 q 56 361 50 304 q 76 474 62 419 q 115 579 91 530 q 177 666 140 629 q 266 725 214 703 q 387 747 318 747 q 581 681 515 747 q 646 476 646 614 q 640 365 646 422 q 620 253 634 307 q 581 149 605 198 q 519 63 556 100 q 430 5 481 26 q 309 -17 378 -17 q 116 48 181 -17 q 50 250 50 113 m 221 254 q 243 156 221 189 q 314 123 265 123 q 379 146 352 123 q 424 203 406 168 q 452 280 441 238 q 467 361 462 322 q 473 432 472 401 q 475 476 475 463 q 453 573 475 540 q 382 607 431 607 q 317 585 344 607 q 272 527 290 562 q 244 450 254 492 q 229 369 234 408 q 222 299 224 330 q 221 254 221 267 m 611 1004 l 612 1000 l 462 821 l 325 821 l 444 1004 l 611 1004 z "},"ô":{"ha":696,"x_min":50,"x_max":646,"o":"m 50 250 q 56 361 50 304 q 76 474 62 419 q 115 579 91 530 q 177 666 140 629 q 266 725 214 703 q 387 747 318 747 q 581 681 515 747 q 646 476 646 614 q 640 365 646 422 q 620 253 634 307 q 581 149 605 198 q 519 63 556 100 q 430 5 481 26 q 309 -17 378 -17 q 116 48 181 -17 q 50 250 50 113 m 221 254 q 243 156 221 189 q 314 123 265 123 q 379 146 352 123 q 424 203 406 168 q 452 280 441 238 q 467 361 462 322 q 473 432 472 401 q 475 476 475 463 q 453 573 475 540 q 382 607 431 607 q 317 585 344 607 q 272 527 290 562 q 244 450 254 492 q 229 369 234 408 q 222 299 224 330 q 221 254 221 267 m 505 1004 l 597 817 l 472 817 l 425 913 l 354 817 l 224 817 l 369 1004 l 505 1004 z "},"õ":{"ha":696,"x_min":50,"x_max":673,"o":"m 50 250 q 56 361 50 304 q 76 474 62 419 q 115 579 91 530 q 177 666 140 629 q 266 725 214 703 q 387 747 318 747 q 581 681 515 747 q 646 476 646 614 q 640 365 646 422 q 620 253 634 307 q 581 149 605 198 q 519 63 556 100 q 430 5 481 26 q 309 -17 378 -17 q 116 48 181 -17 q 50 250 50 113 m 221 254 q 243 156 221 189 q 314 123 265 123 q 379 146 352 123 q 424 203 406 168 q 452 280 441 238 q 467 361 462 322 q 473 432 472 401 q 475 476 475 463 q 453 573 475 540 q 382 607 431 607 q 317 585 344 607 q 272 527 290 562 q 244 450 254 492 q 229 369 234 408 q 222 299 224 330 q 221 254 221 267 m 189 835 q 200 892 189 862 q 231 947 211 922 q 280 988 252 972 q 346 1004 309 1004 q 393 996 371 1004 q 436 979 415 988 q 477 961 456 969 q 521 953 498 953 q 558 964 543 953 q 583 1004 574 975 l 673 1004 q 662 946 673 976 q 630 891 650 916 q 579 850 609 866 q 513 835 550 835 q 467 843 488 835 q 424 861 445 851 q 383 878 404 870 q 339 886 362 886 q 302 875 317 886 q 278 835 286 863 l 189 835 z "},"ö":{"ha":696,"x_min":50,"x_max":646,"o":"m 50 250 q 56 361 50 304 q 76 474 62 419 q 115 579 91 530 q 177 666 140 629 q 266 725 214 703 q 387 747 318 747 q 581 681 515 747 q 646 476 646 614 q 640 365 646 422 q 620 253 634 307 q 581 149 605 198 q 519 63 556 100 q 430 5 481 26 q 309 -17 378 -17 q 116 48 181 -17 q 50 250 50 113 m 221 254 q 243 156 221 189 q 314 123 265 123 q 379 146 352 123 q 424 203 406 168 q 452 280 441 238 q 467 361 462 322 q 473 432 472 401 q 475 476 475 463 q 453 573 475 540 q 382 607 431 607 q 317 585 344 607 q 272 527 290 562 q 244 450 254 492 q 229 369 234 408 q 222 299 224 330 q 221 254 221 267 m 629 1004 l 608 852 l 469 852 l 490 1004 l 629 1004 m 386 1004 l 365 852 l 227 852 l 247 1004 l 386 1004 z "},"÷":{"ha":762,"x_min":35,"x_max":725,"o":"m 494 653 l 472 498 l 328 498 l 350 653 l 494 653 m 725 427 l 704 282 l 35 282 l 56 427 l 725 427 m 432 210 l 410 57 l 265 57 l 288 210 l 432 210 z "},"ø":{"ha":696,"x_min":50,"x_max":647,"o":"m 110 54 q 65 136 79 87 q 50 250 50 184 q 56 361 50 304 q 76 474 62 419 q 115 579 91 530 q 177 666 140 629 q 266 725 214 703 q 387 747 318 747 q 455 742 424 747 q 513 725 487 736 l 543 775 l 647 775 l 586 673 q 646 476 646 604 q 640 365 646 422 q 620 253 634 307 q 581 149 605 198 q 519 63 556 100 q 430 5 481 26 q 309 -17 378 -17 q 241 -12 272 -17 q 183 4 210 -6 l 154 -45 l 50 -45 l 110 54 m 433 593 q 410 603 422 600 q 382 607 397 607 q 317 585 344 607 q 272 527 290 562 q 244 450 254 492 q 229 369 234 408 q 222 299 224 330 q 221 254 221 267 l 221 239 l 433 593 m 262 136 q 314 123 283 123 q 379 146 352 123 q 424 203 406 168 q 452 280 441 238 q 467 361 462 322 q 473 432 472 401 q 475 476 475 463 l 475 489 l 262 136 z "},"ù":{"ha":696,"x_min":53,"x_max":664,"o":"m 53 171 q 54 190 53 180 q 57 218 54 199 q 64 271 59 237 q 77 364 68 305 q 97 512 85 423 q 126 730 109 602 l 290 730 q 263 527 274 610 q 244 389 252 444 q 232 302 236 334 q 225 255 228 271 q 223 234 223 239 q 222 227 222 229 q 241 157 222 178 q 302 135 260 135 q 349 145 327 135 q 390 175 372 155 q 421 224 408 195 q 439 292 433 254 l 498 730 l 664 730 l 562 0 l 427 0 l 427 94 q 390 51 410 71 q 346 15 370 31 q 293 -8 321 0 q 229 -17 264 -17 q 97 33 142 -17 q 53 171 53 83 m 242 1004 l 409 1004 l 502 821 l 364 821 l 239 1000 l 242 1004 z "},"ú":{"ha":696,"x_min":53,"x_max":664,"o":"m 53 171 q 54 190 53 180 q 57 218 54 199 q 64 271 59 237 q 77 364 68 305 q 97 512 85 423 q 126 730 109 602 l 290 730 q 263 527 274 610 q 244 389 252 444 q 232 302 236 334 q 225 255 228 271 q 223 234 223 239 q 222 227 222 229 q 241 157 222 178 q 302 135 260 135 q 349 145 327 135 q 390 175 372 155 q 421 224 408 195 q 439 292 433 254 l 498 730 l 664 730 l 562 0 l 427 0 l 427 94 q 390 51 410 71 q 346 15 370 31 q 293 -8 321 0 q 229 -17 264 -17 q 97 33 142 -17 q 53 171 53 83 m 606 1004 l 607 1000 l 456 821 l 319 821 l 439 1004 l 606 1004 z "},"û":{"ha":696,"x_min":53,"x_max":664,"o":"m 53 171 q 54 190 53 180 q 57 218 54 199 q 64 271 59 237 q 77 364 68 305 q 97 512 85 423 q 126 730 109 602 l 290 730 q 263 527 274 610 q 244 389 252 444 q 232 302 236 334 q 225 255 228 271 q 223 234 223 239 q 222 227 222 229 q 241 157 222 178 q 302 135 260 135 q 349 145 327 135 q 390 175 372 155 q 421 224 408 195 q 439 292 433 254 l 498 730 l 664 730 l 562 0 l 427 0 l 427 94 q 390 51 410 71 q 346 15 370 31 q 293 -8 321 0 q 229 -17 264 -17 q 97 33 142 -17 q 53 171 53 83 m 500 1004 l 591 817 l 467 817 l 419 913 l 349 817 l 219 817 l 363 1004 l 500 1004 z "},"ü":{"ha":696,"x_min":53,"x_max":664,"o":"m 53 171 q 54 190 53 180 q 57 218 54 199 q 64 271 59 237 q 77 364 68 305 q 97 512 85 423 q 126 730 109 602 l 290 730 q 263 527 274 610 q 244 389 252 444 q 232 302 236 334 q 225 255 228 271 q 223 234 223 239 q 222 227 222 229 q 241 157 222 178 q 302 135 260 135 q 349 145 327 135 q 390 175 372 155 q 421 224 408 195 q 439 292 433 254 l 498 730 l 664 730 l 562 0 l 427 0 l 427 94 q 390 51 410 71 q 346 15 370 31 q 293 -8 321 0 q 229 -17 264 -17 q 97 33 142 -17 q 53 171 53 83 m 623 1004 l 603 852 l 464 852 l 484 1004 l 623 1004 m 380 1004 l 359 852 l 222 852 l 241 1004 l 380 1004 z "},"ý":{"ha":633,"x_min":-9,"x_max":684,"o":"m 81 -113 q 150 -86 116 -113 q 207 0 184 -60 l 68 730 l 235 730 l 296 387 q 303 334 299 366 q 309 271 307 302 q 315 197 312 235 l 321 197 q 342 268 331 233 q 362 330 351 298 q 382 386 372 362 l 519 730 l 684 730 l 390 37 q 335 -75 364 -22 q 269 -167 305 -127 q 190 -230 233 -207 q 94 -253 146 -253 q 17 -247 44 -253 q -9 -240 -9 -241 l 5 -113 l 81 -113 m 591 1004 l 592 1000 l 441 821 l 304 821 l 424 1004 l 591 1004 z "},"þ":{"ha":696,"x_min":0,"x_max":650,"o":"m 0 -239 l 171 1004 l 336 1004 l 288 654 q 365 725 323 703 q 452 747 407 747 q 598 683 546 747 q 650 489 650 618 q 625 261 650 357 q 561 104 601 165 q 469 13 520 42 q 364 -17 418 -17 q 268 8 305 -17 q 208 79 230 33 l 164 -239 l 0 -239 m 239 261 q 259 168 239 200 q 329 135 280 135 q 387 153 362 135 q 428 200 411 171 q 455 267 445 230 q 472 341 466 303 q 480 413 478 378 q 482 472 482 448 q 463 565 482 533 q 395 596 443 596 q 338 578 362 596 q 296 532 313 561 q 268 467 279 503 q 250 394 256 431 q 241 322 243 357 q 239 261 239 287 z "},"ÿ":{"ha":633,"x_min":-9,"x_max":684,"o":"m 81 -113 q 150 -86 116 -113 q 207 0 184 -60 l 68 730 l 235 730 l 296 387 q 303 334 299 366 q 309 271 307 302 q 315 197 312 235 l 321 197 q 342 268 331 233 q 362 330 351 298 q 382 386 372 362 l 519 730 l 684 730 l 390 37 q 335 -75 364 -22 q 269 -167 305 -127 q 190 -230 233 -207 q 94 -253 146 -253 q 17 -247 44 -253 q -9 -240 -9 -241 l 5 -113 l 81 -113 m 608 1004 l 588 852 l 449 852 l 469 1004 l 608 1004 m 366 1004 l 345 852 l 207 852 l 227 1004 l 366 1004 z "},"Ǽ":{"ha":1139,"x_min":-72,"x_max":1154,"o":"m 802 1226 l 803 1222 l 653 1043 l 515 1043 l 635 1226 l 802 1226 m 279 346 l 519 346 l 479 791 l 473 791 q 454 724 464 758 q 433 664 445 696 q 410 607 422 632 l 279 346 m 551 0 l 534 187 l 201 187 l 109 0 l -72 0 l 421 953 l 1154 953 l 1132 794 l 650 794 l 673 567 l 1040 567 l 1018 408 l 689 408 l 714 158 l 1051 158 l 1029 0 l 551 0 z "},"Ă":{"ha":822,"x_min":-36,"x_max":775,"o":"m 604 953 l 775 0 l 595 0 l 564 187 l 224 187 l 142 0 l -36 0 l 400 953 l 604 953 m 496 607 q 489 666 492 634 q 484 726 486 698 q 479 791 481 759 l 473 791 q 453 724 464 757 q 432 664 444 696 q 410 607 421 633 l 294 346 l 538 346 l 496 607 m 524 1078 q 450 1090 482 1078 q 396 1120 418 1101 q 363 1163 374 1139 q 351 1211 351 1187 l 351 1219 q 353 1227 351 1223 l 456 1227 q 461 1211 456 1219 q 476 1196 467 1203 q 500 1185 486 1190 q 531 1181 513 1181 q 564 1185 549 1181 q 591 1196 579 1190 q 611 1211 604 1203 q 621 1227 619 1219 l 724 1227 q 704 1174 720 1200 q 662 1126 688 1147 q 600 1092 635 1105 q 524 1078 565 1078 z "},"Ā":{"ha":822,"x_min":-36,"x_max":775,"o":"m 604 953 l 775 0 l 595 0 l 564 187 l 224 187 l 142 0 l -36 0 l 400 953 l 604 953 m 496 607 q 489 666 492 634 q 484 726 486 698 q 479 791 481 759 l 473 791 q 453 724 464 757 q 432 664 444 696 q 410 607 421 633 l 294 346 l 538 346 l 496 607 m 707 1175 l 688 1055 l 334 1055 l 353 1175 l 707 1175 z "},"Ą":{"ha":822,"x_min":-36,"x_max":803,"o":"m 576 -157 q 583 -106 576 -129 q 601 -64 589 -83 q 626 -30 612 -45 q 656 0 641 -14 l 595 0 l 564 187 l 224 187 l 142 0 l -36 0 l 400 953 l 604 953 l 775 0 q 757 -20 767 -8 q 738 -47 747 -33 q 724 -79 730 -62 q 718 -113 718 -96 q 730 -152 718 -136 q 772 -168 743 -168 l 803 -168 l 791 -244 q 743 -259 766 -254 q 697 -264 720 -264 q 654 -259 675 -264 q 615 -241 632 -254 q 587 -208 597 -229 q 576 -157 576 -187 m 496 607 q 489 666 492 634 q 484 726 486 698 q 479 791 481 759 l 473 791 q 453 724 464 757 q 432 664 444 696 q 410 607 421 633 l 294 346 l 538 346 l 496 607 z "},"Ǻ":{"ha":822,"x_min":-36,"x_max":775,"o":"m 732 1329 l 733 1324 l 604 1178 l 467 1178 l 565 1329 l 732 1329 m 512 947 q 536 951 525 947 q 557 965 548 956 q 571 985 566 973 q 576 1010 576 996 q 571 1034 576 1023 q 557 1054 566 1046 q 536 1067 548 1063 q 512 1072 525 1072 q 466 1054 484 1072 q 448 1010 448 1036 q 466 965 448 983 q 512 947 484 947 m 496 607 q 489 666 492 634 q 484 726 486 698 q 479 791 481 759 l 473 791 q 453 724 464 757 q 432 664 444 696 q 410 607 421 633 l 294 346 l 538 346 l 496 607 m 645 1010 q 635 962 645 984 q 610 922 626 939 l 775 0 l 595 0 l 564 187 l 224 187 l 142 0 l -36 0 l 396 945 q 383 975 388 959 q 378 1010 378 991 q 389 1060 378 1036 q 417 1101 399 1084 q 460 1129 435 1119 q 512 1139 484 1139 q 564 1129 540 1139 q 607 1101 589 1118 q 635 1060 625 1083 q 645 1010 645 1036 z "},"Ć":{"ha":822,"x_min":62,"x_max":818,"o":"m 62 347 q 72 495 62 420 q 103 639 82 570 q 158 768 125 708 q 239 873 192 829 q 349 944 287 918 q 490 970 412 970 q 626 948 566 970 q 729 882 686 926 q 795 771 772 838 q 818 616 818 705 l 818 599 l 637 599 l 637 624 q 598 767 637 717 q 490 817 559 817 q 401 794 439 817 q 336 736 363 772 q 290 652 308 699 q 261 553 272 604 q 246 450 250 501 q 241 354 241 398 q 280 193 241 250 q 399 136 318 136 q 481 154 446 136 q 543 201 517 171 q 586 270 569 231 q 612 353 603 309 l 786 353 q 739 211 770 278 q 659 93 707 144 q 545 13 611 43 q 395 -17 479 -17 q 254 5 316 -17 q 150 72 193 27 q 85 186 107 117 q 62 347 62 254 m 718 1227 l 719 1223 l 568 1043 l 431 1043 l 551 1227 l 718 1227 z "},"Č":{"ha":822,"x_min":62,"x_max":818,"o":"m 62 347 q 72 495 62 420 q 103 639 82 570 q 158 768 125 708 q 239 873 192 829 q 349 944 287 918 q 490 970 412 970 q 626 948 566 970 q 729 882 686 926 q 795 771 772 838 q 818 616 818 705 l 818 599 l 637 599 l 637 624 q 598 767 637 717 q 490 817 559 817 q 401 794 439 817 q 336 736 363 772 q 290 652 308 699 q 261 553 272 604 q 246 450 250 501 q 241 354 241 398 q 280 193 241 250 q 399 136 318 136 q 481 154 446 136 q 543 201 517 171 q 586 270 569 231 q 612 353 603 309 l 786 353 q 739 211 770 278 q 659 93 707 144 q 545 13 611 43 q 395 -17 479 -17 q 254 5 316 -17 q 150 72 193 27 q 85 186 107 117 q 62 347 62 254 m 481 1227 l 529 1131 l 599 1227 l 729 1227 l 585 1039 l 449 1039 l 355 1227 l 481 1227 z "},"Ĉ":{"ha":822,"x_min":62,"x_max":818,"o":"m 62 347 q 72 495 62 420 q 103 639 82 570 q 158 768 125 708 q 239 873 192 829 q 349 944 287 918 q 490 970 412 970 q 626 948 566 970 q 729 882 686 926 q 795 771 772 838 q 818 616 818 705 l 818 599 l 637 599 l 637 624 q 598 767 637 717 q 490 817 559 817 q 401 794 439 817 q 336 736 363 772 q 290 652 308 699 q 261 553 272 604 q 246 450 250 501 q 241 354 241 398 q 280 193 241 250 q 399 136 318 136 q 481 154 446 136 q 543 201 517 171 q 586 270 569 231 q 612 353 603 309 l 786 353 q 739 211 770 278 q 659 93 707 144 q 545 13 611 43 q 395 -17 479 -17 q 254 5 316 -17 q 150 72 193 27 q 85 186 107 117 q 62 347 62 254 m 612 1227 l 703 1039 l 578 1039 l 531 1135 l 460 1039 l 331 1039 l 475 1227 l 612 1227 z "},"Ċ":{"ha":822,"x_min":62,"x_max":818,"o":"m 62 347 q 72 495 62 420 q 103 639 82 570 q 158 768 125 708 q 239 873 192 829 q 349 944 287 918 q 490 970 412 970 q 626 948 566 970 q 729 882 686 926 q 795 771 772 838 q 818 616 818 705 l 818 599 l 637 599 l 637 624 q 598 767 637 717 q 490 817 559 817 q 401 794 439 817 q 336 736 363 772 q 290 652 308 699 q 261 553 272 604 q 246 450 250 501 q 241 354 241 398 q 280 193 241 250 q 399 136 318 136 q 481 154 446 136 q 543 201 517 171 q 586 270 569 231 q 612 353 603 309 l 786 353 q 739 211 770 278 q 659 93 707 144 q 545 13 611 43 q 395 -17 479 -17 q 254 5 316 -17 q 150 72 193 27 q 85 186 107 117 q 62 347 62 254 m 619 1227 l 595 1067 l 447 1067 l 470 1227 l 619 1227 z "},"Ď":{"ha":822,"x_min":39,"x_max":800,"o":"m 473 1226 l 522 1131 l 591 1226 l 722 1226 l 578 1039 l 441 1039 l 349 1226 l 473 1226 m 39 0 l 172 953 l 465 953 q 607 930 545 953 q 712 862 669 907 q 778 749 755 817 q 800 591 800 682 q 790 458 800 527 q 758 323 780 389 q 702 199 736 258 q 619 96 667 140 q 508 26 571 52 q 367 0 446 0 l 39 0 m 326 794 l 237 158 l 351 158 q 445 178 404 158 q 515 230 486 197 q 566 306 545 263 q 598 396 586 349 q 615 490 610 443 q 621 579 621 537 q 573 741 621 687 q 440 794 525 794 l 326 794 z "},"Đ":{"ha":822,"x_min":32,"x_max":800,"o":"m 39 0 l 98 433 l 32 433 l 47 551 l 115 551 l 172 953 l 465 953 q 607 930 545 953 q 712 862 669 907 q 778 749 755 817 q 800 591 800 682 q 790 458 800 527 q 758 323 780 389 q 702 199 736 258 q 619 96 667 140 q 508 26 571 52 q 367 0 446 0 l 39 0 m 326 794 l 292 551 l 464 551 l 447 433 l 275 433 l 237 158 l 351 158 q 445 178 404 158 q 515 230 486 197 q 566 306 545 263 q 598 396 586 349 q 615 490 610 443 q 621 579 621 537 q 573 741 621 687 q 440 794 525 794 l 326 794 z "},"Ĕ":{"ha":760,"x_min":39,"x_max":772,"o":"m 503 1078 q 430 1089 462 1078 q 375 1120 397 1101 q 342 1163 353 1139 q 330 1211 330 1187 q 330 1219 330 1215 q 332 1226 330 1222 l 435 1226 q 440 1211 435 1219 q 455 1196 446 1203 q 479 1185 465 1190 q 510 1181 492 1181 q 543 1185 528 1181 q 571 1196 559 1190 q 590 1211 583 1203 q 600 1226 598 1219 l 703 1226 q 683 1174 699 1200 q 641 1126 667 1147 q 579 1091 614 1105 q 503 1078 544 1078 m 39 0 l 172 953 l 772 953 l 750 794 l 326 794 l 294 567 l 659 567 l 636 408 l 272 408 l 236 158 l 669 158 l 647 0 l 39 0 z "},"Ě":{"ha":760,"x_min":39,"x_max":772,"o":"m 454 1226 l 503 1131 l 572 1226 l 703 1226 l 558 1039 l 422 1039 l 329 1226 l 454 1226 m 39 0 l 172 953 l 772 953 l 750 794 l 326 794 l 294 567 l 659 567 l 636 408 l 272 408 l 236 158 l 669 158 l 647 0 l 39 0 z "},"Ė":{"ha":760,"x_min":39,"x_max":772,"o":"m 591 1226 l 568 1067 l 419 1067 l 443 1226 l 591 1226 m 39 0 l 172 953 l 772 953 l 750 794 l 326 794 l 294 567 l 659 567 l 636 408 l 272 408 l 236 158 l 669 158 l 647 0 l 39 0 z "},"Ē":{"ha":760,"x_min":39,"x_max":772,"o":"m 686 1175 l 668 1054 l 314 1054 l 332 1175 l 686 1175 m 39 0 l 172 953 l 772 953 l 750 794 l 326 794 l 294 567 l 659 567 l 636 408 l 272 408 l 236 158 l 669 158 l 647 0 l 39 0 z "},"Ŋ":{"ha":839,"x_min":39,"x_max":821,"o":"m 444 -113 q 495 -96 477 -113 q 518 -46 513 -79 l 526 9 l 313 525 q 304 547 309 532 q 294 576 300 562 q 282 614 288 594 l 277 610 q 274 579 275 594 q 271 553 273 566 q 268 530 269 540 l 195 0 l 39 0 l 172 953 l 328 953 l 546 428 q 554 404 549 418 q 565 374 559 389 q 576 339 570 357 l 581 343 q 584 377 582 361 q 587 404 585 391 q 590 422 589 416 l 664 953 l 821 953 l 679 -57 q 661 -129 673 -94 q 627 -191 649 -163 q 570 -236 604 -219 q 488 -253 536 -253 q 455 -252 472 -253 q 422 -248 438 -250 q 392 -242 406 -245 q 368 -236 378 -239 l 385 -113 l 444 -113 z "},"Ę":{"ha":760,"x_min":39,"x_max":772,"o":"m 449 -157 q 455 -106 449 -130 q 473 -64 462 -83 q 498 -30 484 -45 q 529 0 513 -14 l 39 0 l 172 953 l 772 953 l 750 794 l 326 794 l 294 567 l 659 567 l 636 408 l 272 408 l 236 158 l 669 158 l 647 0 q 629 -21 639 -8 q 610 -48 619 -33 q 596 -79 602 -62 q 590 -113 590 -96 q 603 -152 590 -136 q 644 -168 615 -168 l 675 -168 l 664 -244 q 616 -259 639 -254 q 570 -264 593 -264 q 526 -259 548 -264 q 487 -241 505 -254 q 459 -208 470 -229 q 449 -157 449 -187 z "},"Ğ":{"ha":886,"x_min":62,"x_max":851,"o":"m 62 347 q 73 490 62 417 q 105 633 83 564 q 163 763 127 702 q 248 870 198 825 q 362 943 297 916 q 510 970 428 970 q 652 948 589 970 q 759 884 715 927 q 827 774 804 840 q 851 621 851 709 l 671 621 l 671 633 q 629 770 671 724 q 517 817 588 817 q 418 794 460 817 q 346 736 376 772 q 295 652 315 699 q 263 553 275 604 q 246 450 251 501 q 241 354 241 398 q 282 194 241 251 q 412 136 323 136 q 500 153 462 136 q 566 199 538 170 q 612 272 594 229 q 637 366 629 314 l 425 366 l 447 518 l 839 518 l 766 0 l 653 0 l 636 106 q 523 16 588 49 q 374 -17 458 -17 q 242 5 300 -17 q 144 72 184 27 q 83 186 104 117 q 62 347 62 254 m 536 1078 q 463 1090 494 1078 q 409 1120 431 1101 q 375 1163 387 1139 q 363 1211 363 1187 l 363 1219 q 365 1227 363 1223 l 468 1227 q 474 1211 469 1219 q 489 1196 479 1203 q 512 1185 498 1190 q 543 1181 526 1181 q 576 1185 561 1181 q 604 1196 591 1190 q 624 1211 616 1203 q 633 1227 631 1219 l 736 1227 q 716 1174 732 1200 q 674 1126 700 1147 q 612 1092 648 1105 q 536 1078 577 1078 z "},"Ĝ":{"ha":886,"x_min":62,"x_max":851,"o":"m 62 347 q 73 490 62 417 q 105 633 83 564 q 163 763 127 702 q 248 870 198 825 q 362 943 297 916 q 510 970 428 970 q 652 948 589 970 q 759 884 715 927 q 827 774 804 840 q 851 621 851 709 l 671 621 l 671 633 q 629 770 671 724 q 517 817 588 817 q 418 794 460 817 q 346 736 376 772 q 295 652 315 699 q 263 553 275 604 q 246 450 251 501 q 241 354 241 398 q 282 194 241 251 q 412 136 323 136 q 500 153 462 136 q 566 199 538 170 q 612 272 594 229 q 637 366 629 314 l 425 366 l 447 518 l 839 518 l 766 0 l 653 0 l 636 106 q 523 16 588 49 q 374 -17 458 -17 q 242 5 300 -17 q 144 72 184 27 q 83 186 104 117 q 62 347 62 254 m 618 1227 l 709 1039 l 585 1039 l 537 1135 l 467 1039 l 337 1039 l 481 1227 l 618 1227 z "},"Ģ":{"ha":886,"x_min":62,"x_max":851,"o":"m 62 347 q 73 490 62 417 q 105 633 83 564 q 163 763 127 702 q 248 870 198 825 q 362 943 297 916 q 510 970 428 970 q 652 948 589 970 q 759 884 715 927 q 827 774 804 840 q 851 621 851 709 l 671 621 l 671 633 q 629 770 671 724 q 517 817 588 817 q 418 794 460 817 q 346 736 376 772 q 295 652 315 699 q 263 553 275 604 q 246 450 251 501 q 241 354 241 398 q 282 194 241 251 q 412 136 323 136 q 500 153 462 136 q 566 199 538 170 q 612 272 594 229 q 637 366 629 314 l 425 366 l 447 518 l 839 518 l 766 0 l 653 0 l 636 106 q 523 16 588 49 q 374 -17 458 -17 q 242 5 300 -17 q 144 72 184 27 q 83 186 104 117 q 62 347 62 254 m 432 -232 l 348 -365 l 258 -365 l 321 -248 l 258 -248 l 282 -77 l 454 -77 l 432 -232 z "},"Ġ":{"ha":886,"x_min":62,"x_max":851,"o":"m 62 347 q 73 490 62 417 q 105 633 83 564 q 163 763 127 702 q 248 870 198 825 q 362 943 297 916 q 510 970 428 970 q 652 948 589 970 q 759 884 715 927 q 827 774 804 840 q 851 621 851 709 l 671 621 l 671 633 q 629 770 671 724 q 517 817 588 817 q 418 794 460 817 q 346 736 376 772 q 295 652 315 699 q 263 553 275 604 q 246 450 251 501 q 241 354 241 398 q 282 194 241 251 q 412 136 323 136 q 500 153 462 136 q 566 199 538 170 q 612 272 594 229 q 637 366 629 314 l 425 366 l 447 518 l 839 518 l 766 0 l 653 0 l 636 106 q 523 16 588 49 q 374 -17 458 -17 q 242 5 300 -17 q 144 72 184 27 q 83 186 104 117 q 62 347 62 254 m 625 1227 l 602 1067 l 453 1067 l 476 1227 l 625 1227 z "},"Ħ":{"ha":822,"x_min":39,"x_max":868,"o":"m 349 953 l 328 802 l 624 802 l 644 953 l 821 953 l 799 802 l 868 802 l 848 681 l 782 681 l 688 0 l 511 0 l 568 397 l 271 397 l 215 0 l 39 0 l 134 681 l 65 681 l 83 802 l 151 802 l 172 953 l 349 953 m 590 555 l 607 681 l 310 681 l 293 555 l 590 555 z "},"Ĥ":{"ha":822,"x_min":39,"x_max":821,"o":"m 606 1226 l 697 1039 l 572 1039 l 525 1135 l 454 1039 l 325 1039 l 469 1226 l 606 1226 m 570 408 l 272 408 l 215 0 l 39 0 l 172 953 l 349 953 l 294 567 l 591 567 l 644 953 l 821 953 l 688 0 l 511 0 l 570 408 z "},"Ĳ":{"ha":950,"x_min":25,"x_max":951,"o":"m 335 953 l 201 0 l 25 0 l 158 953 l 335 953 m 501 300 q 496 260 498 275 q 493 237 494 245 q 492 225 492 229 q 492 220 492 222 q 513 158 492 179 q 578 136 535 136 q 644 163 621 136 q 675 240 667 190 l 775 953 l 951 953 l 848 227 q 763 45 832 106 q 578 -17 693 -17 q 386 33 453 -17 q 319 179 319 83 q 320 192 319 185 q 322 211 320 199 q 326 245 323 224 q 334 300 329 266 l 501 300 z "},"Ĭ":{"ha":317,"x_min":25,"x_max":471,"o":"m 335 953 l 201 0 l 25 0 l 158 953 l 335 953 m 271 1078 q 198 1090 230 1078 q 144 1120 166 1101 q 111 1163 122 1139 q 99 1211 99 1187 l 99 1219 q 100 1227 99 1223 l 203 1227 q 209 1211 204 1219 q 224 1196 214 1203 q 248 1185 234 1190 q 279 1181 261 1181 q 312 1185 296 1181 q 339 1196 327 1190 q 359 1211 351 1203 q 369 1227 367 1219 l 471 1227 q 452 1174 468 1200 q 409 1126 435 1147 q 348 1092 383 1105 q 271 1078 313 1078 z "},"İ":{"ha":317,"x_min":25,"x_max":361,"o":"m 335 953 l 201 0 l 25 0 l 158 953 l 335 953 m 361 1227 l 337 1067 l 189 1067 l 212 1227 l 361 1227 z "},"Ī":{"ha":317,"x_min":25,"x_max":454,"o":"m 335 953 l 201 0 l 25 0 l 158 953 l 335 953 m 454 1175 l 436 1055 l 82 1055 l 100 1175 l 454 1175 z "},"Į":{"ha":317,"x_min":3,"x_max":335,"o":"m 3 -157 q 9 -106 3 -129 q 27 -64 16 -83 q 53 -30 38 -45 q 83 0 67 -14 l 25 0 l 158 953 l 335 953 l 201 0 q 183 -20 193 -8 q 164 -47 173 -33 q 150 -79 156 -62 q 144 -113 144 -96 q 157 -152 144 -136 q 199 -168 169 -168 l 229 -168 l 218 -244 q 170 -259 193 -254 q 123 -264 146 -264 q 80 -259 102 -264 q 41 -241 58 -254 q 13 -208 24 -229 q 3 -157 3 -187 z "},"Ĩ":{"ha":317,"x_min":25,"x_max":521,"o":"m 335 953 l 201 0 l 25 0 l 158 953 l 335 953 m 37 1057 q 48 1115 37 1084 q 79 1170 59 1145 q 129 1211 100 1194 q 194 1227 157 1227 q 241 1219 219 1227 q 284 1201 263 1211 q 325 1183 304 1192 q 369 1175 346 1175 q 406 1186 391 1175 q 431 1227 422 1197 l 521 1227 q 510 1168 521 1198 q 478 1113 498 1138 q 428 1073 457 1088 q 361 1057 398 1057 q 315 1065 336 1057 q 272 1083 293 1074 q 231 1101 252 1093 q 187 1109 210 1109 q 150 1097 165 1109 q 126 1057 134 1086 l 37 1057 z "},"Ĵ":{"ha":633,"x_min":3,"x_max":757,"o":"m 665 1226 l 757 1039 l 632 1039 l 585 1135 l 514 1039 l 385 1039 l 529 1226 l 665 1226 m 184 300 q 179 260 181 275 q 176 237 177 245 q 175 225 175 229 q 175 220 175 222 q 197 158 175 179 q 261 136 218 136 q 327 163 304 136 q 358 240 351 190 l 458 953 l 635 953 l 532 227 q 446 45 515 106 q 261 -17 376 -17 q 70 33 136 -17 q 3 179 3 83 q 3 192 3 185 q 5 211 3 199 q 9 245 7 224 q 17 300 12 266 l 184 300 z "},"Ķ":{"ha":822,"x_min":39,"x_max":892,"o":"m 418 -232 l 334 -366 l 243 -366 l 307 -248 l 244 -248 l 268 -77 l 440 -77 l 418 -232 m 283 484 l 684 953 l 892 953 l 554 562 l 766 0 l 572 0 l 422 427 l 250 243 l 216 0 l 39 0 l 172 953 l 350 953 l 283 484 z "},"Ĺ":{"ha":696,"x_min":39,"x_max":637,"o":"m 463 1226 l 464 1222 l 314 1043 l 176 1043 l 296 1226 l 463 1226 m 172 953 l 349 953 l 239 167 l 637 167 l 614 0 l 39 0 l 172 953 z "},"Ľ":{"ha":696,"x_min":39,"x_max":679,"o":"m 461 762 l 488 953 l 679 953 l 656 779 l 530 546 l 431 546 l 532 762 l 461 762 m 172 953 l 349 953 l 239 167 l 637 167 l 614 0 l 39 0 l 172 953 z "},"Ļ":{"ha":696,"x_min":39,"x_max":637,"o":"m 418 -232 l 334 -366 l 243 -366 l 307 -248 l 244 -248 l 268 -77 l 440 -77 l 418 -232 m 172 953 l 349 953 l 239 167 l 637 167 l 614 0 l 39 0 l 172 953 z "},"Ŀ":{"ha":696,"x_min":39,"x_max":637,"o":"m 633 730 l 608 571 l 461 571 l 484 730 l 633 730 m 172 953 l 349 953 l 239 167 l 637 167 l 614 0 l 39 0 l 172 953 z "},"Ł":{"ha":696,"x_min":-14,"x_max":637,"o":"m 349 953 l 304 637 l 482 778 l 463 628 l 283 488 l 239 167 l 637 167 l 614 0 l 39 0 l 86 334 l -14 256 l 4 403 l 107 482 l 172 953 l 349 953 z "},"Ń":{"ha":822,"x_min":39,"x_max":821,"o":"m 711 1226 l 713 1222 l 562 1043 l 425 1043 l 545 1226 l 711 1226 m 530 0 l 313 525 q 304 547 309 532 q 294 576 300 562 q 282 614 288 594 l 277 610 q 274 579 275 594 q 271 553 273 566 q 268 530 269 540 l 195 0 l 39 0 l 172 953 l 328 953 l 546 428 q 554 404 549 418 q 565 374 559 389 q 576 339 570 357 l 581 343 q 584 377 582 361 q 587 404 585 391 q 590 422 589 416 l 664 953 l 821 953 l 688 0 l 530 0 z "},"Ň":{"ha":822,"x_min":39,"x_max":821,"o":"m 473 1226 l 522 1131 l 591 1226 l 722 1226 l 578 1039 l 441 1039 l 349 1226 l 473 1226 m 530 0 l 313 525 q 304 547 309 532 q 294 576 300 562 q 282 614 288 594 l 277 610 q 274 579 275 594 q 271 553 273 566 q 268 530 269 540 l 195 0 l 39 0 l 172 953 l 328 953 l 546 428 q 554 404 549 418 q 565 374 559 389 q 576 339 570 357 l 581 343 q 584 377 582 361 q 587 404 585 391 q 590 422 589 416 l 664 953 l 821 953 l 688 0 l 530 0 z "},"Ņ":{"ha":822,"x_min":39,"x_max":821,"o":"m 418 -232 l 334 -366 l 243 -366 l 307 -248 l 244 -248 l 268 -77 l 440 -77 l 418 -232 m 530 0 l 313 525 q 304 547 309 532 q 294 576 300 562 q 282 614 288 594 l 277 610 q 274 579 275 594 q 271 553 273 566 q 268 530 269 540 l 195 0 l 39 0 l 172 953 l 328 953 l 546 428 q 554 404 549 418 q 565 374 559 389 q 576 339 570 357 l 581 343 q 584 377 582 361 q 587 404 585 391 q 590 422 589 416 l 664 953 l 821 953 l 688 0 l 530 0 z "},"Ŏ":{"ha":886,"x_min":62,"x_max":865,"o":"m 62 347 q 73 490 62 417 q 105 633 83 564 q 163 763 127 702 q 248 870 198 825 q 363 943 298 916 q 511 970 429 970 q 660 947 595 970 q 771 880 726 925 q 841 766 817 835 q 865 604 865 697 q 855 461 865 534 q 822 319 844 388 q 764 189 800 250 q 678 82 728 127 q 563 9 628 36 q 415 -17 497 -17 q 266 5 332 -17 q 156 72 201 27 q 86 186 111 117 q 62 347 62 254 m 241 354 q 282 194 241 251 q 408 136 323 136 q 506 158 464 136 q 579 217 549 180 q 631 301 610 253 q 663 400 651 349 q 680 502 675 451 q 685 597 685 553 q 644 759 685 701 q 518 817 602 817 q 419 794 462 817 q 346 736 377 772 q 295 652 315 699 q 263 553 275 604 q 246 450 251 501 q 241 354 241 398 m 557 1078 q 484 1090 515 1078 q 430 1120 452 1101 q 396 1163 408 1139 q 385 1211 385 1187 l 385 1219 q 386 1227 385 1223 l 489 1227 q 495 1211 490 1219 q 510 1196 500 1203 q 533 1185 519 1190 q 564 1181 547 1181 q 597 1185 582 1181 q 625 1196 612 1190 q 645 1211 637 1203 q 654 1227 652 1219 l 757 1227 q 737 1174 753 1200 q 695 1126 721 1147 q 633 1092 669 1105 q 557 1078 598 1078 z "},"Ő":{"ha":886,"x_min":62,"x_max":865,"o":"m 62 347 q 73 490 62 417 q 105 633 83 564 q 163 763 127 702 q 248 870 198 825 q 363 943 298 916 q 511 970 429 970 q 660 947 595 970 q 771 880 726 925 q 841 766 817 835 q 865 604 865 697 q 855 461 865 534 q 822 319 844 388 q 764 189 800 250 q 678 82 728 127 q 563 9 628 36 q 415 -17 497 -17 q 266 5 332 -17 q 156 72 201 27 q 86 186 111 117 q 62 347 62 254 m 241 354 q 282 194 241 251 q 408 136 323 136 q 506 158 464 136 q 579 217 549 180 q 631 301 610 253 q 663 400 651 349 q 680 502 675 451 q 685 597 685 553 q 644 759 685 701 q 518 817 602 817 q 419 794 462 817 q 346 736 377 772 q 295 652 315 699 q 263 553 275 604 q 246 450 251 501 q 241 354 241 398 m 798 1227 l 800 1223 l 683 1043 l 573 1043 l 659 1227 l 798 1227 m 604 1227 l 605 1223 l 488 1043 l 378 1043 l 465 1227 l 604 1227 z "},"Ō":{"ha":886,"x_min":62,"x_max":865,"o":"m 62 347 q 73 490 62 417 q 105 633 83 564 q 163 763 127 702 q 248 870 198 825 q 363 943 298 916 q 511 970 429 970 q 660 947 595 970 q 771 880 726 925 q 841 766 817 835 q 865 604 865 697 q 855 461 865 534 q 822 319 844 388 q 764 189 800 250 q 678 82 728 127 q 563 9 628 36 q 415 -17 497 -17 q 266 5 332 -17 q 156 72 201 27 q 86 186 111 117 q 62 347 62 254 m 241 354 q 282 194 241 251 q 408 136 323 136 q 506 158 464 136 q 579 217 549 180 q 631 301 610 253 q 663 400 651 349 q 680 502 675 451 q 685 597 685 553 q 644 759 685 701 q 518 817 602 817 q 419 794 462 817 q 346 736 377 772 q 295 652 315 699 q 263 553 275 604 q 246 450 251 501 q 241 354 241 398 m 740 1175 l 722 1055 l 368 1055 l 386 1175 l 740 1175 z "},"Ǿ":{"ha":886,"x_min":62,"x_max":865,"o":"m 147 81 q 62 347 62 172 q 73 490 62 417 q 105 633 83 564 q 163 763 127 702 q 248 870 198 825 q 363 943 298 916 q 511 970 429 970 q 614 960 566 970 q 700 930 661 950 l 749 1004 l 865 1004 l 779 872 q 843 760 821 826 q 865 604 865 693 q 855 461 865 534 q 822 319 844 388 q 764 189 800 250 q 678 82 728 127 q 563 9 628 36 q 415 -17 497 -17 q 313 -7 360 -17 q 227 22 267 3 l 179 -52 l 62 -52 l 147 81 m 610 791 q 569 810 592 804 q 518 817 545 817 q 419 794 462 817 q 346 736 377 772 q 295 652 315 699 q 263 553 275 604 q 246 450 251 501 q 241 354 241 398 q 245 296 241 323 q 256 245 248 269 l 610 791 m 317 160 q 408 136 353 136 q 506 158 464 136 q 579 217 549 180 q 631 301 610 253 q 663 400 651 349 q 680 502 675 451 q 685 597 685 553 q 681 654 685 628 q 669 704 677 681 l 317 160 m 745 1227 l 746 1223 l 595 1043 l 458 1043 l 578 1227 l 745 1227 z "},"Ŕ":{"ha":822,"x_min":39,"x_max":819,"o":"m 711 1226 l 713 1222 l 562 1043 l 425 1043 l 545 1226 l 711 1226 m 746 0 l 555 0 l 444 397 l 269 397 l 215 0 l 39 0 l 172 953 l 546 953 q 666 936 615 953 q 752 888 718 919 q 803 813 786 857 q 819 718 819 770 q 805 621 819 667 q 765 539 791 576 q 702 475 739 502 q 618 432 665 448 l 746 0 m 326 794 l 292 554 l 479 554 q 589 591 549 554 q 629 693 629 628 q 603 767 629 740 q 519 794 577 794 l 326 794 z "},"Ř":{"ha":822,"x_min":39,"x_max":819,"o":"m 473 1226 l 522 1131 l 591 1226 l 722 1226 l 578 1039 l 441 1039 l 349 1226 l 473 1226 m 746 0 l 555 0 l 444 397 l 269 397 l 215 0 l 39 0 l 172 953 l 546 953 q 666 936 615 953 q 752 888 718 919 q 803 813 786 857 q 819 718 819 770 q 805 621 819 667 q 765 539 791 576 q 702 475 739 502 q 618 432 665 448 l 746 0 m 326 794 l 292 554 l 479 554 q 589 591 549 554 q 629 693 629 628 q 603 767 629 740 q 519 794 577 794 l 326 794 z "},"Ŗ":{"ha":822,"x_min":39,"x_max":819,"o":"m 418 -232 l 334 -366 l 243 -366 l 307 -248 l 244 -248 l 268 -77 l 440 -77 l 418 -232 m 746 0 l 555 0 l 444 397 l 269 397 l 215 0 l 39 0 l 172 953 l 546 953 q 666 936 615 953 q 752 888 718 919 q 803 813 786 857 q 819 718 819 770 q 805 621 819 667 q 765 539 791 576 q 702 475 739 502 q 618 432 665 448 l 746 0 m 326 794 l 292 554 l 479 554 q 589 591 549 554 q 629 693 629 628 q 603 767 629 740 q 519 794 577 794 l 326 794 z "},"Ś":{"ha":760,"x_min":43,"x_max":739,"o":"m 43 239 q 43 263 43 251 q 45 288 44 276 q 48 309 47 300 q 50 323 49 318 l 233 323 q 229 299 231 315 q 227 257 227 283 q 232 218 227 239 q 252 178 237 197 q 296 148 268 160 q 371 136 325 136 q 436 146 408 136 q 484 174 465 157 q 512 214 503 191 q 522 260 522 236 q 505 323 522 296 q 459 369 488 349 q 395 406 431 389 q 321 440 359 422 q 247 477 283 457 q 182 526 211 498 q 137 592 154 554 q 119 682 119 630 q 136 785 119 734 q 191 878 153 837 q 291 944 229 919 q 441 970 353 970 q 590 946 532 970 q 681 881 648 922 q 727 786 714 840 q 739 672 739 732 l 559 672 q 552 729 559 703 q 530 774 545 755 q 490 804 514 793 q 432 815 466 815 q 399 812 420 815 q 357 800 378 810 q 321 770 336 790 q 306 717 306 751 q 323 662 306 684 q 369 622 340 640 q 433 589 397 604 q 506 557 469 574 q 580 519 544 541 q 644 467 616 498 q 689 395 672 437 q 707 296 707 353 q 680 162 707 220 q 606 64 653 104 q 496 4 559 24 q 359 -17 433 -17 q 287 -11 324 -17 q 215 8 250 -5 q 149 41 180 20 q 94 89 117 61 q 57 155 71 117 q 43 239 43 192 m 684 1227 l 686 1223 l 535 1043 l 398 1043 l 517 1227 l 684 1227 z "},"Ş":{"ha":760,"x_min":43,"x_max":739,"o":"m 43 239 q 43 263 43 251 q 45 288 44 276 q 48 309 47 300 q 50 323 49 318 l 233 323 q 229 299 231 315 q 227 257 227 283 q 232 218 227 239 q 252 178 237 197 q 296 148 268 160 q 371 136 325 136 q 436 146 408 136 q 484 174 465 157 q 512 214 503 191 q 522 260 522 236 q 505 323 522 296 q 459 369 488 349 q 395 406 431 389 q 321 440 359 422 q 247 477 283 457 q 182 526 211 498 q 137 592 154 554 q 119 682 119 630 q 136 785 119 734 q 191 878 153 837 q 291 944 229 919 q 441 970 353 970 q 590 946 532 970 q 681 881 648 922 q 727 786 714 840 q 739 672 739 732 l 559 672 q 552 729 559 703 q 530 774 545 755 q 490 804 514 793 q 432 815 466 815 q 399 812 420 815 q 357 800 378 810 q 321 770 336 790 q 306 717 306 751 q 323 662 306 684 q 369 622 340 640 q 433 589 397 604 q 506 557 469 574 q 580 519 544 541 q 644 467 616 498 q 689 395 672 437 q 707 296 707 353 q 681 165 707 222 q 611 69 656 109 q 507 7 567 29 q 376 -16 446 -14 l 369 -46 q 406 -53 389 -47 q 437 -67 424 -58 q 458 -91 450 -77 q 466 -125 466 -105 q 450 -190 466 -165 q 410 -229 435 -214 q 356 -248 386 -243 q 298 -253 326 -253 q 237 -250 269 -253 q 182 -241 206 -247 l 192 -174 l 291 -174 q 331 -165 316 -174 q 347 -132 347 -157 q 336 -113 347 -119 q 303 -107 326 -107 l 258 -107 l 283 -10 q 194 16 237 -2 q 118 64 151 34 q 63 138 84 95 q 43 239 43 181 z "},"Ŝ":{"ha":760,"x_min":43,"x_max":739,"o":"m 43 239 q 43 263 43 251 q 45 288 44 276 q 48 309 47 300 q 50 323 49 318 l 233 323 q 229 299 231 315 q 227 257 227 283 q 232 218 227 239 q 252 178 237 197 q 296 148 268 160 q 371 136 325 136 q 436 146 408 136 q 484 174 465 157 q 512 214 503 191 q 522 260 522 236 q 505 323 522 296 q 459 369 488 349 q 395 406 431 389 q 321 440 359 422 q 247 477 283 457 q 182 526 211 498 q 137 592 154 554 q 119 682 119 630 q 136 785 119 734 q 191 878 153 837 q 291 944 229 919 q 441 970 353 970 q 590 946 532 970 q 681 881 648 922 q 727 786 714 840 q 739 672 739 732 l 559 672 q 552 729 559 703 q 530 774 545 755 q 490 804 514 793 q 432 815 466 815 q 399 812 420 815 q 357 800 378 810 q 321 770 336 790 q 306 717 306 751 q 323 662 306 684 q 369 622 340 640 q 433 589 397 604 q 506 557 469 574 q 580 519 544 541 q 644 467 616 498 q 689 395 672 437 q 707 296 707 353 q 680 162 707 220 q 606 64 653 104 q 496 4 559 24 q 359 -17 433 -17 q 287 -11 324 -17 q 215 8 250 -5 q 149 41 180 20 q 94 89 117 61 q 57 155 71 117 q 43 239 43 192 m 578 1227 l 670 1039 l 545 1039 l 498 1135 l 427 1039 l 298 1039 l 442 1227 l 578 1227 z "},"Ŧ":{"ha":696,"x_min":89,"x_max":755,"o":"m 89 794 l 111 953 l 755 953 l 733 794 l 498 794 l 463 545 l 627 545 l 610 425 l 446 425 l 387 0 l 212 0 l 271 425 l 119 425 l 137 545 l 288 545 l 323 794 l 89 794 z "},"Ť":{"ha":696,"x_min":89,"x_max":755,"o":"m 89 794 l 111 953 l 755 953 l 733 794 l 498 794 l 387 0 l 212 0 l 323 794 l 89 794 m 407 1227 l 455 1131 l 525 1227 l 655 1227 l 511 1039 l 375 1039 l 281 1227 l 407 1227 z "},"Ţ":{"ha":696,"x_min":89,"x_max":755,"o":"m 89 794 l 111 953 l 755 953 l 733 794 l 498 794 l 387 0 l 212 0 l 323 794 l 89 794 m 351 -232 l 267 -365 l 177 -365 l 241 -248 l 178 -248 l 201 -77 l 374 -77 l 351 -232 z "},"Ŭ":{"ha":822,"x_min":82,"x_max":823,"o":"m 524 1078 q 450 1089 482 1078 q 396 1120 418 1101 q 363 1163 374 1139 q 351 1211 351 1187 q 351 1219 351 1215 q 353 1226 351 1222 l 456 1226 q 461 1211 456 1219 q 476 1196 467 1203 q 500 1185 486 1190 q 530 1181 513 1181 q 564 1185 548 1181 q 591 1196 579 1190 q 611 1211 603 1203 q 621 1226 618 1219 l 724 1226 q 704 1174 720 1200 q 662 1126 688 1147 q 600 1091 635 1105 q 524 1078 565 1078 m 353 953 q 306 629 326 774 q 289 508 297 568 q 274 399 281 448 q 264 317 268 350 q 260 277 260 283 q 294 172 260 207 q 392 136 328 136 q 504 182 461 136 q 558 315 546 227 l 647 953 l 823 953 l 733 310 q 693 168 722 229 q 621 66 665 107 q 520 4 578 25 q 392 -17 462 -17 q 260 0 318 -17 q 163 50 203 17 q 103 132 123 83 q 82 244 82 180 q 86 293 82 256 q 97 382 90 330 q 112 497 103 435 q 129 623 120 560 q 176 953 150 772 l 353 953 z "},"Ű":{"ha":822,"x_min":82,"x_max":823,"o":"m 764 1226 l 765 1222 l 648 1043 l 539 1043 l 625 1226 l 764 1226 m 570 1226 l 571 1222 l 454 1043 l 345 1043 l 431 1226 l 570 1226 m 353 953 q 306 629 326 774 q 289 508 297 568 q 274 399 281 448 q 264 317 268 350 q 260 277 260 283 q 294 172 260 207 q 392 136 328 136 q 504 182 461 136 q 558 315 546 227 l 647 953 l 823 953 l 733 310 q 693 168 722 229 q 621 66 665 107 q 520 4 578 25 q 392 -17 462 -17 q 260 0 318 -17 q 163 50 203 17 q 103 132 123 83 q 82 244 82 180 q 86 293 82 256 q 97 382 90 330 q 112 497 103 435 q 129 623 120 560 q 176 953 150 772 l 353 953 z "},"Ū":{"ha":822,"x_min":82,"x_max":823,"o":"m 705 1175 l 688 1054 l 334 1054 l 351 1175 l 705 1175 m 353 953 q 306 629 326 774 q 289 508 297 568 q 274 399 281 448 q 264 317 268 350 q 260 277 260 283 q 294 172 260 207 q 392 136 328 136 q 504 182 461 136 q 558 315 546 227 l 647 953 l 823 953 l 733 310 q 693 168 722 229 q 621 66 665 107 q 520 4 578 25 q 392 -17 462 -17 q 260 0 318 -17 q 163 50 203 17 q 103 132 123 83 q 82 244 82 180 q 86 293 82 256 q 97 382 90 330 q 112 497 103 435 q 129 623 120 560 q 176 953 150 772 l 353 953 z "},"Ų":{"ha":822,"x_min":82,"x_max":823,"o":"m 329 -150 q 345 -74 329 -105 q 385 -17 361 -42 q 256 0 312 -17 q 161 50 199 17 q 102 132 122 83 q 82 244 82 180 q 86 293 82 256 q 97 382 90 330 q 112 497 103 435 q 129 623 120 560 q 176 953 150 772 l 353 953 q 306 629 326 774 q 289 508 297 568 q 274 399 281 448 q 264 317 268 350 q 260 277 260 283 q 294 172 260 207 q 392 136 328 136 q 504 182 461 136 q 558 315 546 227 l 647 953 l 823 953 l 733 310 q 665 115 717 191 q 528 7 612 39 q 509 -14 519 -1 q 491 -41 499 -26 q 476 -72 482 -56 q 471 -106 471 -89 q 483 -145 471 -129 q 525 -161 496 -161 l 555 -161 l 545 -237 q 496 -252 519 -247 q 450 -257 473 -257 q 407 -252 429 -257 q 368 -234 385 -247 q 340 -201 351 -222 q 329 -150 329 -180 z "},"Ů":{"ha":822,"x_min":82,"x_max":823,"o":"m 525 1002 q 474 1012 498 1002 q 431 1040 450 1022 q 402 1082 413 1058 q 392 1135 392 1107 q 402 1187 392 1162 q 431 1229 413 1211 q 473 1258 449 1247 q 525 1268 497 1268 q 578 1258 553 1268 q 620 1229 602 1247 q 648 1186 638 1211 q 659 1135 659 1162 q 648 1083 659 1107 q 620 1041 637 1059 q 577 1012 602 1023 q 525 1002 553 1002 m 525 1071 q 549 1076 538 1071 q 570 1089 561 1080 q 584 1109 578 1098 q 589 1135 589 1121 q 584 1160 589 1148 q 570 1180 578 1171 q 549 1194 561 1189 q 525 1198 538 1198 q 479 1180 498 1198 q 461 1135 461 1162 q 479 1089 461 1107 q 525 1071 498 1071 m 353 953 q 306 629 326 774 q 289 508 297 568 q 274 399 281 448 q 264 317 268 350 q 260 277 260 283 q 294 172 260 207 q 392 136 328 136 q 504 182 461 136 q 558 315 546 227 l 647 953 l 823 953 l 733 310 q 693 168 722 229 q 621 66 665 107 q 520 4 578 25 q 392 -17 462 -17 q 260 0 318 -17 q 163 50 203 17 q 103 132 123 83 q 82 244 82 180 q 86 293 82 256 q 97 382 90 330 q 112 497 103 435 q 129 623 120 560 q 176 953 150 772 l 353 953 z "},"Ũ":{"ha":822,"x_min":82,"x_max":823,"o":"m 289 1057 q 300 1114 289 1084 q 331 1169 311 1144 q 380 1210 351 1194 q 446 1226 409 1226 q 493 1218 471 1226 q 535 1201 515 1211 q 577 1183 556 1191 q 621 1175 597 1175 q 658 1186 642 1175 q 682 1226 673 1197 l 772 1226 q 761 1168 772 1198 q 729 1113 750 1138 q 679 1073 709 1088 q 612 1057 650 1057 q 566 1065 588 1057 q 524 1083 545 1073 q 483 1100 503 1093 q 439 1108 462 1108 q 401 1097 417 1108 q 378 1057 386 1086 l 289 1057 m 353 953 q 306 629 326 774 q 289 508 297 568 q 274 399 281 448 q 264 317 268 350 q 260 277 260 283 q 294 172 260 207 q 392 136 328 136 q 504 182 461 136 q 558 315 546 227 l 647 953 l 823 953 l 733 310 q 693 168 722 229 q 621 66 665 107 q 520 4 578 25 q 392 -17 462 -17 q 260 0 318 -17 q 163 50 203 17 q 103 132 123 83 q 82 244 82 180 q 86 293 82 256 q 97 382 90 330 q 112 497 103 435 q 129 623 120 560 q 176 953 150 772 l 353 953 z "},"Ẃ":{"ha":1075,"x_min":93,"x_max":1156,"o":"m 268 953 l 297 233 l 302 233 q 315 285 309 260 q 327 329 321 307 q 339 367 334 351 l 533 953 l 734 953 l 765 233 l 771 233 l 783 282 q 795 326 789 302 q 807 367 801 349 l 1000 953 l 1156 953 l 828 0 l 640 0 l 597 607 q 596 634 596 620 l 596 693 q 597 718 596 707 q 597 742 597 730 l 590 742 q 577 690 584 715 q 566 645 572 668 q 554 607 559 622 l 351 0 l 164 0 l 93 953 l 268 953 m 841 1227 l 842 1223 l 692 1043 l 555 1043 l 674 1227 l 841 1227 z "},"Ŵ":{"ha":1075,"x_min":93,"x_max":1156,"o":"m 268 953 l 297 233 l 302 233 q 315 285 309 260 q 327 329 321 307 q 339 367 334 351 l 533 953 l 734 953 l 765 233 l 771 233 l 783 282 q 795 326 789 302 q 807 367 801 349 l 1000 953 l 1156 953 l 828 0 l 640 0 l 597 607 q 596 634 596 620 l 596 693 q 597 718 596 707 q 597 742 597 730 l 590 742 q 577 690 584 715 q 566 645 572 668 q 554 607 559 622 l 351 0 l 164 0 l 93 953 l 268 953 m 735 1227 l 827 1039 l 702 1039 l 654 1135 l 584 1039 l 454 1039 l 599 1227 l 735 1227 z "},"Ẅ":{"ha":1075,"x_min":93,"x_max":1156,"o":"m 268 953 l 297 233 l 302 233 q 315 285 309 260 q 327 329 321 307 q 339 367 334 351 l 533 953 l 734 953 l 765 233 l 771 233 l 783 282 q 795 326 789 302 q 807 367 801 349 l 1000 953 l 1156 953 l 828 0 l 640 0 l 597 607 q 596 634 596 620 l 596 693 q 597 718 596 707 q 597 742 597 730 l 590 742 q 577 690 584 715 q 566 645 572 668 q 554 607 559 622 l 351 0 l 164 0 l 93 953 l 268 953 m 859 1227 l 838 1075 l 699 1075 l 720 1227 l 859 1227 m 616 1227 l 595 1075 l 457 1075 l 477 1227 l 616 1227 z "},"Ẁ":{"ha":1075,"x_min":93,"x_max":1156,"o":"m 268 953 l 297 233 l 302 233 q 315 285 309 260 q 327 329 321 307 q 339 367 334 351 l 533 953 l 734 953 l 765 233 l 771 233 l 783 282 q 795 326 789 302 q 807 367 801 349 l 1000 953 l 1156 953 l 828 0 l 640 0 l 597 607 q 596 634 596 620 l 596 693 q 597 718 596 707 q 597 742 597 730 l 590 742 q 577 690 584 715 q 566 645 572 668 q 554 607 559 622 l 351 0 l 164 0 l 93 953 l 268 953 m 477 1227 l 644 1227 l 737 1043 l 600 1043 l 475 1223 l 477 1227 z "},"Ŷ":{"ha":760,"x_min":93,"x_max":844,"o":"m 93 953 l 273 953 l 411 534 l 416 534 l 665 953 l 844 953 l 475 359 l 424 0 l 249 0 l 298 359 l 93 953 m 578 1227 l 670 1039 l 545 1039 l 498 1135 l 427 1039 l 298 1039 l 442 1227 l 578 1227 z "},"Ỳ":{"ha":760,"x_min":93,"x_max":844,"o":"m 93 953 l 273 953 l 411 534 l 416 534 l 665 953 l 844 953 l 475 359 l 424 0 l 249 0 l 298 359 l 93 953 m 321 1227 l 488 1227 l 581 1043 l 443 1043 l 318 1223 l 321 1227 z "},"Ź":{"ha":696,"x_min":-17,"x_max":734,"o":"m 465 794 l 118 794 l 140 953 l 734 953 l 729 884 l 252 158 l 637 158 l 615 0 l -17 0 l -11 68 l 465 794 m 644 1227 l 645 1223 l 494 1043 l 357 1043 l 477 1227 l 644 1227 z "},"Ż":{"ha":696,"x_min":-17,"x_max":734,"o":"m 465 794 l 118 794 l 140 953 l 734 953 l 729 884 l 252 158 l 637 158 l 615 0 l -17 0 l -11 68 l 465 794 m 545 1227 l 522 1067 l 373 1067 l 396 1227 l 545 1227 z "},"ă":{"ha":633,"x_min":31,"x_max":616,"o":"m 378 856 q 304 867 336 856 q 251 898 273 879 q 217 941 229 917 q 205 989 205 964 q 205 997 205 993 q 207 1004 205 1000 l 310 1004 q 316 989 311 997 q 331 974 321 981 q 354 963 340 967 q 385 958 368 958 q 418 963 402 958 q 445 974 433 967 q 465 989 457 981 q 475 1004 473 997 l 578 1004 q 558 951 574 978 q 516 904 542 925 q 454 869 490 882 q 378 856 419 856 m 307 747 q 402 720 365 747 q 460 643 440 692 l 488 730 l 616 730 q 573 452 592 575 q 557 349 565 399 q 544 258 549 298 q 534 191 538 217 q 530 163 530 165 q 540 133 530 142 q 564 123 549 123 l 589 123 l 572 5 q 539 -9 559 -2 q 490 -17 519 -17 q 415 9 444 -17 q 375 81 385 35 q 344 37 361 55 q 307 6 326 18 q 267 -11 288 -5 q 228 -17 247 -17 q 83 47 135 -17 q 31 241 31 112 q 54 469 31 374 q 117 627 78 565 q 206 718 156 688 q 307 747 256 747 m 271 126 q 321 144 300 126 q 359 192 343 163 q 385 259 375 222 q 401 334 395 296 q 410 408 408 372 q 412 469 412 444 q 397 569 412 533 q 339 604 382 604 q 288 585 310 604 q 251 534 267 565 q 224 464 235 503 q 208 388 214 426 q 199 317 201 350 q 196 264 196 284 q 214 161 196 197 q 271 126 231 126 z "},"ǽ":{"ha":1013,"x_min":26,"x_max":962,"o":"m 26 179 q 42 270 26 230 q 84 339 57 309 q 149 388 111 368 q 231 421 186 408 q 325 439 275 433 q 427 444 375 444 l 435 521 q 436 535 436 528 l 436 549 q 423 593 436 576 q 372 611 410 611 q 329 604 347 611 q 300 583 312 596 q 282 553 289 570 q 273 514 276 535 l 113 514 q 132 610 113 567 q 188 684 152 653 q 275 731 224 714 q 387 747 326 747 q 487 731 445 747 q 555 686 530 715 q 634 731 590 715 q 736 747 678 747 q 962 498 962 747 q 959 413 962 458 q 947 323 956 368 l 582 323 q 579 284 580 302 q 579 260 579 267 q 596 153 579 189 q 656 118 614 118 q 694 129 677 118 q 724 158 711 140 q 746 201 736 177 q 761 253 755 226 l 932 253 q 898 149 920 198 q 842 63 876 100 q 761 5 808 26 q 648 -17 713 -17 q 524 6 574 -17 q 446 79 474 30 q 350 10 403 37 q 225 -17 297 -17 q 158 -9 193 -17 q 94 21 123 -1 q 45 81 64 43 q 26 179 26 119 m 200 186 q 217 139 200 155 q 272 122 235 122 q 323 135 300 122 q 362 170 346 148 q 389 221 378 192 q 403 282 399 250 l 408 323 q 334 317 371 323 q 267 296 296 311 q 219 254 237 280 q 200 186 200 227 m 774 1004 l 776 1000 l 625 821 l 488 821 l 608 1004 l 774 1004 m 791 444 q 793 469 792 459 q 794 484 793 478 q 794 492 794 490 l 794 498 q 779 583 794 554 q 726 612 764 612 q 680 598 701 612 q 645 561 660 584 q 618 507 629 537 q 600 444 607 477 l 791 444 z "},"ā":{"ha":633,"x_min":31,"x_max":616,"o":"m 559 953 l 542 832 l 187 832 l 205 953 l 559 953 m 307 747 q 402 720 365 747 q 460 643 440 692 l 488 730 l 616 730 q 573 452 592 575 q 557 349 565 399 q 544 258 549 298 q 534 191 538 217 q 530 163 530 165 q 540 133 530 142 q 564 123 549 123 l 589 123 l 572 5 q 539 -9 559 -2 q 490 -17 519 -17 q 415 9 444 -17 q 375 81 385 35 q 344 37 361 55 q 307 6 326 18 q 267 -11 288 -5 q 228 -17 247 -17 q 83 47 135 -17 q 31 241 31 112 q 54 469 31 374 q 117 627 78 565 q 206 718 156 688 q 307 747 256 747 m 271 126 q 321 144 300 126 q 359 192 343 163 q 385 259 375 222 q 401 334 395 296 q 410 408 408 372 q 412 469 412 444 q 397 569 412 533 q 339 604 382 604 q 288 585 310 604 q 251 534 267 565 q 224 464 235 503 q 208 388 214 426 q 199 317 201 350 q 196 264 196 284 q 214 161 196 197 q 271 126 231 126 z "},"ą":{"ha":633,"x_min":31,"x_max":616,"o":"m 228 -17 q 83 47 135 -17 q 31 241 31 112 q 54 469 31 374 q 117 627 78 565 q 206 718 156 688 q 307 747 256 747 q 402 720 365 747 q 460 643 440 692 l 488 730 l 616 730 q 573 452 592 575 q 557 349 565 399 q 544 258 549 298 q 534 191 538 217 q 530 163 530 165 q 540 133 530 142 q 564 123 549 123 l 589 123 l 572 5 q 554 -15 564 -3 q 535 -42 544 -28 q 521 -74 527 -57 q 515 -107 515 -90 q 528 -146 515 -130 q 570 -163 540 -163 l 600 -163 l 589 -239 q 541 -253 564 -248 q 494 -258 517 -258 q 451 -253 473 -258 q 412 -236 429 -248 q 384 -202 395 -223 q 374 -151 374 -182 q 393 -67 374 -102 q 440 -7 413 -33 q 399 26 415 3 q 375 81 382 48 q 344 37 361 55 q 307 6 326 18 q 267 -11 288 -5 q 228 -17 247 -17 m 271 126 q 321 144 300 126 q 359 192 343 163 q 385 259 375 222 q 401 334 395 296 q 410 408 408 372 q 412 469 412 444 q 397 569 412 533 q 339 604 382 604 q 288 585 310 604 q 251 534 267 565 q 224 464 235 503 q 208 388 214 426 q 199 317 201 350 q 196 264 196 284 q 214 161 196 197 q 271 126 231 126 z "},"ǻ":{"ha":633,"x_min":31,"x_max":616,"o":"m 585 1226 l 586 1222 l 452 1067 l 314 1067 l 418 1226 l 585 1226 m 379 778 q 328 788 352 778 q 286 815 304 798 q 256 857 267 833 q 245 908 245 880 q 256 958 245 935 q 285 1000 267 982 q 327 1027 303 1017 q 379 1038 351 1038 q 432 1027 408 1038 q 474 999 456 1017 q 503 958 492 981 q 513 908 513 935 q 502 857 513 881 q 474 816 492 833 q 431 788 456 798 q 379 778 407 778 m 379 844 q 404 849 392 844 q 424 863 415 854 q 438 883 433 871 q 443 908 443 895 q 438 932 443 921 q 424 953 433 944 q 404 966 415 962 q 379 971 392 971 q 334 953 352 971 q 315 908 315 935 q 334 863 315 881 q 379 844 352 844 m 307 747 q 402 720 365 747 q 460 643 440 692 l 488 730 l 616 730 q 573 452 592 575 q 557 349 565 399 q 544 258 549 298 q 534 191 538 217 q 530 163 530 165 q 540 133 530 142 q 564 123 549 123 l 589 123 l 572 5 q 539 -9 559 -2 q 490 -17 519 -17 q 415 9 444 -17 q 375 81 385 35 q 344 37 361 55 q 307 6 326 18 q 267 -11 288 -5 q 228 -17 247 -17 q 83 47 135 -17 q 31 241 31 112 q 54 469 31 374 q 117 627 78 565 q 206 718 156 688 q 307 747 256 747 m 271 126 q 321 144 300 126 q 359 192 343 163 q 385 259 375 222 q 401 334 395 296 q 410 408 408 372 q 412 469 412 444 q 397 569 412 533 q 339 604 382 604 q 288 585 310 604 q 251 534 267 565 q 224 464 235 503 q 208 388 214 426 q 199 317 201 350 q 196 264 196 284 q 214 161 196 197 q 271 126 231 126 z "},"ć":{"ha":633,"x_min":50,"x_max":600,"o":"m 50 239 q 56 356 50 296 q 75 472 61 416 q 112 579 88 529 q 171 666 135 629 q 257 726 207 704 q 374 747 307 747 q 547 680 493 747 q 600 476 600 613 l 600 456 l 431 456 l 431 476 q 416 573 431 540 q 361 607 401 607 q 309 585 331 607 q 271 530 287 564 q 245 455 256 496 q 230 376 235 414 q 222 308 224 338 q 220 265 220 278 q 235 159 220 195 q 294 123 250 123 q 335 135 317 123 q 368 168 353 147 q 392 214 382 188 q 408 271 402 241 l 574 271 q 539 161 561 213 q 484 69 518 109 q 401 6 450 30 q 282 -17 351 -17 q 108 45 165 -17 q 50 239 50 108 m 589 1004 l 590 1000 l 439 821 l 302 821 l 422 1004 l 589 1004 z "},"č":{"ha":633,"x_min":50,"x_max":600,"o":"m 50 239 q 56 356 50 296 q 75 472 61 416 q 112 579 88 529 q 171 666 135 629 q 257 726 207 704 q 374 747 307 747 q 547 680 493 747 q 600 476 600 613 l 600 456 l 431 456 l 431 476 q 416 573 431 540 q 361 607 401 607 q 309 585 331 607 q 271 530 287 564 q 245 455 256 496 q 230 376 235 414 q 222 308 224 338 q 220 265 220 278 q 235 159 220 195 q 294 123 250 123 q 335 135 317 123 q 368 168 353 147 q 392 214 382 188 q 408 271 402 241 l 574 271 q 539 161 561 213 q 484 69 518 109 q 401 6 450 30 q 282 -17 351 -17 q 108 45 165 -17 q 50 239 50 108 m 352 1004 l 400 908 l 470 1004 l 600 1004 l 456 817 l 320 817 l 227 1004 l 352 1004 z "},"ĉ":{"ha":633,"x_min":50,"x_max":600,"o":"m 50 239 q 56 356 50 296 q 75 472 61 416 q 112 579 88 529 q 171 666 135 629 q 257 726 207 704 q 374 747 307 747 q 547 680 493 747 q 600 476 600 613 l 600 456 l 431 456 l 431 476 q 416 573 431 540 q 361 607 401 607 q 309 585 331 607 q 271 530 287 564 q 245 455 256 496 q 230 376 235 414 q 222 308 224 338 q 220 265 220 278 q 235 159 220 195 q 294 123 250 123 q 335 135 317 123 q 368 168 353 147 q 392 214 382 188 q 408 271 402 241 l 574 271 q 539 161 561 213 q 484 69 518 109 q 401 6 450 30 q 282 -17 351 -17 q 108 45 165 -17 q 50 239 50 108 m 483 1004 l 574 817 l 450 817 l 402 913 l 332 817 l 202 817 l 347 1004 l 483 1004 z "},"ċ":{"ha":633,"x_min":50,"x_max":600,"o":"m 50 239 q 56 356 50 296 q 75 472 61 416 q 112 579 88 529 q 171 666 135 629 q 257 726 207 704 q 374 747 307 747 q 547 680 493 747 q 600 476 600 613 l 600 456 l 431 456 l 431 476 q 416 573 431 540 q 361 607 401 607 q 309 585 331 607 q 271 530 287 564 q 245 455 256 496 q 230 376 235 414 q 222 308 224 338 q 220 265 220 278 q 235 159 220 195 q 294 123 250 123 q 335 135 317 123 q 368 168 353 147 q 392 214 382 188 q 408 271 402 241 l 574 271 q 539 161 561 213 q 484 69 518 109 q 401 6 450 30 q 282 -17 351 -17 q 108 45 165 -17 q 50 239 50 108 m 490 1004 l 467 844 l 318 844 l 341 1004 l 490 1004 z "},"ď":{"ha":843,"x_min":50,"x_max":970,"o":"m 50 241 q 75 469 50 374 q 140 627 100 565 q 231 718 180 688 q 336 747 283 747 q 432 723 394 747 q 490 652 469 698 l 542 1004 l 705 1004 l 567 0 l 432 0 l 432 106 q 347 12 393 40 q 249 -17 300 -17 q 102 48 154 -17 q 50 241 50 113 m 306 135 q 362 153 338 135 q 404 199 387 170 q 432 263 421 227 q 450 337 444 300 q 459 409 456 374 q 461 469 461 444 q 442 563 461 530 q 376 596 422 596 q 317 578 342 596 q 274 530 292 559 q 245 464 256 501 q 229 390 235 427 q 220 317 222 352 q 218 258 218 283 q 238 166 218 198 q 306 135 258 135 m 751 762 l 778 953 l 970 953 l 946 779 l 821 546 l 721 546 l 823 762 l 751 762 z "},"đ":{"ha":696,"x_min":50,"x_max":775,"o":"m 50 241 q 75 469 50 374 q 140 627 100 565 q 231 718 180 688 q 336 747 283 747 q 432 723 394 747 q 490 652 469 698 l 513 810 l 332 810 l 349 930 l 531 930 l 542 1004 l 705 1004 l 695 930 l 775 930 l 758 810 l 678 810 l 567 0 l 432 0 l 432 106 q 347 12 393 40 q 249 -17 300 -17 q 102 48 154 -17 q 50 241 50 113 m 306 135 q 362 153 338 135 q 404 199 387 170 q 432 263 421 227 q 450 337 444 300 q 459 409 456 374 q 461 469 461 444 q 442 563 461 530 q 376 596 422 596 q 317 578 342 596 q 274 530 292 559 q 245 464 256 501 q 229 390 235 427 q 220 317 222 352 q 218 258 218 283 q 238 166 218 198 q 306 135 258 135 z "},"ı":{"ha":317,"x_min":32,"x_max":298,"o":"m 298 730 l 197 0 l 32 0 l 134 730 l 298 730 z "},"ĕ":{"ha":633,"x_min":46,"x_max":596,"o":"m 46 239 q 52 360 46 299 q 72 478 58 421 q 110 584 86 534 q 170 669 134 633 q 255 726 205 705 q 370 747 304 747 q 596 498 596 747 q 592 413 596 458 q 581 323 589 368 l 215 323 q 213 284 213 302 q 212 260 212 267 q 230 153 212 189 q 289 118 247 118 q 327 129 310 118 q 357 158 344 140 q 379 201 370 177 q 395 253 389 226 l 566 253 q 531 149 553 198 q 476 63 509 100 q 394 5 442 26 q 282 -17 347 -17 q 104 45 162 -17 q 46 239 46 108 m 393 856 q 319 867 351 856 q 266 898 288 879 q 232 941 243 917 q 220 989 220 964 l 220 996 q 222 1004 220 1000 l 325 1004 q 331 989 326 997 q 346 974 336 981 q 369 963 355 967 q 400 958 382 958 q 433 963 418 958 q 460 974 448 967 q 480 989 473 981 q 490 1004 488 997 l 593 1004 q 573 951 589 978 q 531 904 557 925 q 469 869 505 882 q 393 856 434 856 m 425 444 q 427 469 426 459 q 428 484 427 478 q 428 492 428 490 l 428 498 q 413 583 428 554 q 359 612 397 612 q 313 598 334 612 q 278 561 293 584 q 252 507 262 537 q 233 444 241 477 l 425 444 z "},"ě":{"ha":633,"x_min":46,"x_max":596,"o":"m 46 239 q 52 360 46 299 q 72 478 58 421 q 110 584 86 534 q 170 669 134 633 q 255 726 205 705 q 370 747 304 747 q 596 498 596 747 q 592 413 596 458 q 581 323 589 368 l 215 323 q 213 284 213 302 q 212 260 212 267 q 230 153 212 189 q 289 118 247 118 q 327 129 310 118 q 357 158 344 140 q 379 201 370 177 q 395 253 389 226 l 566 253 q 531 149 553 198 q 476 63 509 100 q 394 5 442 26 q 282 -17 347 -17 q 104 45 162 -17 q 46 239 46 108 m 344 1004 l 392 908 l 462 1004 l 592 1004 l 448 817 l 312 817 l 218 1004 l 344 1004 m 425 444 q 427 469 426 459 q 428 484 427 478 q 428 492 428 490 l 428 498 q 413 583 428 554 q 359 612 397 612 q 313 598 334 612 q 278 561 293 584 q 252 507 262 537 q 233 444 241 477 l 425 444 z "},"ė":{"ha":633,"x_min":46,"x_max":596,"o":"m 46 239 q 52 360 46 299 q 72 478 58 421 q 110 584 86 534 q 170 669 134 633 q 255 726 205 705 q 370 747 304 747 q 596 498 596 747 q 592 413 596 458 q 581 323 589 368 l 215 323 q 213 284 213 302 q 212 260 212 267 q 230 153 212 189 q 289 118 247 118 q 327 129 310 118 q 357 158 344 140 q 379 201 370 177 q 395 253 389 226 l 566 253 q 531 149 553 198 q 476 63 509 100 q 394 5 442 26 q 282 -17 347 -17 q 104 45 162 -17 q 46 239 46 108 m 425 444 q 427 469 426 459 q 428 484 427 478 q 428 492 428 490 l 428 498 q 413 583 428 554 q 359 612 397 612 q 313 598 334 612 q 278 561 293 584 q 252 507 262 537 q 233 444 241 477 l 425 444 m 482 1004 l 458 844 l 310 844 l 333 1004 l 482 1004 z "},"ē":{"ha":633,"x_min":46,"x_max":596,"o":"m 46 239 q 52 360 46 299 q 72 478 58 421 q 110 584 86 534 q 170 669 134 633 q 255 726 205 705 q 370 747 304 747 q 596 498 596 747 q 592 413 596 458 q 581 323 589 368 l 215 323 q 213 284 213 302 q 212 260 212 267 q 230 153 212 189 q 289 118 247 118 q 327 129 310 118 q 357 158 344 140 q 379 201 370 177 q 395 253 389 226 l 566 253 q 531 149 553 198 q 476 63 509 100 q 394 5 442 26 q 282 -17 347 -17 q 104 45 162 -17 q 46 239 46 108 m 576 953 l 557 832 l 203 832 l 222 953 l 576 953 m 425 444 q 427 469 426 459 q 428 484 427 478 q 428 492 428 490 l 428 498 q 413 583 428 554 q 359 612 397 612 q 313 598 334 612 q 278 561 293 584 q 252 507 262 537 q 233 444 241 477 l 425 444 z "},"ŋ":{"ha":696,"x_min":32,"x_max":643,"o":"m 268 730 l 268 633 q 304 678 284 657 q 348 714 323 699 q 402 739 372 730 q 467 747 431 747 q 598 697 554 747 q 643 559 643 647 q 642 537 643 550 q 638 498 642 524 q 630 431 635 473 q 616 325 625 390 q 594 165 607 259 q 562 -57 581 72 q 544 -129 557 -94 q 509 -191 532 -163 q 452 -236 486 -219 q 368 -253 417 -253 q 336 -252 353 -253 q 303 -248 319 -250 q 273 -242 287 -245 q 249 -236 259 -239 l 265 -113 l 325 -113 q 375 -96 357 -113 q 399 -46 393 -79 q 429 160 416 74 q 450 307 441 247 q 463 405 458 368 q 470 463 467 442 q 473 493 472 484 q 473 504 473 501 q 455 574 473 553 q 393 596 436 596 q 347 586 369 596 q 306 556 324 576 q 275 506 288 536 q 257 439 262 477 l 197 0 l 32 0 l 134 730 l 268 730 z "},"ę":{"ha":633,"x_min":46,"x_max":596,"o":"m 200 -150 q 216 -73 200 -105 q 256 -16 233 -41 q 98 53 151 -9 q 46 239 46 115 q 52 360 46 299 q 72 478 58 421 q 110 584 86 534 q 170 669 134 633 q 255 726 205 705 q 370 747 304 747 q 596 498 596 747 q 592 413 596 458 q 581 323 589 368 l 215 323 q 213 284 213 302 q 212 260 212 267 q 230 153 212 189 q 289 118 247 118 q 327 129 310 118 q 357 158 344 140 q 379 201 370 177 q 395 253 389 226 l 566 253 q 542 175 556 212 q 508 105 528 138 q 460 48 488 73 q 399 7 433 23 q 380 -14 391 -1 q 362 -41 370 -26 q 348 -72 353 -56 q 342 -106 342 -89 q 354 -145 342 -129 q 396 -161 366 -161 l 427 -161 l 415 -237 q 367 -252 390 -247 q 321 -257 344 -257 q 277 -252 299 -257 q 238 -234 256 -247 q 211 -201 221 -222 q 200 -150 200 -180 m 425 444 q 427 469 426 459 q 428 484 427 478 q 428 492 428 490 l 428 498 q 413 583 428 554 q 359 612 397 612 q 313 598 334 612 q 278 561 293 584 q 252 507 262 537 q 233 444 241 477 l 425 444 z "},"ğ":{"ha":696,"x_min":9,"x_max":667,"o":"m 418 856 q 345 867 377 856 q 291 898 313 879 q 257 941 269 917 q 245 989 245 964 q 246 997 245 993 q 248 1004 246 1000 l 350 1004 q 356 989 351 997 q 371 974 361 981 q 394 963 380 967 q 425 958 408 958 q 458 963 443 958 q 486 974 474 967 q 506 989 498 981 q 515 1004 513 997 l 618 1004 q 598 951 614 978 q 556 904 582 925 q 494 869 530 882 q 418 856 459 856 m 335 747 q 436 720 391 747 q 504 633 480 693 l 536 730 l 667 730 l 574 68 q 536 -78 562 -18 q 470 -178 510 -139 q 376 -235 430 -217 q 256 -253 323 -253 q 147 -235 193 -253 q 70 -187 100 -217 q 24 -117 39 -157 q 9 -33 9 -77 l 179 -33 q 200 -92 179 -71 q 267 -113 220 -113 q 406 35 382 -113 l 416 110 q 384 74 402 90 q 344 45 365 57 q 299 26 323 33 q 252 20 276 20 q 173 34 210 20 q 109 77 136 47 q 66 151 82 106 q 50 260 50 197 q 56 359 50 305 q 75 467 62 413 q 110 572 88 521 q 163 662 132 623 q 237 724 195 701 q 335 747 280 747 m 310 163 q 365 179 341 163 q 405 221 388 195 q 433 281 422 248 q 451 348 444 314 q 460 414 457 382 q 463 469 463 446 q 441 563 463 530 q 372 596 420 596 q 315 579 339 596 q 273 533 290 562 q 246 470 256 505 q 230 398 235 434 q 222 329 224 362 q 220 272 220 296 q 243 190 220 218 q 310 163 266 163 z "},"ĝ":{"ha":696,"x_min":9,"x_max":667,"o":"m 500 1004 l 591 817 l 467 817 l 419 913 l 349 817 l 220 817 l 364 1004 l 500 1004 m 335 747 q 436 720 391 747 q 504 633 480 693 l 536 730 l 667 730 l 574 68 q 536 -78 562 -18 q 470 -178 510 -139 q 376 -235 430 -217 q 256 -253 323 -253 q 147 -235 193 -253 q 70 -187 100 -217 q 24 -117 39 -157 q 9 -33 9 -77 l 179 -33 q 200 -92 179 -71 q 267 -113 220 -113 q 406 35 382 -113 l 416 110 q 384 74 402 90 q 344 45 365 57 q 299 26 323 33 q 252 20 276 20 q 173 34 210 20 q 109 77 136 47 q 66 151 82 106 q 50 260 50 197 q 56 359 50 305 q 75 467 62 413 q 110 572 88 521 q 163 662 132 623 q 237 724 195 701 q 335 747 280 747 m 310 163 q 365 179 341 163 q 405 221 388 195 q 433 281 422 248 q 451 348 444 314 q 460 414 457 382 q 463 469 463 446 q 441 563 463 530 q 372 596 420 596 q 315 579 339 596 q 273 533 290 562 q 246 470 256 505 q 230 398 235 434 q 222 329 224 362 q 220 272 220 296 q 243 190 220 218 q 310 163 266 163 z "},"ģ":{"ha":696,"x_min":9,"x_max":667,"o":"m 335 975 l 419 1108 l 510 1108 l 446 990 l 509 990 l 485 819 l 313 819 l 335 975 m 335 747 q 436 720 391 747 q 504 633 480 693 l 536 730 l 667 730 l 574 68 q 536 -78 562 -18 q 470 -178 510 -139 q 376 -235 430 -217 q 256 -253 323 -253 q 147 -235 193 -253 q 70 -187 100 -217 q 24 -117 39 -157 q 9 -33 9 -77 l 179 -33 q 200 -92 179 -71 q 267 -113 220 -113 q 406 35 382 -113 l 416 110 q 384 74 402 90 q 344 45 365 57 q 299 26 323 33 q 252 20 276 20 q 173 34 210 20 q 109 77 136 47 q 66 151 82 106 q 50 260 50 197 q 56 359 50 305 q 75 467 62 413 q 110 572 88 521 q 163 662 132 623 q 237 724 195 701 q 335 747 280 747 m 310 163 q 365 179 341 163 q 405 221 388 195 q 433 281 422 248 q 451 348 444 314 q 460 414 457 382 q 463 469 463 446 q 441 563 463 530 q 372 596 420 596 q 315 579 339 596 q 273 533 290 562 q 246 470 256 505 q 230 398 235 434 q 222 329 224 362 q 220 272 220 296 q 243 190 220 218 q 310 163 266 163 z "},"ġ":{"ha":696,"x_min":9,"x_max":667,"o":"m 507 1004 l 484 844 l 335 844 l 358 1004 l 507 1004 m 335 747 q 436 720 391 747 q 504 633 480 693 l 536 730 l 667 730 l 574 68 q 536 -78 562 -18 q 470 -178 510 -139 q 376 -235 430 -217 q 256 -253 323 -253 q 147 -235 193 -253 q 70 -187 100 -217 q 24 -117 39 -157 q 9 -33 9 -77 l 179 -33 q 200 -92 179 -71 q 267 -113 220 -113 q 406 35 382 -113 l 416 110 q 384 74 402 90 q 344 45 365 57 q 299 26 323 33 q 252 20 276 20 q 173 34 210 20 q 109 77 136 47 q 66 151 82 106 q 50 260 50 197 q 56 359 50 305 q 75 467 62 413 q 110 572 88 521 q 163 662 132 623 q 237 724 195 701 q 335 747 280 747 m 310 163 q 365 179 341 163 q 405 221 388 195 q 433 281 422 248 q 451 348 444 314 q 460 414 457 382 q 463 469 463 446 q 441 563 463 530 q 372 596 420 596 q 315 579 339 596 q 273 533 290 562 q 246 470 256 505 q 230 398 235 434 q 222 329 224 362 q 220 272 220 296 q 243 190 220 218 q 310 163 266 163 z "},"ħ":{"ha":696,"x_min":32,"x_max":643,"o":"m 336 1004 l 326 930 l 506 930 l 489 810 l 309 810 l 286 654 q 321 691 302 674 q 362 721 340 708 q 410 740 384 733 q 467 747 436 747 q 598 697 554 747 q 643 559 643 647 q 642 541 643 550 q 639 513 642 532 q 632 459 637 494 q 619 366 627 425 q 599 218 611 307 q 570 0 587 129 l 406 0 q 433 203 422 120 q 453 342 445 287 q 465 428 460 397 q 471 475 469 459 q 473 496 473 491 q 473 504 473 501 q 455 574 473 553 q 393 596 436 596 q 347 586 369 596 q 307 556 325 576 q 276 506 289 536 q 258 439 263 477 l 197 0 l 32 0 l 144 810 l 63 810 l 80 930 l 161 930 l 171 1004 l 336 1004 z "},"ĥ":{"ha":696,"x_min":32,"x_max":643,"o":"m 336 1004 l 286 654 q 321 691 302 674 q 362 721 340 708 q 410 740 384 733 q 467 747 436 747 q 598 697 554 747 q 643 559 643 647 q 642 541 643 550 q 639 513 642 532 q 632 459 637 494 q 619 366 627 425 q 599 218 611 307 q 570 0 587 129 l 406 0 q 433 203 422 120 q 453 342 445 287 q 465 428 460 397 q 471 475 469 459 q 473 496 473 491 q 473 504 473 501 q 455 574 473 553 q 393 596 436 596 q 347 586 369 596 q 307 556 325 576 q 276 506 289 536 q 258 439 263 477 l 197 0 l 32 0 l 171 1004 l 336 1004 m 351 1227 l 442 1039 l 317 1039 l 270 1135 l 199 1039 l 70 1039 l 214 1227 l 351 1227 z "},"ĭ":{"ha":317,"x_min":32,"x_max":439,"o":"m 298 730 l 197 0 l 32 0 l 134 730 l 298 730 m 239 856 q 165 867 197 856 q 112 898 134 879 q 78 941 90 917 q 66 989 66 964 l 66 996 q 68 1004 66 1000 l 171 1004 q 177 989 172 997 q 192 974 182 981 q 215 963 201 967 q 246 958 229 958 q 279 963 264 958 q 307 974 294 967 q 327 989 319 981 q 336 1004 334 997 l 439 1004 q 419 951 435 978 q 377 904 403 925 q 315 869 351 882 q 239 856 280 856 z "},"ĳ":{"ha":633,"x_min":32,"x_max":652,"o":"m 336 1004 l 315 852 l 150 852 l 171 1004 l 336 1004 m 298 730 l 197 0 l 32 0 l 134 730 l 298 730 m 652 1004 l 631 852 l 467 852 l 488 1004 l 652 1004 m 614 730 l 504 -57 q 486 -129 498 -94 q 451 -191 474 -163 q 394 -236 429 -219 q 311 -253 360 -253 q 279 -252 296 -253 q 246 -248 262 -250 q 216 -242 230 -245 q 192 -236 202 -239 l 208 -113 l 268 -113 q 318 -96 300 -113 q 342 -46 336 -79 l 449 730 l 614 730 z "},"ī":{"ha":317,"x_min":32,"x_max":422,"o":"m 298 730 l 197 0 l 32 0 l 134 730 l 298 730 m 422 953 l 404 832 l 50 832 l 68 953 l 422 953 z "},"į":{"ha":317,"x_min":-1,"x_max":328,"o":"m -1 -157 q 5 -106 -1 -129 q 23 -64 12 -83 q 48 -30 34 -45 q 79 0 63 -14 l 32 0 l 134 730 l 298 730 l 197 0 q 179 -20 189 -8 q 160 -47 169 -33 q 146 -79 152 -62 q 140 -113 140 -96 q 153 -152 140 -136 q 195 -168 165 -168 l 225 -168 l 214 -244 q 165 -259 189 -254 q 119 -264 142 -264 q 76 -259 98 -264 q 37 -241 54 -254 q 9 -208 20 -229 q -1 -157 -1 -187 m 328 1004 l 304 844 l 156 844 l 179 1004 l 328 1004 z "},"ĩ":{"ha":317,"x_min":5,"x_max":488,"o":"m 298 730 l 197 0 l 32 0 l 134 730 l 298 730 m 5 835 q 16 892 5 862 q 47 947 26 922 q 96 988 67 972 q 161 1004 125 1004 q 209 996 186 1004 q 251 979 231 988 q 293 961 272 969 q 336 953 313 953 q 374 964 358 953 q 398 1004 389 975 l 488 1004 q 477 946 488 976 q 445 891 466 916 q 395 850 425 866 q 328 835 366 835 q 282 843 304 835 q 240 861 260 851 q 198 878 219 870 q 155 886 178 886 q 117 875 133 886 q 94 835 102 863 l 5 835 z "},"ĵ":{"ha":317,"x_min":-125,"x_max":410,"o":"m 297 730 l 187 -57 q 170 -129 182 -94 q 135 -191 157 -163 q 78 -236 112 -219 q -5 -253 43 -253 q -38 -252 -21 -253 q -71 -248 -55 -250 q -101 -242 -87 -245 q -125 -236 -115 -239 l -109 -113 l -49 -113 q 2 -96 -16 -113 q 25 -46 20 -79 l 132 730 l 297 730 m 319 1004 l 410 817 l 286 817 l 238 913 l 168 817 l 38 817 l 182 1004 l 319 1004 z "},"ķ":{"ha":633,"x_min":32,"x_max":677,"o":"m 336 1004 l 260 457 l 490 730 l 677 730 l 422 431 l 586 0 l 411 0 l 306 298 l 228 222 l 197 0 l 32 0 l 171 1004 l 336 1004 m 336 -232 l 252 -365 l 161 -365 l 225 -248 l 162 -248 l 186 -77 l 358 -77 l 336 -232 z "},"ĸ":{"ha":644,"x_min":32,"x_max":677,"o":"m 297 729 l 260 457 l 490 730 l 677 730 l 422 431 l 586 0 l 411 0 l 306 298 l 228 222 l 197 0 l 32 0 l 134 729 l 297 729 z "},"ĺ":{"ha":317,"x_min":31,"x_max":459,"o":"m 335 1004 l 196 0 l 31 0 l 170 1004 l 335 1004 m 458 1227 l 459 1223 l 309 1043 l 172 1043 l 291 1227 l 458 1227 z "},"ľ":{"ha":452,"x_min":31,"x_max":593,"o":"m 335 1004 l 196 0 l 31 0 l 170 1004 l 335 1004 m 374 762 l 401 953 l 593 953 l 569 779 l 444 546 l 344 546 l 446 762 l 374 762 z "},"ļ":{"ha":317,"x_min":-9,"x_max":335,"o":"m 335 1004 l 196 0 l 31 0 l 170 1004 l 335 1004 m 165 -232 l 81 -365 l -9 -365 l 55 -248 l -8 -248 l 16 -77 l 188 -77 l 165 -232 z "},"ŀ":{"ha":465,"x_min":31,"x_max":509,"o":"m 335 1004 l 196 0 l 31 0 l 170 1004 l 335 1004 m 509 568 l 483 386 l 315 386 l 341 568 l 509 568 z "},"ſ":{"ha":317,"x_min":-118,"x_max":463,"o":"m 43 590 l 62 730 l 135 730 l 147 819 q 166 891 153 856 q 202 954 179 926 q 261 998 226 981 q 346 1015 296 1015 q 376 1014 360 1015 q 408 1010 393 1013 q 438 1005 424 1008 q 463 999 452 1002 l 444 875 l 378 875 q 332 860 349 875 q 311 815 315 845 l 195 -57 q 177 -129 190 -94 q 142 -191 165 -163 q 84 -236 119 -219 q 1 -253 50 -253 q -30 -252 -14 -253 q -63 -248 -47 -250 q -93 -242 -79 -245 q -118 -236 -108 -239 l -100 -113 l -39 -113 q 10 -96 -7 -113 q 32 -46 28 -79 l 115 590 l 43 590 z "},"ł":{"ha":317,"x_min":-31,"x_max":404,"o":"m 335 1004 l 281 617 l 404 714 l 385 565 l 260 467 l 196 0 l 31 0 l 75 322 l -31 239 l -12 386 l 96 471 l 170 1004 l 335 1004 z "},"ń":{"ha":696,"x_min":32,"x_max":643,"o":"m 268 730 l 268 633 q 304 678 284 657 q 348 714 323 699 q 402 739 372 730 q 467 747 431 747 q 598 697 554 747 q 643 559 643 647 q 642 541 643 550 q 639 513 642 532 q 632 459 637 494 q 619 366 627 425 q 599 218 611 307 q 570 0 587 129 l 406 0 q 433 203 422 120 q 452 342 444 287 q 464 428 460 397 q 470 475 468 459 q 473 496 473 491 q 473 504 473 501 q 455 574 473 553 q 393 596 436 596 q 347 586 369 596 q 306 556 324 576 q 275 506 288 536 q 257 439 262 477 l 197 0 l 32 0 l 134 730 l 268 730 m 618 1004 l 619 1000 l 469 821 l 332 821 l 451 1004 l 618 1004 z "},"ŉ":{"ha":972,"x_min":161,"x_max":918,"o":"m 335 798 l 251 665 l 161 665 l 224 782 l 161 782 l 185 953 l 357 953 l 335 798 m 543 730 l 543 633 q 578 678 559 657 q 623 714 598 699 q 676 739 647 730 q 741 747 706 747 q 873 697 829 747 q 918 559 918 647 q 917 541 918 550 q 914 513 916 532 q 907 459 911 494 q 894 366 902 425 q 873 218 886 307 q 844 0 861 129 l 680 0 q 708 203 696 120 q 727 342 719 287 q 739 428 734 397 q 745 475 743 459 q 748 496 747 491 q 748 504 748 501 q 729 574 748 553 q 668 596 711 596 q 621 586 644 596 q 581 556 599 576 q 549 506 562 536 q 532 439 536 477 l 472 0 l 307 0 l 408 730 l 543 730 z "},"ň":{"ha":696,"x_min":32,"x_max":643,"o":"m 268 730 l 268 633 q 304 678 284 657 q 348 714 323 699 q 402 739 372 730 q 467 747 431 747 q 598 697 554 747 q 643 559 643 647 q 642 541 643 550 q 639 513 642 532 q 632 459 637 494 q 619 366 627 425 q 599 218 611 307 q 570 0 587 129 l 406 0 q 433 203 422 120 q 452 342 444 287 q 464 428 460 397 q 470 475 468 459 q 473 496 473 491 q 473 504 473 501 q 455 574 473 553 q 393 596 436 596 q 347 586 369 596 q 306 556 324 576 q 275 506 288 536 q 257 439 262 477 l 197 0 l 32 0 l 134 730 l 268 730 m 381 1004 l 429 908 l 499 1004 l 629 1004 l 485 817 l 349 817 l 256 1004 l 381 1004 z "},"ņ":{"ha":696,"x_min":32,"x_max":643,"o":"m 268 730 l 268 633 q 304 678 284 657 q 348 714 323 699 q 402 739 372 730 q 467 747 431 747 q 598 697 554 747 q 643 559 643 647 q 642 541 643 550 q 639 513 642 532 q 632 459 637 494 q 619 366 627 425 q 599 218 611 307 q 570 0 587 129 l 406 0 q 433 203 422 120 q 452 342 444 287 q 464 428 460 397 q 470 475 468 459 q 473 496 473 491 q 473 504 473 501 q 455 574 473 553 q 393 596 436 596 q 347 586 369 596 q 306 556 324 576 q 275 506 288 536 q 257 439 262 477 l 197 0 l 32 0 l 134 730 l 268 730 m 357 -232 l 273 -365 l 183 -365 l 247 -248 l 184 -248 l 208 -77 l 380 -77 l 357 -232 z "},"ŏ":{"ha":696,"x_min":50,"x_max":646,"o":"m 50 250 q 56 361 50 304 q 76 474 62 419 q 115 579 91 530 q 177 666 140 629 q 266 725 214 703 q 387 747 318 747 q 581 681 515 747 q 646 476 646 614 q 640 365 646 422 q 620 253 634 307 q 581 149 605 198 q 519 63 556 100 q 430 5 481 26 q 309 -17 378 -17 q 116 48 181 -17 q 50 250 50 113 m 221 254 q 243 156 221 189 q 314 123 265 123 q 379 146 352 123 q 424 203 406 168 q 452 280 441 238 q 467 361 462 322 q 473 432 472 401 q 475 476 475 463 q 453 573 475 540 q 382 607 431 607 q 317 585 344 607 q 272 527 290 562 q 244 450 254 492 q 229 369 234 408 q 222 299 224 330 q 221 254 221 267 m 423 856 q 350 867 382 856 q 296 898 318 879 q 262 941 274 917 q 251 989 251 964 l 251 996 q 252 1004 251 1000 l 355 1004 q 361 989 356 997 q 376 974 366 981 q 399 963 386 967 q 431 958 413 958 q 464 963 448 958 q 491 974 479 967 q 511 989 503 981 q 521 1004 519 997 l 623 1004 q 604 951 620 978 q 561 904 587 925 q 500 869 535 882 q 423 856 465 856 z "},"ő":{"ha":696,"x_min":50,"x_max":666,"o":"m 50 250 q 56 361 50 304 q 76 474 62 419 q 115 579 91 530 q 177 666 140 629 q 266 725 214 703 q 387 747 318 747 q 581 681 515 747 q 646 476 646 614 q 640 365 646 422 q 620 253 634 307 q 581 149 605 198 q 519 63 556 100 q 430 5 481 26 q 309 -17 378 -17 q 116 48 181 -17 q 50 250 50 113 m 221 254 q 243 156 221 189 q 314 123 265 123 q 379 146 352 123 q 424 203 406 168 q 452 280 441 238 q 467 361 462 322 q 473 432 472 401 q 475 476 475 463 q 453 573 475 540 q 382 607 431 607 q 317 585 344 607 q 272 527 290 562 q 244 450 254 492 q 229 369 234 408 q 222 299 224 330 q 221 254 221 267 m 665 1004 l 666 1000 l 549 821 l 439 821 l 526 1004 l 665 1004 m 470 1004 l 471 1000 l 355 821 l 245 821 l 331 1004 l 470 1004 z "},"ō":{"ha":696,"x_min":50,"x_max":646,"o":"m 50 250 q 56 361 50 304 q 76 474 62 419 q 115 579 91 530 q 177 666 140 629 q 266 725 214 703 q 387 747 318 747 q 581 681 515 747 q 646 476 646 614 q 640 365 646 422 q 620 253 634 307 q 581 149 605 198 q 519 63 556 100 q 430 5 481 26 q 309 -17 378 -17 q 116 48 181 -17 q 50 250 50 113 m 221 254 q 243 156 221 189 q 314 123 265 123 q 379 146 352 123 q 424 203 406 168 q 452 280 441 238 q 467 361 462 322 q 473 432 472 401 q 475 476 475 463 q 453 573 475 540 q 382 607 431 607 q 317 585 344 607 q 272 527 290 562 q 244 450 254 492 q 229 369 234 408 q 222 299 224 330 q 221 254 221 267 m 606 953 l 588 832 l 234 832 l 252 953 l 606 953 z "},"ǿ":{"ha":696,"x_min":50,"x_max":647,"o":"m 110 54 q 65 136 79 87 q 50 250 50 184 q 56 361 50 304 q 76 474 62 419 q 115 579 91 530 q 177 666 140 629 q 266 725 214 703 q 387 747 318 747 q 455 742 424 747 q 513 725 487 736 l 543 775 l 647 775 l 586 673 q 646 476 646 604 q 640 365 646 422 q 620 253 634 307 q 581 149 605 198 q 519 63 556 100 q 430 5 481 26 q 309 -17 378 -17 q 241 -12 272 -17 q 183 4 210 -6 l 154 -45 l 50 -45 l 110 54 m 433 593 q 410 603 422 600 q 382 607 397 607 q 317 585 344 607 q 272 527 290 562 q 244 450 254 492 q 229 369 234 408 q 222 299 224 330 q 221 254 221 267 l 221 239 l 433 593 m 262 136 q 314 123 283 123 q 379 146 352 123 q 424 203 406 168 q 452 280 441 238 q 467 361 462 322 q 473 432 472 401 q 475 476 475 463 l 475 489 l 262 136 m 609 1004 l 610 1000 l 460 821 l 323 821 l 442 1004 l 609 1004 z "},"ŕ":{"ha":443,"x_min":32,"x_max":485,"o":"m 268 730 l 268 619 q 293 664 279 642 q 326 706 307 687 q 367 736 344 724 q 418 747 389 747 q 446 745 434 747 q 467 741 458 743 q 485 736 477 739 l 464 575 l 411 575 q 358 567 384 575 q 312 539 333 559 q 275 488 290 520 q 253 407 260 456 l 196 0 l 32 0 l 134 730 l 268 730 m 422 1004 l 424 1000 l 273 821 l 136 821 l 256 1004 l 422 1004 z "},"ř":{"ha":443,"x_min":32,"x_max":485,"o":"m 268 730 l 268 619 q 293 664 279 642 q 326 706 307 687 q 367 736 344 724 q 418 747 389 747 q 446 745 434 747 q 467 741 458 743 q 485 736 477 739 l 464 575 l 411 575 q 358 567 384 575 q 312 539 333 559 q 275 488 290 520 q 253 407 260 456 l 196 0 l 32 0 l 134 730 l 268 730 m 186 1004 l 234 908 l 304 1004 l 434 1004 l 290 817 l 154 817 l 60 1004 l 186 1004 z "},"ŗ":{"ha":443,"x_min":-10,"x_max":485,"o":"m 268 730 l 268 619 q 293 664 279 642 q 326 706 307 687 q 367 736 344 724 q 418 747 389 747 q 446 745 434 747 q 467 741 458 743 q 485 736 477 739 l 464 575 l 411 575 q 358 567 384 575 q 312 539 333 559 q 275 488 290 520 q 253 407 260 456 l 196 0 l 32 0 l 134 730 l 268 730 m 164 -232 l 80 -365 l -10 -365 l 54 -248 l -9 -248 l 14 -77 l 186 -77 l 164 -232 z "},"ś":{"ha":633,"x_min":31,"x_max":600,"o":"m 31 172 q 32 196 31 184 q 35 217 33 208 q 39 237 37 228 l 208 237 l 205 224 q 203 213 204 218 q 203 203 203 207 q 212 162 203 178 q 235 137 220 146 q 268 123 249 127 q 306 119 286 119 q 336 123 320 119 q 365 137 352 127 q 387 160 378 146 q 396 195 396 174 q 383 240 396 222 q 349 271 370 258 q 301 294 328 284 q 247 316 275 304 q 192 343 218 328 q 144 382 165 359 q 110 439 123 406 q 97 519 97 472 q 119 618 97 576 q 177 690 140 661 q 263 733 214 718 q 367 747 312 747 q 479 728 435 747 q 551 676 524 709 q 589 603 578 644 q 600 517 600 561 l 432 517 q 429 554 432 537 q 417 584 426 572 q 392 604 408 597 q 350 611 376 611 q 319 606 334 611 q 293 592 304 601 q 276 569 282 583 q 269 539 269 555 q 282 497 269 514 q 316 469 295 481 q 365 447 338 456 q 421 426 393 437 q 476 400 449 415 q 525 363 504 385 q 559 308 547 340 q 572 229 572 275 q 549 116 572 163 q 488 40 526 69 q 399 -3 449 10 q 294 -17 349 -17 q 184 -4 233 -17 q 101 33 136 9 q 49 93 67 58 q 31 172 31 128 m 576 1004 l 578 1000 l 427 821 l 290 821 l 410 1004 l 576 1004 z "},"ş":{"ha":633,"x_min":31,"x_max":600,"o":"m 31 172 q 32 196 31 184 q 35 217 33 208 q 39 237 37 228 l 208 237 l 205 224 q 203 213 204 218 q 203 203 203 207 q 212 162 203 178 q 235 137 220 146 q 268 123 249 127 q 306 119 286 119 q 336 123 320 119 q 365 137 352 127 q 387 160 378 146 q 396 195 396 174 q 383 240 396 222 q 349 271 370 258 q 301 294 328 284 q 247 316 275 304 q 192 343 218 328 q 144 382 165 359 q 110 439 123 406 q 97 519 97 472 q 119 618 97 576 q 177 690 140 661 q 263 733 214 718 q 367 747 312 747 q 479 728 435 747 q 551 676 524 709 q 589 603 578 644 q 600 517 600 561 l 432 517 q 429 554 432 537 q 417 584 426 572 q 392 604 408 597 q 350 611 376 611 q 319 606 334 611 q 293 592 304 601 q 276 569 282 583 q 269 539 269 555 q 282 497 269 514 q 316 469 295 481 q 365 447 338 456 q 421 426 393 437 q 476 400 449 415 q 525 363 504 385 q 559 308 547 340 q 572 229 572 275 q 550 118 572 164 q 491 42 528 71 q 405 -2 454 12 q 303 -17 356 -16 l 296 -46 q 334 -53 316 -47 q 365 -67 351 -58 q 386 -91 378 -77 q 393 -125 393 -105 q 378 -190 393 -165 q 338 -229 362 -214 q 283 -248 313 -243 q 225 -253 254 -253 q 165 -250 196 -253 q 110 -241 134 -247 l 119 -174 l 218 -174 q 259 -165 243 -174 q 274 -132 274 -157 q 264 -113 274 -119 q 231 -107 254 -107 l 185 -107 l 210 -9 q 78 53 125 6 q 31 172 31 100 z "},"ŝ":{"ha":633,"x_min":31,"x_max":600,"o":"m 31 172 q 32 196 31 184 q 35 217 33 208 q 39 237 37 228 l 208 237 l 205 224 q 203 213 204 218 q 203 203 203 207 q 212 162 203 178 q 235 137 220 146 q 268 123 249 127 q 306 119 286 119 q 336 123 320 119 q 365 137 352 127 q 387 160 378 146 q 396 195 396 174 q 383 240 396 222 q 349 271 370 258 q 301 294 328 284 q 247 316 275 304 q 192 343 218 328 q 144 382 165 359 q 110 439 123 406 q 97 519 97 472 q 119 618 97 576 q 177 690 140 661 q 263 733 214 718 q 367 747 312 747 q 479 728 435 747 q 551 676 524 709 q 589 603 578 644 q 600 517 600 561 l 432 517 q 429 554 432 537 q 417 584 426 572 q 392 604 408 597 q 350 611 376 611 q 319 606 334 611 q 293 592 304 601 q 276 569 282 583 q 269 539 269 555 q 282 497 269 514 q 316 469 295 481 q 365 447 338 456 q 421 426 393 437 q 476 400 449 415 q 525 363 504 385 q 559 308 547 340 q 572 229 572 275 q 549 116 572 163 q 488 40 526 69 q 399 -3 449 10 q 294 -17 349 -17 q 184 -4 233 -17 q 101 33 136 9 q 49 93 67 58 q 31 172 31 128 m 471 1004 l 562 817 l 437 817 l 390 913 l 319 817 l 190 817 l 334 1004 l 471 1004 z "},"ŧ":{"ha":379,"x_min":12,"x_max":410,"o":"m 105 485 q 111 527 109 508 l 116 560 q 121 590 119 576 l 47 590 l 66 730 l 140 730 l 168 936 l 342 936 l 304 730 l 410 730 l 390 590 l 286 590 q 281 560 284 577 q 277 527 279 546 q 271 485 275 507 l 385 485 l 366 364 l 254 364 q 244 294 248 328 q 236 233 239 260 q 230 189 232 205 q 228 170 228 172 q 278 123 228 123 l 323 123 l 307 0 q 286 -6 298 -3 q 259 -12 273 -9 q 232 -16 245 -14 q 205 -17 218 -17 q 135 -5 163 -17 q 90 28 107 7 q 66 76 73 49 q 58 134 58 103 q 61 161 58 140 q 67 215 63 183 q 77 286 71 247 q 87 364 82 324 l 12 364 l 31 485 l 105 485 z "},"ť":{"ha":546,"x_min":47,"x_max":675,"o":"m 457 762 l 484 953 l 675 953 l 652 779 l 548 590 l 448 590 l 528 762 l 457 762 m 58 134 q 61 163 58 140 q 68 219 64 186 q 78 293 73 253 q 90 375 83 334 q 121 590 103 472 l 47 590 l 66 730 l 140 730 l 168 936 l 342 936 l 304 730 l 410 730 l 390 590 l 286 590 q 257 385 269 476 q 246 308 252 346 q 237 240 241 271 q 230 191 233 210 q 228 170 228 172 q 278 123 228 123 l 323 123 l 307 0 q 286 -6 298 -3 q 259 -12 273 -9 q 232 -16 245 -14 q 205 -17 218 -17 q 135 -5 163 -17 q 90 28 107 7 q 66 76 73 49 q 58 134 58 103 z "},"ţ":{"ha":379,"x_min":42,"x_max":410,"o":"m 58 134 q 61 163 58 140 q 68 219 64 186 q 78 293 73 253 q 90 375 83 334 q 121 590 103 472 l 47 590 l 66 730 l 140 730 l 168 936 l 342 936 l 304 730 l 410 730 l 390 590 l 286 590 q 257 385 269 476 q 246 308 252 346 q 237 240 241 271 q 230 191 233 210 q 228 170 228 172 q 278 123 228 123 l 323 123 l 307 0 q 286 -6 298 -3 q 259 -12 273 -9 q 232 -16 245 -14 q 205 -17 218 -17 q 135 -5 163 -17 q 90 28 107 7 q 66 76 73 49 q 58 134 58 103 m 216 -232 l 132 -365 l 42 -365 l 106 -248 l 43 -248 l 66 -77 l 239 -77 l 216 -232 z "},"ŭ":{"ha":696,"x_min":53,"x_max":664,"o":"m 53 171 q 54 190 53 180 q 57 218 54 199 q 64 271 59 237 q 77 364 68 305 q 97 512 85 423 q 126 730 109 602 l 290 730 q 263 527 274 610 q 244 389 252 444 q 232 302 236 334 q 225 255 228 271 q 223 234 223 239 q 222 227 222 229 q 241 157 222 178 q 302 135 260 135 q 349 145 327 135 q 390 175 372 155 q 421 224 408 195 q 439 292 433 254 l 498 730 l 664 730 l 562 0 l 427 0 l 427 94 q 390 51 410 71 q 346 15 370 31 q 293 -8 321 0 q 229 -17 264 -17 q 97 33 142 -17 q 53 171 53 83 m 418 856 q 345 867 376 856 q 291 898 313 879 q 257 941 269 917 q 245 989 245 964 l 245 996 q 247 1004 245 1000 l 350 1004 q 356 989 351 997 q 371 974 361 981 q 394 963 380 967 q 425 958 408 958 q 458 963 443 958 q 486 974 473 967 q 506 989 498 981 q 515 1004 513 997 l 618 1004 q 598 951 614 978 q 556 904 582 925 q 494 869 530 882 q 418 856 459 856 z "},"ű":{"ha":696,"x_min":53,"x_max":664,"o":"m 53 171 q 54 190 53 180 q 57 218 54 199 q 64 271 59 237 q 77 364 68 305 q 97 512 85 423 q 126 730 109 602 l 290 730 q 263 527 274 610 q 244 389 252 444 q 232 302 236 334 q 225 255 228 271 q 223 234 223 239 q 222 227 222 229 q 241 157 222 178 q 302 135 260 135 q 349 145 327 135 q 390 175 372 155 q 421 224 408 195 q 439 292 433 254 l 498 730 l 664 730 l 562 0 l 427 0 l 427 94 q 390 51 410 71 q 346 15 370 31 q 293 -8 321 0 q 229 -17 264 -17 q 97 33 142 -17 q 53 171 53 83 m 659 1004 l 661 1000 l 544 821 l 434 821 l 520 1004 l 659 1004 m 465 1004 l 466 1000 l 349 821 l 239 821 l 326 1004 l 465 1004 z "},"ū":{"ha":696,"x_min":53,"x_max":664,"o":"m 53 171 q 54 190 53 180 q 57 218 54 199 q 64 271 59 237 q 77 364 68 305 q 97 512 85 423 q 126 730 109 602 l 290 730 q 263 527 274 610 q 244 389 252 444 q 232 302 236 334 q 225 255 228 271 q 223 234 223 239 q 222 227 222 229 q 241 157 222 178 q 302 135 260 135 q 349 145 327 135 q 390 175 372 155 q 421 224 408 195 q 439 292 433 254 l 498 730 l 664 730 l 562 0 l 427 0 l 427 94 q 390 51 410 71 q 346 15 370 31 q 293 -8 321 0 q 229 -17 264 -17 q 97 33 142 -17 q 53 171 53 83 m 601 953 l 583 832 l 229 832 l 247 953 l 601 953 z "},"ⁿ":{"ha":452,"x_min":110,"x_max":521,"o":"m 268 1004 l 268 939 q 322 993 290 971 q 403 1015 355 1015 q 491 982 462 1015 q 521 889 521 949 q 520 877 521 883 q 518 857 520 870 q 514 822 517 844 q 505 759 511 799 q 491 660 499 720 q 471 513 482 600 l 361 513 q 379 650 372 593 q 393 743 387 706 q 401 801 398 780 q 405 832 404 821 q 407 846 406 843 q 407 851 407 849 q 395 899 407 884 q 353 914 382 914 q 294 887 320 914 q 261 808 269 859 l 221 513 l 110 513 l 178 1004 l 268 1004 z "},"ų":{"ha":696,"x_min":53,"x_max":664,"o":"m 363 -157 q 370 -106 363 -129 q 388 -64 376 -83 q 413 -30 399 -45 q 444 0 428 -14 l 427 0 l 427 94 q 390 51 410 71 q 346 15 370 31 q 293 -8 321 0 q 229 -17 264 -17 q 97 33 142 -17 q 53 171 53 83 q 54 190 53 180 q 57 218 54 199 q 64 271 59 237 q 77 364 68 305 q 97 512 85 423 q 126 730 109 602 l 290 730 q 263 527 274 610 q 244 389 252 444 q 232 302 236 334 q 225 255 228 271 q 223 234 223 239 q 222 227 222 229 q 241 157 222 178 q 302 135 260 135 q 349 145 327 135 q 390 175 372 155 q 421 224 408 195 q 439 292 433 254 l 498 730 l 664 730 l 562 0 q 544 -20 554 -8 q 525 -47 534 -33 q 511 -79 517 -62 q 505 -113 505 -96 q 517 -152 505 -136 q 559 -168 530 -168 l 590 -168 l 578 -244 q 530 -259 553 -254 q 484 -264 507 -264 q 441 -259 463 -264 q 402 -241 419 -254 q 374 -208 385 -229 q 363 -157 363 -187 z "},"ů":{"ha":696,"x_min":53,"x_max":664,"o":"m 53 171 q 54 190 53 180 q 57 218 54 199 q 64 271 59 237 q 77 364 68 305 q 97 512 85 423 q 126 730 109 602 l 290 730 q 263 527 274 610 q 244 389 252 444 q 232 302 236 334 q 225 255 228 271 q 223 234 223 239 q 222 227 222 229 q 241 157 222 178 q 302 135 260 135 q 349 145 327 135 q 390 175 372 155 q 421 224 408 195 q 439 292 433 254 l 498 730 l 664 730 l 562 0 l 427 0 l 427 94 q 390 51 410 71 q 346 15 370 31 q 293 -8 321 0 q 229 -17 264 -17 q 97 33 142 -17 q 53 171 53 83 m 420 779 q 368 789 393 779 q 326 818 344 800 q 297 860 307 836 q 286 913 286 884 q 297 964 286 940 q 325 1007 307 989 q 368 1035 343 1025 q 420 1046 392 1046 q 472 1035 448 1046 q 514 1006 496 1025 q 543 964 532 988 q 553 913 553 940 q 542 861 553 885 q 514 818 532 836 q 471 790 496 800 q 420 779 447 779 m 420 848 q 444 853 433 848 q 465 867 456 858 q 478 887 473 876 q 484 913 484 899 q 478 938 484 926 q 465 958 473 949 q 444 972 456 967 q 420 977 433 977 q 374 958 392 977 q 355 913 355 940 q 374 867 355 885 q 420 848 392 848 z "},"ũ":{"ha":696,"x_min":53,"x_max":667,"o":"m 53 171 q 54 190 53 180 q 57 218 54 199 q 64 271 59 237 q 77 364 68 305 q 97 512 85 423 q 126 730 109 602 l 290 730 q 263 527 274 610 q 244 389 252 444 q 232 302 236 334 q 225 255 228 271 q 223 234 223 239 q 222 227 222 229 q 241 157 222 178 q 302 135 260 135 q 349 145 327 135 q 390 175 372 155 q 421 224 408 195 q 439 292 433 254 l 498 730 l 664 730 l 562 0 l 427 0 l 427 94 q 390 51 410 71 q 346 15 370 31 q 293 -8 321 0 q 229 -17 264 -17 q 97 33 142 -17 q 53 171 53 83 m 184 835 q 195 892 184 862 q 226 947 205 922 q 275 988 246 972 q 340 1004 304 1004 q 388 996 366 1004 q 430 979 410 988 q 472 961 451 969 q 515 953 492 953 q 553 964 537 953 q 577 1004 568 975 l 667 1004 q 656 946 667 976 q 624 891 645 916 q 574 850 604 866 q 507 835 545 835 q 461 843 483 835 q 419 861 439 851 q 377 878 398 870 q 334 886 357 886 q 296 875 312 886 q 273 835 281 863 l 184 835 z "},"ẃ":{"ha":886,"x_min":58,"x_max":935,"o":"m 215 730 l 240 429 q 246 349 243 391 q 250 271 248 307 q 253 191 252 230 l 258 191 q 273 269 265 228 q 291 345 281 303 q 315 428 302 387 l 419 730 l 586 730 l 604 427 q 607 359 606 399 q 608 281 608 319 q 610 191 609 237 l 615 191 q 638 277 626 235 q 660 354 648 314 q 684 427 672 395 l 786 730 l 935 730 l 659 0 l 494 0 l 471 349 q 467 411 469 377 q 465 473 466 444 q 463 541 463 507 l 454 541 q 447 475 452 508 q 436 413 443 446 q 419 350 429 380 l 300 0 l 135 0 l 58 730 l 215 730 m 713 1004 l 714 1000 l 564 821 l 427 821 l 546 1004 l 713 1004 z "},"ŵ":{"ha":886,"x_min":58,"x_max":935,"o":"m 215 730 l 240 429 q 246 349 243 391 q 250 271 248 307 q 253 191 252 230 l 258 191 q 273 269 265 228 q 291 345 281 303 q 315 428 302 387 l 419 730 l 586 730 l 604 427 q 607 359 606 399 q 608 281 608 319 q 610 191 609 237 l 615 191 q 638 277 626 235 q 660 354 648 314 q 684 427 672 395 l 786 730 l 935 730 l 659 0 l 494 0 l 471 349 q 467 411 469 377 q 465 473 466 444 q 463 541 463 507 l 454 541 q 447 475 452 508 q 436 413 443 446 q 419 350 429 380 l 300 0 l 135 0 l 58 730 l 215 730 m 607 1004 l 699 817 l 574 817 l 526 913 l 456 817 l 326 817 l 471 1004 l 607 1004 z "},"ẅ":{"ha":886,"x_min":58,"x_max":935,"o":"m 215 730 l 240 429 q 246 349 243 391 q 250 271 248 307 q 253 191 252 230 l 258 191 q 273 269 265 228 q 291 345 281 303 q 315 428 302 387 l 419 730 l 586 730 l 604 427 q 607 359 606 399 q 608 281 608 319 q 610 191 609 237 l 615 191 q 638 277 626 235 q 660 354 648 314 q 684 427 672 395 l 786 730 l 935 730 l 659 0 l 494 0 l 471 349 q 467 411 469 377 q 465 473 466 444 q 463 541 463 507 l 454 541 q 447 475 452 508 q 436 413 443 446 q 419 350 429 380 l 300 0 l 135 0 l 58 730 l 215 730 m 730 1004 l 710 852 l 571 852 l 591 1004 l 730 1004 m 488 1004 l 467 852 l 329 852 l 349 1004 l 488 1004 z "},"ẁ":{"ha":886,"x_min":58,"x_max":935,"o":"m 215 730 l 240 429 q 246 349 243 391 q 250 271 248 307 q 253 191 252 230 l 258 191 q 273 269 265 228 q 291 345 281 303 q 315 428 302 387 l 419 730 l 586 730 l 604 427 q 607 359 606 399 q 608 281 608 319 q 610 191 609 237 l 615 191 q 638 277 626 235 q 660 354 648 314 q 684 427 672 395 l 786 730 l 935 730 l 659 0 l 494 0 l 471 349 q 467 411 469 377 q 465 473 466 444 q 463 541 463 507 l 454 541 q 447 475 452 508 q 436 413 443 446 q 419 350 429 380 l 300 0 l 135 0 l 58 730 l 215 730 m 349 1004 l 516 1004 l 609 821 l 471 821 l 347 1000 l 349 1004 z "},"ŷ":{"ha":633,"x_min":-9,"x_max":684,"o":"m 81 -113 q 150 -86 116 -113 q 207 0 184 -60 l 68 730 l 235 730 l 296 387 q 303 334 299 366 q 309 271 307 302 q 315 197 312 235 l 321 197 q 342 268 331 233 q 362 330 351 298 q 382 386 372 362 l 519 730 l 684 730 l 390 37 q 335 -75 364 -22 q 269 -167 305 -127 q 190 -230 233 -207 q 94 -253 146 -253 q 17 -247 44 -253 q -9 -240 -9 -241 l 5 -113 l 81 -113 m 485 1004 l 576 817 l 452 817 l 404 913 l 334 817 l 204 817 l 349 1004 l 485 1004 z "},"ỳ":{"ha":633,"x_min":-9,"x_max":684,"o":"m 81 -113 q 150 -86 116 -113 q 207 0 184 -60 l 68 730 l 235 730 l 296 387 q 303 334 299 366 q 309 271 307 302 q 315 197 312 235 l 321 197 q 342 268 331 233 q 362 330 351 298 q 382 386 372 362 l 519 730 l 684 730 l 390 37 q 335 -75 364 -22 q 269 -167 305 -127 q 190 -230 233 -207 q 94 -253 146 -253 q 17 -247 44 -253 q -9 -240 -9 -241 l 5 -113 l 81 -113 m 227 1004 l 394 1004 l 487 821 l 349 821 l 224 1000 l 227 1004 z "},"ź":{"ha":570,"x_min":-17,"x_max":579,"o":"m 335 590 l 75 590 l 94 730 l 579 730 l 574 661 l 225 140 l 511 140 l 492 0 l -17 0 l -11 71 l 335 590 m 530 1004 l 531 1000 l 380 821 l 243 821 l 363 1004 l 530 1004 z "},"ż":{"ha":570,"x_min":-17,"x_max":579,"o":"m 335 590 l 75 590 l 94 730 l 579 730 l 574 661 l 225 140 l 511 140 l 492 0 l -17 0 l -11 71 l 335 590 m 431 1004 l 408 844 l 259 844 l 282 1004 l 431 1004 z "},"ﬁ":{"ha":696,"x_min":-118,"x_max":715,"o":"m 43 590 l 62 730 l 135 730 l 147 819 q 166 891 153 856 q 202 954 179 926 q 261 998 226 981 q 346 1015 296 1015 q 376 1014 360 1015 q 408 1010 393 1013 q 438 1005 424 1008 q 463 999 452 1002 l 444 875 l 378 875 q 332 860 349 875 q 311 815 315 845 l 300 730 l 425 730 l 406 590 l 281 590 l 195 -57 q 177 -129 190 -94 q 142 -191 165 -163 q 84 -236 119 -219 q 1 -253 50 -253 q -30 -252 -14 -253 q -63 -248 -47 -250 q -93 -242 -79 -245 q -118 -236 -108 -239 l -100 -113 l -39 -113 q 10 -96 -7 -113 q 32 -46 28 -79 l 115 590 l 43 590 m 715 1004 l 694 852 l 529 852 l 550 1004 l 715 1004 m 677 730 l 576 0 l 411 0 l 513 730 l 677 730 z "},"ﬂ":{"ha":696,"x_min":-118,"x_max":713,"o":"m 43 590 l 62 730 l 135 730 l 147 819 q 166 891 153 856 q 202 954 179 926 q 261 998 226 981 q 346 1015 296 1015 q 376 1014 360 1015 q 408 1010 393 1013 q 438 1005 424 1008 q 463 999 452 1002 l 444 875 l 378 875 q 332 860 349 875 q 311 815 315 845 l 300 730 l 425 730 l 406 590 l 281 590 l 195 -57 q 177 -129 190 -94 q 142 -191 165 -163 q 84 -236 119 -219 q 1 -253 50 -253 q -30 -252 -14 -253 q -63 -248 -47 -250 q -93 -242 -79 -245 q -118 -236 -108 -239 l -100 -113 l -39 -113 q 10 -96 -7 -113 q 32 -46 28 -79 l 115 590 l 43 590 m 713 1004 l 574 0 l 408 0 l 547 1004 l 713 1004 z "},"∆":{"ha":764,"x_min":-37,"x_max":734,"o":"m 374 953 l 578 953 l 734 77 l 724 0 l -37 0 l -26 77 l 374 953 m 444 751 l 439 751 l 176 158 l 543 158 l 444 751 z "},"Ω":{"ha":1067,"x_min":110,"x_max":970,"o":"m 165 158 q 208 151 181 158 q 266 139 235 143 q 196 244 222 182 q 170 392 170 307 q 181 531 170 461 q 217 664 193 600 q 278 784 241 728 q 364 881 315 840 q 476 946 414 922 q 616 970 539 970 q 765 948 699 970 q 876 880 830 926 q 946 766 922 835 q 970 606 970 698 q 956 452 970 522 q 917 323 942 381 q 855 219 891 264 q 775 139 819 173 q 806 144 790 141 q 835 150 821 147 q 861 156 849 153 q 881 158 873 158 l 914 158 l 893 0 l 553 0 l 570 113 q 644 148 611 123 q 702 211 677 173 q 744 300 727 250 q 768 411 760 350 q 779 492 775 460 q 786 545 783 524 q 789 577 788 565 q 789 599 789 589 q 779 691 789 650 q 746 759 768 731 q 692 802 725 787 q 616 817 659 817 q 521 795 564 817 q 446 735 478 774 q 392 639 413 696 q 361 511 370 583 q 351 431 355 463 q 345 380 347 399 q 342 349 343 360 q 342 328 342 337 q 372 186 342 241 q 466 114 403 132 l 449 0 l 110 0 l 131 158 l 165 158 z "},"π":{"ha":811,"x_min":26,"x_max":800,"o":"m 26 0 q 59 80 42 35 q 93 178 76 126 q 125 285 109 229 q 154 394 140 340 q 178 498 168 448 q 196 590 189 549 q 146 589 167 590 q 109 586 125 588 q 82 581 94 584 q 58 572 70 577 l 58 689 q 136 720 85 709 q 269 730 186 730 l 800 730 l 770 590 l 676 590 l 624 216 q 613 121 615 161 q 611 53 611 81 q 611 24 611 37 q 614 0 612 10 l 452 0 q 444 53 444 15 q 458 204 444 106 l 511 590 l 359 590 q 340 497 351 549 q 314 389 328 445 q 285 276 300 333 q 253 167 269 219 q 221 72 237 115 q 191 0 205 28 l 26 0 z "},"⁄":{"ha":191,"x_min":-298,"x_max":479,"o":"m 387 970 l 479 970 l -205 -17 l -298 -17 l 387 970 z "},"⅛":{"ha":950,"x_min":33,"x_max":903,"o":"m 880 970 l 196 -17 l 103 -17 l 789 970 l 880 970 m 150 489 l 196 812 l 92 812 l 102 890 q 139 898 118 892 q 184 912 161 904 q 230 931 207 920 q 271 953 252 941 l 326 953 l 261 489 l 353 489 l 339 393 l 33 393 l 47 489 l 150 489 m 541 118 q 546 167 541 142 q 562 213 551 191 q 589 253 572 235 q 627 283 605 271 q 598 328 608 301 q 589 383 589 354 q 601 454 589 420 q 635 514 613 488 q 690 555 658 540 q 761 570 722 570 q 824 559 797 570 q 868 532 850 549 q 894 490 886 514 q 903 437 903 466 q 883 351 903 391 q 829 285 864 310 q 867 241 854 268 q 879 182 879 214 q 867 106 879 142 q 832 42 856 70 q 774 -1 809 15 q 693 -17 739 -17 q 623 -7 652 -17 q 576 22 594 3 q 549 65 557 40 q 541 118 541 90 m 699 376 q 734 329 699 329 q 773 355 758 329 q 789 429 789 380 q 781 464 789 452 q 755 475 773 475 q 728 465 739 475 q 710 440 717 455 q 701 408 704 425 q 699 376 699 391 m 656 134 q 699 78 656 78 q 745 104 727 78 q 764 182 764 130 q 753 222 764 208 q 721 236 742 236 q 691 227 703 236 q 671 202 679 217 q 660 170 663 188 q 656 134 656 151 z "},"⅜":{"ha":950,"x_min":40,"x_max":913,"o":"m 196 385 q 79 423 118 385 q 40 528 40 462 q 41 545 40 535 q 46 579 41 555 l 160 579 q 155 547 155 555 q 154 534 154 539 q 201 481 154 481 q 225 487 214 481 q 245 504 237 492 q 260 535 254 516 q 265 579 265 553 q 250 624 265 612 q 216 636 235 636 l 189 636 l 203 729 l 232 729 q 252 735 241 729 q 271 754 262 741 q 286 785 280 766 q 292 828 292 804 q 282 864 292 853 q 256 875 273 875 q 219 855 234 875 q 197 783 203 835 l 83 783 q 106 865 90 830 q 146 924 123 901 q 198 959 169 947 q 261 971 228 971 q 321 963 294 971 q 368 937 349 954 q 398 895 387 920 q 408 838 408 870 q 401 785 408 808 q 382 744 395 762 q 353 713 370 726 q 317 688 336 699 q 361 645 344 673 q 379 576 379 617 q 364 497 379 532 q 324 436 349 461 q 266 398 298 411 q 196 385 233 385 m 878 970 l 193 -17 l 100 -17 l 786 970 l 878 970 m 550 118 q 555 167 550 142 q 571 213 560 191 q 598 253 582 235 q 636 283 614 271 q 608 328 617 301 q 599 383 599 354 q 611 454 599 420 q 645 514 623 488 q 699 555 667 540 q 771 570 731 570 q 833 559 807 570 q 878 532 860 549 q 904 490 895 514 q 913 437 913 466 q 893 351 913 391 q 839 285 873 310 q 877 241 864 268 q 889 182 889 214 q 878 106 889 142 q 843 42 866 70 q 784 -1 819 15 q 703 -17 749 -17 q 632 -7 661 -17 q 585 22 604 3 q 558 65 567 40 q 550 118 550 90 m 708 376 q 745 329 708 329 q 784 355 768 329 q 799 429 799 380 q 765 475 799 475 q 738 465 749 475 q 720 440 726 455 q 711 408 713 425 q 708 376 708 391 m 665 134 q 676 92 665 105 q 708 78 688 78 q 755 104 736 78 q 774 182 774 130 q 763 222 774 208 q 730 236 751 236 q 701 227 713 236 q 681 202 689 217 q 669 170 673 188 q 665 134 665 151 z "},"⅝":{"ha":950,"x_min":45,"x_max":907,"o":"m 872 970 l 187 -17 l 94 -17 l 781 970 l 872 970 m 199 378 q 86 416 127 378 q 45 524 45 454 q 45 540 45 532 q 47 558 46 549 l 163 558 q 161 545 161 551 q 160 532 160 538 q 172 487 160 503 q 205 471 184 471 q 231 479 218 471 q 254 505 243 488 q 270 547 264 522 q 277 604 277 572 q 266 651 277 635 q 239 668 256 668 q 203 654 218 668 q 176 618 188 640 l 74 635 l 138 953 l 418 953 l 403 848 l 220 848 l 199 734 q 230 750 210 742 q 272 758 250 758 q 320 750 298 758 q 358 724 342 741 q 383 680 374 706 q 392 618 392 653 q 377 516 392 561 q 336 440 362 471 q 275 394 310 410 q 199 378 239 378 m 545 135 q 550 184 545 159 q 566 230 555 208 q 593 270 576 252 q 631 300 609 288 q 602 344 612 317 q 593 400 593 370 q 605 471 593 437 q 640 531 617 505 q 694 571 662 556 q 765 586 726 586 q 828 576 801 586 q 872 548 854 566 q 898 506 890 530 q 907 454 907 482 q 887 368 907 408 q 833 301 868 327 q 871 258 859 285 q 884 199 884 231 q 872 122 884 159 q 837 59 860 86 q 778 16 813 32 q 697 0 743 0 q 627 10 656 0 q 580 39 598 20 q 553 82 562 57 q 545 135 545 106 m 703 393 q 739 346 703 346 q 778 371 763 346 q 793 446 793 397 q 785 480 793 469 q 760 492 777 492 q 732 482 743 492 q 714 457 721 472 q 705 425 708 442 q 703 393 703 408 m 660 150 q 703 94 660 94 q 750 120 731 94 q 768 199 768 146 q 757 239 768 224 q 725 253 746 253 q 695 243 707 253 q 675 219 683 234 q 664 186 667 204 q 660 150 660 168 z "},"⅞":{"ha":950,"x_min":46,"x_max":904,"o":"m 823 970 l 139 -17 l 46 -17 l 732 970 l 823 970 m 79 400 q 110 526 88 464 q 161 646 132 588 q 227 754 191 703 q 298 848 262 806 l 81 848 l 96 953 l 439 953 l 428 879 q 359 788 395 838 q 292 682 323 738 q 237 565 260 626 q 204 440 213 504 l 197 393 l 78 393 l 79 400 m 542 118 q 547 167 542 142 q 563 213 552 191 q 590 253 574 235 q 628 283 606 271 q 600 328 609 301 q 590 383 590 354 q 602 454 590 420 q 637 514 614 488 q 691 555 659 540 q 762 570 723 570 q 825 559 798 570 q 869 532 852 549 q 896 490 887 514 q 904 437 904 466 q 885 351 904 391 q 831 285 865 310 q 868 241 856 268 q 880 182 880 214 q 869 106 880 142 q 834 42 857 70 q 775 -1 810 15 q 694 -17 741 -17 q 624 -7 653 -17 q 577 22 595 3 q 550 65 559 40 q 542 118 542 90 m 700 376 q 736 329 700 329 q 775 355 760 329 q 790 429 790 380 q 782 464 790 452 q 757 475 774 475 q 729 465 741 475 q 712 440 718 455 q 703 408 705 425 q 700 376 700 391 m 657 134 q 700 78 657 78 q 747 104 728 78 q 765 182 765 130 q 754 222 765 208 q 722 236 743 236 q 692 227 705 236 q 672 202 680 217 q 661 170 665 188 q 657 134 657 151 z "},"‼":{"ha":758,"x_min":49,"x_max":764,"o":"m 764 953 l 618 273 l 504 273 l 551 953 l 764 953 m 385 953 l 239 273 l 125 273 l 172 953 l 385 953 m 647 191 l 619 0 l 428 0 l 456 191 l 647 191 m 268 191 l 240 0 l 49 0 l 77 191 l 268 191 z "},"′":{"ha":271,"x_min":102,"x_max":290,"o":"m 289 953 l 290 949 l 225 703 l 102 703 l 136 953 l 289 953 z "},"″":{"ha":541,"x_min":110,"x_max":509,"o":"m 507 953 l 509 949 l 443 703 l 319 703 l 354 953 l 507 953 m 297 953 l 298 949 l 233 703 l 110 703 l 144 953 l 297 953 z "},"‗":{"ha":694,"x_min":-66,"x_max":653,"o":"m 643 -193 l -52 -193 l -41 -122 l 653 -122 l 643 -193 m 627 -314 l -66 -314 l -57 -243 l 636 -243 l 627 -314 z "},"‾":{"ha":694,"x_min":96,"x_max":802,"o":"m 802 1194 l 789 1099 l 96 1099 l 107 1194 l 802 1194 z "},"‛":{"ha":317,"x_min":126,"x_max":342,"o":"m 150 953 l 342 953 l 315 762 l 244 762 l 285 546 l 184 546 l 126 779 l 150 953 z "},"₣":{"ha":700,"x_min":12,"x_max":741,"o":"m 325 0 l 379 396 l 241 396 l 186 0 l 12 0 l 144 953 l 629 953 l 607 794 l 298 794 l 264 554 l 401 554 l 416 663 l 551 663 l 551 551 q 574 596 562 574 q 603 637 587 619 q 641 667 620 656 q 688 679 661 679 q 710 677 701 679 q 727 673 720 675 q 741 668 734 671 l 720 507 l 681 507 q 633 499 656 507 q 590 472 610 491 q 557 420 571 452 q 536 339 543 387 l 489 0 l 325 0 z "},"₤":{"ha":633,"x_min":0,"x_max":668,"o":"m 90 150 l 113 310 l 28 310 l 43 428 l 129 428 l 138 485 l 52 485 l 66 603 l 151 603 l 165 693 q 256 901 186 832 q 439 970 326 970 q 535 957 492 970 q 607 917 578 943 q 652 850 637 890 q 668 757 668 810 q 667 728 668 743 q 664 693 666 713 l 500 693 q 504 729 503 719 q 505 747 505 740 q 485 809 505 788 q 432 829 465 829 q 369 805 394 829 q 336 729 344 780 l 318 603 l 475 603 l 460 485 l 302 485 l 294 428 l 452 428 l 435 310 l 277 310 l 240 150 l 578 150 l 555 0 l 0 0 l 21 150 l 90 150 z "}}}
